<?xml version="1.0" encoding="UTF-8" standalone="no"?>
<!-- Created with Inkscape (http://www.inkscape.org/) -->

<svg
   width="128"
   height="128"
   viewBox="0 0 33.866667 33.866667"
   version="1.1"
   id="svg5"
   inkscape:version="1.2 (dc2aedaf03, 2022-05-15)"
   sodipodi:docname="xi.svg"
   xml:space="preserve"
   inkscape:export-filename="xi.png"
   inkscape:export-xdpi="96"
   inkscape:export-ydpi="96"
   xmlns:inkscape="http://www.inkscape.org/namespaces/inkscape"
   xmlns:sodipodi="http://sodipodi.sourceforge.net/DTD/sodipodi-0.dtd"
   xmlns="http://www.w3.org/2000/svg"
   xmlns:svg="http://www.w3.org/2000/svg"><sodipodi:namedview
     id="namedview7"
     pagecolor="#ffffff"
     bordercolor="#666666"
     borderopacity="1.0"
     inkscape:pageshadow="2"
     inkscape:pageopacity="0.0"
     inkscape:pagecheckerboard="0"
     inkscape:document-units="mm"
     showgrid="false"
     inkscape:zoom="4.0587127"
     inkscape:cx="94.118513"
     inkscape:cy="98.06065"
     inkscape:window-width="1920"
     inkscape:window-height="1007"
     inkscape:window-x="0"
     inkscape:window-y="0"
     inkscape:window-maximized="1"
     inkscape:current-layer="g309"
     inkscape:showpageshadow="2"
     inkscape:deskcolor="#d1d1d1" /><defs
     id="defs2" /><g
     inkscape:label="图层 1"
     inkscape:groupmode="layer"
     id="layer1"
     transform="translate(-110.66899,-40.350534)"><g
       id="g309"
       transform="translate(-0.11703734)"><circle
         style="fill:#ffff01;fill-opacity:1;stroke:none;stroke-width:0.0772785"
         id="path1508"
         cx="127.55717"
         cy="53.702965"
         r="12.98008" /><g
         aria-label="D i l u t e"
         transform="matrix(0.85386971,-0.07399145,0.07399145,0.85386971,18.282565,5.8205404)"
         id="text1877"
         style="font-size:6.14405px;font-family:'Special Elite';-inkscape-font-specification:'Special Elite, Normal';fill:#ee1c25;stroke-width:0.115201"><path
           d="m 110.20012,77.915306 q 0,0.09 -0.018,0.210002 -0.018,0.117001 -0.051,0.249002 -0.03,0.129001 -0.072,0.267002 -0.039,0.138002 -0.084,0.267003 -0.045,0.126001 -0.093,0.237002 -0.045,0.108 -0.087,0.183001 -0.018,0.03 -0.057,0.063 -0.036,0.03 -0.075,0.066 -0.039,0.033 -0.069,0.066 -0.03,0.033 -0.03,0.063 -0.024,0.003 -0.075,0.015 -0.051,0.009 -0.108,0.027 -0.054,0.015 -0.102,0.036 -0.045,0.018 -0.054,0.036 -0.033,0.063 -0.042,0.084 -0.006,0.021 -0.015,0.027 -0.009,0.003 -0.036,0.003 -0.024,-0.003 -0.096,0.012 -0.027,0.006 -0.069,0.018 -0.039,0.012 -0.084,0.024 -0.042,0.012 -0.081,0.018 -0.039,0.009 -0.063,0.009 -0.066,0 -0.12901,-0.021 -0.06,-0.021 -0.126,-0.021 -0.042,0 -0.075,0.012 -0.111,0.042 -0.213,0.06 -0.099,0.018 -0.219,0.018 l -0.423,-0.057 q -0.048,0.012 -0.096,0.015 -0.048,0.006 -0.096,0.006 -0.06,0 -0.12,-0.006 -0.057,-0.006 -0.117,-0.015 -0.009,-0.045 -0.03,-0.084 -0.018,-0.042 -0.036,-0.084 -0.018,-0.042 -0.033,-0.084 -0.015,-0.045 -0.015,-0.09 0,-0.078 0.039,-0.111001 0.039,-0.036 0.099,-0.048 0.06,-0.015 0.126,-0.021 0.069,-0.009 0.129,-0.036 0.06,-0.027 0.099,-0.084 0.039,-0.057 0.039,-0.171001 0,-0.069 -0.012,-0.138001 -0.009,-0.069 -0.024,-0.138001 -0.012,-0.072 -0.024,-0.141001 -0.009,-0.069 -0.009,-0.138002 0,-0.051 0.009,-0.099 0.009,-0.051 0.009,-0.102001 0,-0.093 -0.015,-0.183002 -0.012,-0.093 -0.012,-0.186001 0,-0.108001 0.012,-0.213002 0.012,-0.108001 0.012,-0.216002 0,-0.102001 -0.021,-0.198001 -0.018,-0.099 -0.018,-0.204002 0,-0.057 0.003,-0.114001 0.003,-0.057 0.003,-0.114001 0,-0.066 -0.006,-0.126001 -0.006,-0.063 -0.024,-0.126001 -0.021,-0.075 -0.024,-0.147001 -0.003,-0.072 -0.018,-0.129001 -0.015,-0.06 -0.057,-0.102001 -0.042,-0.045 -0.141,-0.066 -0.033,-0.006 -0.051,-0.018 -0.015,-0.015 -0.03,-0.027 -0.015,-0.015 -0.039,-0.027 -0.021,-0.012 -0.066,-0.018 -0.132,-0.018 -0.132,-0.147002 0,-0.072 0.027,-0.126001 0.027,-0.057 0.069,-0.102 0.042,-0.045 0.093,-0.081 0.054,-0.039 0.105,-0.078 0.078,-0.06 0.147,-0.072 0.069,-0.015 0.147,-0.015 h 0.12901 q 0.087,0 0.171,-0.006 0.087,-0.009 0.174,-0.009 0.051,0 0.102,0.006 0.054,0.006 0.105,0.021 0.027,0.009 0.051,0.021 0.027,0.009 0.054,0.009 0.042,0 0.072,-0.024 0.03,-0.027 0.054,-0.027 0.006,0 0.006,0.006 0,0.006 -0.003,0.015 0,0.006 0,0.012 0,0.018 0.024,0.018 0.015,0 0.021,-0.018 0.009,-0.018 0.036,-0.024 0.021,0.009 0.033,0.021 0.012,0.009 0.021,0.018 0.012,0.009 0.027,0.015 0.018,0.006 0.045,0.006 0.063,0 0.126,-0.009 0.063,-0.012 0.12601,-0.012 0.081,0 0.15,0.027 0.069,0.027 0.129,0.069 0.063,0.039 0.12,0.09 0.057,0.051 0.114,0.099 0.042,0.036 0.084,0.057 0.045,0.018 0.084,0.039 0.039,0.018 0.075,0.048 0.036,0.027 0.063,0.084 0.03,0.063 0.069,0.123001 0.042,0.057 0.081,0.114001 0.042,0.054 0.081,0.114001 0.039,0.057 0.069,0.123001 0.075,0.171001 0.105,0.360003 0.033,0.186001 0.066,0.369003 0.015,0.078 0.033,0.159001 0.018,0.078 0.018,0.156002 0,0.042 -0.015,0.081 -0.015,0.039 -0.015,0.081 0,0.027 0.009,0.048 0.009,0.021 0.021,0.042 0.012,0.021 0.021,0.048 0.009,0.027 0.009,0.063 z m -0.50101,-0.201001 q 0,-0.117001 -0.033,-0.228002 -0.033,-0.111001 -0.102,-0.207002 0.033,-0.033 0.042,-0.078 0.009,-0.045 0.009,-0.087 0,-0.045 -0.006,-0.09 -0.003,-0.045 -0.003,-0.087 0,-0.024 -0.018,-0.042 -0.015,-0.018 -0.036,-0.033 -0.018,-0.018 -0.039,-0.033 -0.021,-0.018 -0.03,-0.042 -0.012,-0.03 -0.018,-0.051 -0.003,-0.024 -0.006,-0.045 -0.003,-0.021 -0.012,-0.045 -0.009,-0.024 -0.03,-0.057 -0.015,-0.024 -0.024,-0.045 -0.009,-0.024 -0.009,-0.057 0,-0.03 0.009,-0.063 -0.012,-0.024 -0.039,-0.039 -0.027,-0.018 -0.06,-0.027 -0.036,-0.012 -0.081,-0.018 -0.045,0 -0.096,-0.027 -0.048,-0.027 -0.102,-0.06 -0.054,-0.033 -0.111,-0.06 -0.054,-0.027 -0.111,-0.027 -0.087,0 -0.17101,0.015 -0.084,0.015 -0.171,0.027 -0.066,0.009 -0.144,0.012 -0.078,0 -0.147,0.015 -0.066,0.015 -0.111,0.057 -0.045,0.039 -0.045,0.126001 0,0.105001 0.012,0.213002 0.015,0.108001 0.015,0.222002 0,0.237002 -0.021,0.474004 -0.018,0.234002 -0.018,0.474004 0,0.111 0.012,0.222001 0.012,0.108001 0.012,0.222002 0,0.147001 -0.024,0.291003 -0.021,0.144001 -0.021,0.291002 0,0.06 0,0.129001 0,0.069 0.012,0.132001 0.012,0.063 0.045,0.114001 0.033,0.051 0.099,0.075 0.093,0.033 0.183,0.066 0.093,0.03 0.195,0.03 0.06,0 0.117,-0.027 0.057,-0.03 0.11701,-0.048 0.039,-0.012 0.087,-0.021 0.051,-0.012 0.099,-0.024 0.048,-0.015 0.09,-0.036 0.045,-0.024 0.075,-0.057 0.045,-0.051 0.087,-0.09 0.042,-0.039 0.117,-0.054 0.036,-0.006 0.045,-0.024 0.012,-0.021 0.015,-0.045 0.006,-0.027 0.015,-0.054 0.009,-0.03 0.039,-0.051 0.048,-0.036 0.072,-0.084 0.027,-0.048 0.039,-0.102 0.012,-0.054 0.018,-0.108001 0.009,-0.057 0.024,-0.111001 0.033,-0.120001 0.075,-0.243002 0.045,-0.123001 0.045,-0.249002 0,-0.033 -0.015,-0.057 -0.015,-0.027 -0.015,-0.06 0,-0.018 0.006,-0.021 0.009,-0.006 0.018,-0.012 0.009,-0.009 0.015,-0.024 0.009,-0.015 0.009,-0.057 z"
           id="path294" /><path
           d="m 114.30415,76.079291 q 0,0.087 -0.03,0.180002 -0.027,0.09 -0.081,0.168001 -0.054,0.075 -0.132,0.126001 -0.075,0.048 -0.168,0.048 -0.063,0 -0.156,-0.018 -0.093,-0.021 -0.18001,-0.057 -0.084,-0.039 -0.147,-0.099 -0.06,-0.06 -0.06,-0.141001 0,-0.072 0.015,-0.147001 0.018,-0.078 0.021,-0.156001 0.03,-0.015 0.06,-0.054 0.03,-0.039 0.057,-0.078 0.03,-0.042 0.057,-0.075 0.03,-0.033 0.06,-0.036 l -0.015,0.006 q 0.042,-0.018 0.087,-0.03 0.048,-0.012 0.096,-0.012 0.063,0 0.15,0.033 0.09,0.03 0.171,0.081 0.081,0.051 0.138,0.120001 0.057,0.069 0.057,0.141001 z m 1.45201,3.65103 q 0,0.051 -0.021,0.096 -0.018,0.045 -0.054,0.078 -0.033,0.036 -0.078,0.057 -0.045,0.021 -0.099,0.021 -0.021,0 -0.027,-0.006 -0.006,-0.006 -0.021,-0.021 -0.042,-0.045 -0.102,-0.054 -0.06,-0.006 -0.126,-0.015 -0.063,-0.006 -0.123,-0.033 -0.057,-0.024 -0.093,-0.102001 -0.024,-0.051 -0.051,-0.066 -0.027,-0.015 -0.084,-0.015 -0.13201,0 -0.25201,0.042 -0.12,0.042 -0.237,0.096 -0.117,0.051 -0.24,0.093 -0.12,0.042 -0.249,0.042 -0.072,0 -0.144,-0.015 -0.069,-0.012 -0.13501,-0.042 -0.015,0.015 -0.036,0.021 -0.018,0.006 -0.042,0.006 -0.021,0 -0.042,-0.003 -0.018,-0.003 -0.033,-0.003 -0.003,0 -0.033,0.009 -0.03,0.012 -0.036,0.015 l 0.018,0.03 q -0.018,0.027 -0.081,0.051 -0.063,0.027 -0.138,0.045 -0.072,0.018 -0.141,0.03 -0.069,0.012 -0.105,0.012 -0.096,0 -0.159,-0.033 -0.06,-0.03 -0.12,-0.108001 -0.021,-0.03 -0.054,-0.06 -0.03,-0.03 -0.06,-0.06 -0.027,-0.033 -0.048,-0.069 -0.018,-0.036 -0.018,-0.075 0,-0.045 0.048,-0.075 0.048,-0.03 0.114,-0.048 0.066,-0.021 0.132,-0.027 0.066,-0.009 0.102,-0.009 0.072,0 0.144,0.021 0.072,0.018 0.144,0.018 0.066,0 0.126,-0.018 0.06,-0.018 0.126,-0.018 0.057,0 0.111,0.009 0.057,0.006 0.11401,0.006 0.072,0 0.138,-0.024 0.069,-0.027 0.129,-0.069 0.024,-0.147001 0.033,-0.294002 0.012,-0.147002 0.012,-0.297003 0,-0.147001 -0.024,-0.294002 -0.024,-0.147001 -0.024,-0.291003 0,-0.012 0.006,-0.012 0.006,-0.003 0.012,-0.003 0.009,-0.003 0.015,-0.006 0.006,-0.006 0.006,-0.024 0,-0.063 -0.018,-0.123001 -0.018,-0.06 -0.018,-0.123001 0,-0.078 0.021,-0.153001 0.021,-0.075 0.021,-0.153001 0,-0.054 -0.024,-0.108001 -0.024,-0.054 -0.063,-0.096 -0.039,-0.042 -0.09,-0.066 -0.051,-0.027 -0.108,-0.027 -0.063,0 -0.12601,0.015 -0.06,0.015 -0.126,0.036 -0.066,0.018 -0.135,0.033 -0.066,0.015 -0.141,0.015 -0.087,0 -0.171,-0.012 -0.084,-0.012 -0.171,-0.027 -0.042,-0.006 -0.096,-0.012 -0.051,-0.006 -0.099,-0.021 -0.048,-0.015 -0.081,-0.045 -0.033,-0.03 -0.033,-0.087 0,-0.105001 0.036,-0.159001 0.039,-0.057 0.093,-0.084 0.057,-0.027 0.126,-0.033 0.069,-0.006 0.132,-0.012 0.114,-0.009 0.225,-0.015 0.114,-0.009 0.228,-0.009 0.141,0 0.276,0.018 0.13801,0.015 0.27901,0.015 0.099,0 0.189,0.03 0.09,0.03 0.156,0.093 0.069,0.06 0.108,0.153001 0.039,0.093 0.039,0.216002 0,0.081 -0.036,0.159001 -0.033,0.075 -0.087,0.135001 0.021,0.039 0.042,0.054 0.021,0.012 0.039,0.024 0.018,0.009 0.03,0.027 0.012,0.015 0.012,0.06 0,0.024 0.006,0.057 0.009,0.03 0.042,0.033 0,0.162001 -0.003,0.321002 -0.003,0.156001 -0.003,0.315003 0,0.135001 0,0.270002 0.003,0.135001 0.024,0.270002 0.012,0.084 0.048,0.129001 0.036,0.045 0.129,0.045 0.135,0 0.26701,-0.027 0.132,-0.03 0.267,-0.03 0.078,0 0.147,0.039 0.072,0.039 0.135,0.084 0.066,0.045 0.126,0.084 0.06,0.039 0.114,0.039 0.024,0 0.039,0.018 0.015,0.015 0.021,0.039 0.009,0.021 0.009,0.045 0.003,0.024 0.003,0.042 z"
           id="path296" /><path
           d="m 120.8652,79.688321 q 0,0.105001 -0.072,0.165001 -0.069,0.063 -0.168,0.093 -0.099,0.033 -0.207,0.042 -0.105,0.009 -0.18,0.009 -0.099,0 -0.165,-0.018 -0.063,-0.018 -0.111,-0.039 -0.048,-0.018 -0.084,-0.036 -0.036,-0.018 -0.075,-0.018 -0.051,0 -0.102,0.018 -0.048,0.018 -0.099,0.018 -0.036,0 -0.06,-0.012 -0.021,-0.012 -0.036,-0.03 -0.015,-0.015 -0.03,-0.027 -0.012,-0.012 -0.03,-0.012 -0.021,0 -0.033,0.015 -0.012,0.018 -0.027,0.039 -0.015,0.021 -0.045,0.036 -0.027,0.018 -0.081,0.018 -0.063,0 -0.123,-0.015 -0.06,-0.012 -0.123,-0.012 -0.063,0 -0.126,0.021 -0.06,0.024 -0.114,0.024 -0.024,0 -0.036,-0.018 -0.012,-0.015 -0.027,-0.015 -0.051,0 -0.108,0.024 -0.054,0.024 -0.111,0.024 -0.03,0 -0.06,-0.009 -0.027,-0.006 -0.057,-0.006 -0.051,0 -0.102,0.024 -0.051,0.024 -0.126,0.024 -0.027,0 -0.12,-0.009 -0.09,-0.006 -0.186,-0.021 -0.096,-0.015 -0.174,-0.039 -0.075,-0.021 -0.075,-0.048 0,-0.078 0.027,-0.156002 0.03,-0.078 0.03,-0.150001 v -0.006 q -0.039,0 -0.045,-0.042 0.006,-0.012 0.018,-0.018 0.015,-0.009 0.03,-0.012 0.015,-0.006 0.027,-0.015 0.012,-0.009 0.012,-0.027 v -0.012 q 0.12,0.012 0.234,0.015 0.117,0.003 0.243,0.003 0.117,0 0.258,-0.006 0.14401,-0.009 0.26401,-0.045 0.123,-0.036 0.204,-0.108001 0.084,-0.075 0.084,-0.207002 v -0.021 -0.048 q -0.015,-0.330003 -0.033,-0.648006 -0.015,-0.321002 -0.015,-0.651005 0,-0.087 -0.015,-0.168001 -0.012,-0.084 -0.012,-0.168002 0,-0.105001 0.036,-0.210001 0.039,-0.105001 0.12,-0.177002 -0.003,-0.018 -0.015,-0.024 -0.012,-0.009 -0.03,-0.012 -0.018,-0.003 -0.036,-0.006 -0.015,-0.003 -0.027,-0.009 -0.018,-0.009 -0.024,-0.042 -0.006,-0.033 -0.012,-0.072 -0.003,-0.039 -0.009,-0.075 -0.003,-0.039 -0.018,-0.06 0.009,-0.087 0.03,-0.171002 0.021,-0.084 0.021,-0.171001 0,-0.063 -0.018,-0.099 -0.015,-0.036 -0.036,-0.06 -0.021,-0.024 -0.039,-0.042 -0.015,-0.021 -0.015,-0.051 0,-0.024 0.015,-0.045 l -0.024,-0.003 q -0.03,0 -0.045,0.015 -0.015,0.015 -0.03,0.033 -0.012,0.018 -0.027,0.033 -0.015,0.015 -0.042,0.015 -0.021,0 -0.048,-0.009 -0.051,0.015 -0.096,0.015 -0.10501,0 -0.21001,-0.027 -0.102,-0.03 -0.207,-0.03 -0.057,0 -0.111,0.006 -0.054,0.003 -0.108,0.003 -0.078,0 -0.156,-0.018 -0.078,-0.018 -0.138,-0.078 v -0.036 q 0,-0.159001 0.105,-0.240002 0.108,-0.081 0.261,-0.081 0.105,0 0.207,0.027 0.102,0.027 0.207,0.027 0.057,0 0.12001,-0.012 0.063,-0.012 0.129,-0.027 0.066,-0.015 0.132,-0.027 0.069,-0.012 0.135,-0.012 0.102,0 0.192,0.045 0.09,0.042 0.18,0.081 l -0.003,0.024 q 0,0.027 0.012,0.051 0.015,0.021 0.033,0.045 0.018,0.021 0.03,0.045 0.015,0.021 0.015,0.048 0,0.027 -0.009,0.054 -0.006,0.024 -0.006,0.051 0,0.066 0.024,0.126001 0.027,0.06 0.027,0.129001 0,0.072 -0.018,0.141001 -0.015,0.069 -0.015,0.141001 0,0.087 0.021,0.174001 0.021,0.087 0.021,0.174002 0,0.072 -0.024,0.141001 -0.021,0.069 -0.021,0.138001 0,0.051 0.012,0.102001 0.015,0.048 0.033,0.096 0.018,0.048 0.03,0.099 0.015,0.048 0.015,0.102 v 0.06 q 0,0.048 -0.009,0.093 -0.006,0.042 -0.039,0.081 0.015,0.057 0.03,0.123001 0.018,0.066 0.018,0.126001 0,0.03 -0.006,0.066 -0.003,0.033 -0.015,0.069 -0.009,0.033 -0.027,0.063 -0.018,0.027 -0.042,0.045 0.039,0.114001 0.051,0.231002 0.012,0.117001 0.018,0.234002 0.003,0.036 0.012,0.093 0.009,0.057 0.018,0.114001 0.009,0.054 0.015,0.102001 0.009,0.045 0.009,0.063 0,0.051 -0.018,0.099 -0.018,0.048 -0.018,0.099 0,0.039 0.018,0.084 0.018,0.042 0.066,0.042 0.036,0 0.06,-0.015 0.027,-0.018 0.057,-0.036 0.03,-0.021 0.069,-0.036 0.042,-0.018 0.111,-0.018 0.078,0 0.147,0.021 0.069,0.021 0.147,0.021 0.057,0 0.114,-0.009 0.06,-0.012 0.114,-0.024 0.057,-0.015 0.114,-0.027 0.057,-0.012 0.117,-0.012 0.12,0 0.201,0.069 0.084,0.069 0.084,0.204002 z m -1.72201,-3.735031 q -0.012,-0.012 -0.03,-0.024 -0.015,-0.012 -0.036,-0.012 -0.015,0 -0.027,0.015 -0.009,0.012 -0.009,0.027 l 0.015,0.036 q 0.012,0.006 0.018,0.006 0.024,0 0.039,-0.015 0.018,-0.018 0.03,-0.033 z m 0.18,0.834007 q 0,-0.024 -0.015,-0.048 -0.012,-0.027 -0.042,-0.027 -0.009,0 -0.021,0.003 -0.009,0.003 -0.015,0.006 v 0.129001 q 0.024,0.012 0.036,0.012 0.03,0 0.042,-0.024 0.015,-0.027 0.015,-0.051 z"
           id="path298" /><path
           d="m 126.51425,79.655321 q 0,0.054 -0.036,0.114001 -0.033,0.06 -0.087,0.108 -0.051,0.051 -0.111,0.084 -0.06,0.033 -0.114,0.033 -0.093,0 -0.183,-0.015 -0.09,-0.015 -0.186,-0.015 -0.045,0 -0.10501,-0.006 -0.057,-0.006 -0.081,-0.03 -0.069,-0.012 -0.102,-0.054 -0.033,-0.039 -0.06,-0.087 -0.024,-0.048 -0.054,-0.093 -0.027,-0.045 -0.084,-0.063 -0.171,0.075 -0.303,0.144002 -0.129,0.069 -0.258,0.120001 -0.126,0.054 -0.27301,0.084 -0.144,0.033 -0.345,0.033 -0.087,0 -0.126,-0.009 -0.036,-0.009 -0.057,-0.03 -0.018,-0.018 -0.036,-0.051 -0.015,-0.033 -0.06,-0.081 -0.024,-0.024 -0.048,-0.027 -0.021,-0.006 -0.042,-0.006 h -0.015 q -0.027,0 -0.051,-0.009 -0.021,-0.012 -0.033,-0.06 -0.009,-0.036 -0.036,-0.081 -0.027,-0.048 -0.063,-0.096 -0.033,-0.048 -0.069,-0.087 -0.036,-0.039 -0.066,-0.06 l -0.003,-0.297003 q -0.003,-0.300002 0.018,-0.594005 0.021,-0.294002 0.021,-0.594004 0,-0.045 -0.003,-0.123001 -0.003,-0.081 -0.015,-0.162002 -0.009,-0.081 -0.036,-0.144001 -0.024,-0.066 -0.069,-0.078 -0.069,-0.015 -0.14101,-0.012 -0.069,0 -0.138,-0.003 -0.069,-0.003 -0.135,-0.021 -0.063,-0.018 -0.12,-0.078 -0.033,-0.033 -0.063,-0.081 -0.027,-0.048 -0.027,-0.099 0,-0.075 0.063,-0.126001 0.066,-0.054 0.156,-0.087 0.09,-0.033 0.183,-0.048 0.093,-0.015 0.15,-0.015 0.16501,0 0.31201,0.051 0.15,0.048 0.273,0.159002 0.006,0.006 0.006,0.012 0,0.003 -0.003,0.006 0.006,0.087 0.024,0.174001 0.018,0.084 0.018,0.171001 0,0.048 -0.015,0.09 -0.012,0.042 -0.012,0.093 0,0.051 0.012,0.102001 0.012,0.051 0.012,0.102001 0,0.033 -0.006,0.066 -0.006,0.033 -0.006,0.066 0,0.093 0.021,0.183001 0.021,0.087 0.021,0.180002 0,0.081 -0.018,0.159001 -0.018,0.075 -0.042,0.153001 -0.021,0.078 -0.039,0.156001 -0.018,0.075 -0.018,0.156002 0,0.111001 0.045,0.207001 0.045,0.096 0.12,0.168002 0.075,0.069 0.171,0.111001 0.099,0.039 0.207,0.039 0.093,0 0.15,-0.018 0.06,-0.021 0.096,-0.045 0.036,-0.024 0.057,-0.042 0.024,-0.021 0.048,-0.021 0.024,0 0.042,0.006 0.021,0.003 0.042,0.003 0.042,0 0.069,-0.018 0.027,-0.018 0.048,-0.042 0.024,-0.024 0.045,-0.045 0.024,-0.024 0.06,-0.033 0.069,-0.015 0.12,-0.039 0.051,-0.027 0.051,-0.108001 0,-0.015 0.003,-0.027 0.006,-0.012 0.03,-0.012 0.015,0 0.021,0.009 0.009,0.006 0.024,0.012 0.015,-0.012 0.021,-0.033 0.006,-0.021 0.012,-0.036 0.015,-0.054 0.054,-0.096 0.042,-0.042 0.048,-0.096 0.006,-0.06 0.03,-0.111 0.024,-0.051 0.024,-0.108001 0,-0.051 -0.027,-0.09 -0.027,-0.039 -0.027,-0.093 0,-0.06 0.021,-0.120001 0.024,-0.06 0.024,-0.120001 -0.018,-0.024 -0.036,-0.054 -0.015,-0.03 -0.015,-0.06 0,-0.051 0.018,-0.066 0.018,-0.018 0.018,-0.036 0,-0.027 -0.015,-0.054 -0.012,-0.03 -0.03,-0.057 -0.018,-0.027 -0.033,-0.054 -0.012,-0.027 -0.012,-0.057 0,-0.03 0.009,-0.057 0.012,-0.03 0.012,-0.063 0,-0.048 -0.024,-0.084 -0.021,-0.039 -0.057,-0.063 -0.033,-0.027 -0.078,-0.039 -0.042,-0.015 -0.084,-0.021 -0.075,-0.009 -0.129,-0.009 -0.054,0 -0.096,-0.012 -0.039,-0.015 -0.075,-0.051 -0.033,-0.036 -0.069,-0.117001 -0.021,-0.048 -0.021,-0.081 0,-0.072 0.063,-0.114001 0.066,-0.045 0.153,-0.066 0.087,-0.024 0.174,-0.03 0.09,-0.009 0.141,-0.009 0.048,0 0.093,0.009 0.048,0.006 0.096,0.006 0.051,0 0.099,-0.018 0.051,-0.021 0.102,-0.021 0.072,0 0.11701,0.042 0.045,0.039 0.069,0.105001 0.027,0.063 0.036,0.147001 0.009,0.081 0.009,0.165002 0,0.111 -0.009,0.210001 -0.006,0.099 -0.006,0.159002 0,0.129001 0.024,0.243002 0.027,0.111 0.027,0.207001 0,0.03 -0.015,0.06 -0.012,0.03 -0.027,0.06 -0.015,0.03 -0.03,0.06 -0.012,0.03 -0.012,0.06 0,0.024 0.009,0.042 l 0.021,0.174001 q -0.015,0.012 -0.018,0.03 -0.003,0.018 -0.003,0.033 0,0.048 0.009,0.096 0.012,0.045 0.012,0.096 0,0.057 -0.012,0.114001 -0.012,0.054 -0.012,0.111001 0,0.138001 0.093,0.213002 0.096,0.072 0.225,0.072 0.072,0 0.144,-0.024 0.021,0.045 0.057,0.081 0.039,0.033 0.075,0.066 0.036,0.033 0.06,0.075 0.027,0.042 0.027,0.102001 z"
           id="path300" /><path
           d="m 131.40429,78.779314 q 0,0.096 -0.021,0.183001 -0.021,0.084 -0.048,0.168001 -0.027,0.081 -0.057,0.168002 -0.027,0.084 -0.042,0.174001 -0.027,0.150001 -0.108,0.249002 -0.081,0.099 -0.195,0.156001 -0.114,0.06 -0.255,0.087 -0.13801,0.03 -0.28501,0.045 -0.147,0.015 -0.291,0.021 -0.141,0.006 -0.261,0.021 -0.045,-0.033 -0.075,-0.072 -0.03,-0.039 -0.057,-0.075 -0.027,-0.033 -0.06,-0.057 -0.033,-0.021 -0.087,-0.021 -0.018,0 -0.03,-0.048 -0.009,-0.051 -0.018,-0.111001 -0.009,-0.063 -0.021,-0.111001 -0.009,-0.051 -0.027,-0.051 -0.069,0 -0.11101,-0.03 -0.039,-0.03 -0.063,-0.075 -0.021,-0.048 -0.03,-0.105001 -0.006,-0.057 -0.006,-0.111001 0,-0.042 -0.018,-0.078 -0.018,-0.036 -0.039,-0.069 -0.021,-0.036 -0.039,-0.072 -0.018,-0.036 -0.018,-0.075 0,-0.045 0.003,-0.111 0.006,-0.069 0.009,-0.141002 0.006,-0.072 0.009,-0.141001 0.006,-0.069 0.006,-0.114001 0,-0.054 0.012,-0.09 0.015,-0.036 0.033,-0.063 0.018,-0.027 0.03,-0.048 0.015,-0.021 0.015,-0.048 0,-0.036 -0.018,-0.06 -0.015,-0.024 -0.015,-0.048 0,-0.033 0.021,-0.063 0.021,-0.033 0.03,-0.066 0.033,-0.132001 0.033,-0.261002 0,-0.027 -0.003,-0.051 0,-0.027 -0.003,-0.051 -0.069,-0.057 -0.153,-0.072 -0.084,-0.018 -0.168,-0.024 -0.084,-0.009 -0.162,-0.021 -0.078,-0.012 -0.132,-0.063 -0.045,-0.042 -0.081,-0.093 -0.036,-0.054 -0.096,-0.072 -0.042,-0.015 -0.072,-0.039 -0.027,-0.027 -0.027,-0.075 0,-0.072 0.042,-0.108001 0.045,-0.039 0.105,-0.06 0.06,-0.024 0.123,-0.039 0.066,-0.018 0.111,-0.051 0.045,-0.033 0.108,-0.033 0.027,0 0.051,0.003 0.027,0 0.054,0 0.075,0 0.123,-0.024 0.051,-0.027 0.078,-0.069 0.03,-0.045 0.039,-0.102001 0.012,-0.057 0.012,-0.123001 0,-0.096 -0.012,-0.186002 -0.012,-0.09 -0.012,-0.186001 0,-0.111001 0.03,-0.204002 0.03,-0.093 0.114,-0.171001 0.018,-0.015 0.039,-0.039 0.021,-0.024 0.045,-0.045 0.024,-0.024 0.048,-0.039 0.027,-0.015 0.054,-0.015 0.018,0 0.03,0.009 0.015,0.006 0.03,0.018 0.066,0.066 0.084,0.099 0.021,0.03 0.021,0.072 0,0.024 -0.003,0.054 0,0.027 0,0.072 0,0.096 0.024,0.189002 0.024,0.093 0.024,0.159001 0,0.057 -0.024,0.111001 -0.021,0.051 -0.021,0.108001 0,0.042 0.018,0.078 0.021,0.033 0.045,0.066 0.027,0.033 0.048,0.069 0.021,0.033 0.021,0.078 0.03,0.021 0.135,0.039 0.105,0.015 0.234,0.027 0.129,0.009 0.261,0.015 0.132,0.006 0.21901,0.006 0.078,0 0.12,0.012 0.042,0.012 0.069,0.027 0.03,0.012 0.054,0.027 0.024,0.015 0.063,0.018 0.048,0.006 0.081,0.027 0.036,0.018 0.036,0.075 0,0.072 -0.039,0.114001 -0.036,0.042 -0.093,0.063 -0.054,0.021 -0.117,0.027 -0.063,0.003 -0.117,0.003 -0.087,0 -0.17401,-0.006 -0.087,-0.006 -0.174,-0.006 -0.144,0 -0.261,0.027 -0.117,0.027 -0.204,0.09 -0.084,0.063 -0.132,0.168001 -0.045,0.102001 -0.045,0.258002 0,0.153002 0.018,0.300003 0.021,0.147001 0.021,0.300002 0,0.144001 0.003,0.231002 0.006,0.087 0.036,0.147001 0.039,0.087 0.063,0.198002 0.024,0.111001 0.06,0.210002 0.039,0.099 0.105,0.168001 0.069,0.066 0.201,0.066 0.045,0 0.12,-0.012 0.075,-0.012 0.15,-0.036 0.075,-0.027 0.12901,-0.066 0.054,-0.042 0.054,-0.102001 0,-0.051 -0.03,-0.102001 -0.03,-0.054 -0.03,-0.114001 0,-0.042 0.018,-0.072 0.021,-0.033 0.051,-0.057 0.033,-0.027 0.066,-0.045 0.036,-0.021 0.069,-0.036 0.054,-0.069 0.129,-0.114001 0.078,-0.048 0.165,-0.048 0.06,0 0.114,0.021 0.057,0.021 0.105,0.054 0.009,0.054 0.009,0.111001 z"
           id="path302" /><path
           d="m 136.42033,79.217317 q 0,0.081 -0.027,0.138001 -0.024,0.057 -0.066,0.102001 -0.039,0.045 -0.093,0.084 -0.051,0.039 -0.105,0.084 -0.042,0.036 -0.075,0.054 -0.033,0.018 -0.066,0.03 -0.03,0.012 -0.066,0.024 -0.033,0.012 -0.078,0.033 -0.06,0.03 -0.102,0.057 -0.039,0.024 -0.081,0.045 -0.039,0.021 -0.087,0.033 -0.048,0.015 -0.12,0.024 -0.12,0.015 -0.243,0.036 -0.12,0.021 -0.24,0.021 -0.024,0 -0.051,-0.012 -0.024,-0.009 -0.057,-0.021 -0.033,-0.009 -0.075,-0.021 -0.039,-0.009 -0.096,-0.009 -0.06,0 -0.096,-0.018 -0.036,-0.018 -0.066,-0.042 -0.027,-0.024 -0.057,-0.051 -0.03,-0.03 -0.078,-0.051 -0.18,-0.081 -0.306,-0.195001 -0.126,-0.114001 -0.216,-0.255002 -0.09,-0.141001 -0.15,-0.306003 -0.06,-0.165001 -0.102,-0.345002 -0.033,-0.126002 -0.033,-0.252003 0,-0.165001 0.078,-0.306002 -0.03,-0.084 -0.03,-0.162001 0,-0.057 0.033,-0.168002 0.033,-0.114001 0.084,-0.228002 0.054,-0.114001 0.114,-0.204001 0.063,-0.093 0.117,-0.114001 0.042,-0.015 0.057,-0.024 0.018,-0.012 0.018,-0.06 0,-0.036 0.027,-0.06 0.03,-0.024 0.069,-0.039 0.042,-0.015 0.081,-0.027 0.042,-0.012 0.069,-0.024 0.111,-0.054 0.21001,-0.09 0.102,-0.039 0.201,-0.063 0.102,-0.027 0.21,-0.039 0.108,-0.012 0.231,-0.012 0.066,0 0.129,0.018 0.063,0.018 0.12,0.048 0.06,0.027 0.117,0.063 0.057,0.033 0.111,0.066 h -0.003 q 0.045,0.006 0.084,0.027 0.042,0.018 0.087,0.024 0.042,0.051 0.108,0.099 0.069,0.045 0.132,0.096 0.066,0.051 0.111,0.111001 0.048,0.057 0.048,0.132001 0,0.012 -0.003,0.024 0,0.012 -0.003,0.027 l 0.012,-0.015 q 0.012,0.009 0.021,0.03 0.012,0.021 0.021,0.048 0.009,0.024 0.015,0.051 0.006,0.024 0.009,0.039 0.024,0.039 0.063,0.063 0.042,0.024 0.066,0.066 -0.03,0.03 -0.03,0.078 0,0.051 0.021,0.102001 0.021,0.048 0.021,0.099 0,0.06 -0.006,0.117001 -0.006,0.054 -0.006,0.114001 0,0.045 -0.036,0.069 -0.033,0.024 -0.075,0.042 -0.039,0.018 -0.072,0.036 -0.033,0.018 -0.033,0.051 0,0.024 -0.03,0.024 -0.027,-0.003 -0.045,-0.003 -0.132,0 -0.264,-0.033 -0.129,-0.033 -0.25801,-0.033 -0.141,0 -0.279,0.021 -0.138,0.018 -0.279,0.018 -0.105,0 -0.21,-0.006 -0.102,-0.006 -0.207,-0.006 -0.027,0 -0.102,0.012 -0.075,0.009 -0.15901,0.027 -0.081,0.015 -0.156,0.039 -0.075,0.021 -0.105,0.042 -0.003,0.015 -0.003,0.042 0,0.141002 0.081,0.291003 0.084,0.150001 0.219,0.273002 0.13501,0.123001 0.30301,0.204002 0.168,0.081 0.339,0.081 0.099,0 0.195,0.009 0.099,0.006 0.192,0.042 0.081,-0.039 0.147,-0.09 0.069,-0.051 0.13201,-0.108001 0.063,-0.057 0.123,-0.117001 0.06,-0.06 0.123,-0.120001 0.012,-0.012 0.057,-0.021 0.048,-0.012 0.102,-0.018 0.054,-0.009 0.102,-0.012 0.051,-0.006 0.069,-0.006 0.069,0 0.129,0.021 0.018,0.069 0.018,0.135001 z m -0.45,-1.21801 q 0,-0.045 -0.015,-0.087 -0.015,-0.042 -0.024,-0.087 -0.015,-0.084 -0.015,-0.162002 0,-0.081 -0.024,-0.162001 h -0.003 q 0,0.018 -0.012,0.036 -0.012,0.015 -0.033,0.015 -0.036,0 -0.069,-0.018 -0.033,-0.018 -0.057,-0.045 -0.11401,-0.051 -0.20701,-0.096 -0.09,-0.045 -0.183,-0.078 -0.09,-0.036 -0.195,-0.054 -0.102,-0.021 -0.237,-0.021 -0.012,0 -0.024,0.003 -0.009,0 -0.018,0.009 l 0.015,0.033 -0.024,0.006 q -0.081,0.015 -0.135,0.03 -0.051,0.012 -0.093,0.036 -0.042,0.024 -0.084,0.06 -0.039,0.033 -0.102,0.087 -0.03,0.027 -0.066,0.042 -0.033,0.012 -0.069,0.024 -0.033,0.009 -0.066,0.021 -0.03,0.012 -0.051,0.039 -0.021,0.075 -0.063,0.147001 -0.039,0.069 -0.039,0.147002 0,0.045 0.036,0.081 0.039,0.033 0.096,0.057 0.06,0.024 0.129,0.042 0.072,0.018 0.14101,0.027 0.069,0.009 0.126,0.015 0.06,0.003 0.093,0.003 0.114,0 0.225,-0.021 0.111,-0.024 0.225,-0.024 0.117,0 0.234,0.012 0.117,0.009 0.234,0.009 0.03,0 0.09,-0.003 0.06,-0.003 0.117,-0.015 0.06,-0.015 0.102,-0.039 0.045,-0.027 0.045,-0.069 z"
           id="path304" /></g><g
         aria-label="D i l u t e"
         transform="matrix(0.8558157,-0.04634327,0.04634327,0.8558157,20.19685,2.2989476)"
         id="text1877-2"
         style="font-size:6.14405px;font-family:'Special Elite';-inkscape-font-specification:'Special Elite, Normal';fill:#ee1c25;fill-opacity:0.349824;stroke-width:0.115201"><path
           d="m 110.48832,77.711762 q 0,0.09 -0.018,0.210002 -0.018,0.117001 -0.051,0.249002 -0.03,0.129001 -0.072,0.267002 -0.039,0.138001 -0.084,0.267002 -0.045,0.126001 -0.093,0.237002 -0.045,0.108001 -0.087,0.183001 -0.018,0.03 -0.057,0.063 -0.036,0.03 -0.075,0.066 -0.039,0.033 -0.069,0.066 -0.03,0.033 -0.03,0.063 -0.024,0.003 -0.075,0.015 -0.051,0.009 -0.108,0.027 -0.054,0.015 -0.102,0.036 -0.045,0.018 -0.054,0.036 -0.033,0.063 -0.042,0.084 -0.006,0.021 -0.015,0.027 -0.009,0.003 -0.036,0.003 -0.024,-0.003 -0.096,0.012 -0.027,0.006 -0.069,0.018 -0.039,0.012 -0.084,0.024 -0.042,0.012 -0.081,0.018 -0.039,0.009 -0.063,0.009 -0.066,0 -0.12901,-0.021 -0.06,-0.021 -0.126,-0.021 -0.042,0 -0.075,0.012 -0.111,0.042 -0.213,0.06 -0.099,0.018 -0.219,0.018 l -0.423,-0.057 q -0.048,0.012 -0.096,0.015 -0.048,0.006 -0.096,0.006 -0.06,0 -0.12,-0.006 -0.057,-0.006 -0.117,-0.015 -0.009,-0.045 -0.03,-0.084 -0.018,-0.042 -0.036,-0.084 -0.018,-0.042 -0.033,-0.084 -0.015,-0.045 -0.015,-0.09 0,-0.078 0.039,-0.111001 0.039,-0.036 0.099,-0.048 0.06,-0.015 0.126,-0.021 0.069,-0.009 0.129,-0.036 0.06,-0.027 0.099,-0.084 0.039,-0.057 0.039,-0.171002 0,-0.069 -0.012,-0.138001 -0.009,-0.069 -0.024,-0.138001 -0.012,-0.072 -0.024,-0.141001 -0.009,-0.069 -0.009,-0.138001 0,-0.051 0.009,-0.099 0.009,-0.051 0.009,-0.102001 0,-0.093 -0.015,-0.183001 -0.012,-0.093 -0.012,-0.186002 0,-0.108001 0.012,-0.213002 0.012,-0.108 0.012,-0.216001 0,-0.102001 -0.021,-0.198002 -0.018,-0.099 -0.018,-0.204002 0,-0.057 0.003,-0.114001 0.003,-0.057 0.003,-0.114001 0,-0.066 -0.006,-0.126001 -0.006,-0.063 -0.024,-0.126001 -0.021,-0.075 -0.024,-0.147001 -0.003,-0.072 -0.018,-0.129001 -0.015,-0.06 -0.057,-0.102001 -0.042,-0.045 -0.141,-0.066 -0.033,-0.006 -0.051,-0.018 -0.015,-0.015 -0.03,-0.027 -0.015,-0.015 -0.039,-0.027 -0.021,-0.012 -0.066,-0.018 -0.132,-0.018 -0.132,-0.147001 0,-0.072 0.027,-0.126001 0.027,-0.057 0.069,-0.102001 0.042,-0.045 0.093,-0.081 0.054,-0.039 0.105,-0.078 0.078,-0.06 0.147,-0.072 0.069,-0.015 0.14701,-0.015 h 0.129 q 0.087,0 0.171,-0.006 0.087,-0.009 0.174,-0.009 0.051,0 0.102,0.006 0.054,0.006 0.105,0.021 0.027,0.009 0.051,0.021 0.027,0.009 0.054,0.009 0.042,0 0.072,-0.024 0.03,-0.027 0.054,-0.027 0.006,0 0.006,0.006 0,0.006 -0.003,0.015 0,0.006 0,0.012 0,0.018 0.024,0.018 0.015,0 0.021,-0.018 0.009,-0.018 0.036,-0.024 0.021,0.009 0.033,0.021 0.012,0.009 0.021,0.018 0.012,0.009 0.027,0.015 0.018,0.006 0.045,0.006 0.063,0 0.12601,-0.009 0.063,-0.012 0.126,-0.012 0.081,0 0.15,0.027 0.069,0.027 0.129,0.069 0.063,0.039 0.12,0.09 0.057,0.051 0.114,0.099 0.042,0.036 0.084,0.057 0.045,0.018 0.084,0.039 0.039,0.018 0.075,0.048 0.036,0.027 0.063,0.084 0.03,0.063 0.069,0.123001 0.042,0.057 0.081,0.114 0.042,0.054 0.081,0.114001 0.039,0.057 0.069,0.123001 0.075,0.171002 0.105,0.360003 0.033,0.186002 0.066,0.369003 0.015,0.078 0.033,0.159002 0.018,0.078 0.018,0.156001 0,0.042 -0.015,0.081 -0.015,0.039 -0.015,0.081 0,0.027 0.009,0.048 0.009,0.021 0.021,0.042 0.012,0.021 0.021,0.048 0.009,0.027 0.009,0.063 z m -0.50101,-0.201002 q 0,-0.117001 -0.033,-0.228002 -0.033,-0.111001 -0.102,-0.207001 0.033,-0.033 0.042,-0.078 0.009,-0.045 0.009,-0.087 0,-0.045 -0.006,-0.09 -0.003,-0.045 -0.003,-0.087 0,-0.024 -0.018,-0.042 -0.015,-0.018 -0.036,-0.033 -0.018,-0.018 -0.039,-0.033 -0.021,-0.018 -0.03,-0.042 -0.012,-0.03 -0.018,-0.051 -0.003,-0.024 -0.006,-0.045 -0.003,-0.021 -0.012,-0.045 -0.009,-0.024 -0.03,-0.057 -0.015,-0.024 -0.024,-0.045 -0.009,-0.024 -0.009,-0.057 0,-0.03 0.009,-0.063 -0.012,-0.024 -0.039,-0.039 -0.027,-0.018 -0.06,-0.027 -0.036,-0.012 -0.081,-0.018 -0.045,0 -0.096,-0.027 -0.048,-0.027 -0.102,-0.06 -0.054,-0.033 -0.111,-0.06 -0.054,-0.027 -0.111,-0.027 -0.087,0 -0.17101,0.015 -0.084,0.015 -0.171,0.027 -0.066,0.009 -0.144,0.012 -0.078,0 -0.147,0.015 -0.066,0.015 -0.111,0.057 -0.045,0.039 -0.045,0.126001 0,0.105 0.012,0.213001 0.015,0.108001 0.015,0.222002 0,0.237002 -0.021,0.474004 -0.018,0.234002 -0.018,0.474004 0,0.111001 0.012,0.222002 0.012,0.108001 0.012,0.222002 0,0.147001 -0.024,0.291002 -0.021,0.144001 -0.021,0.291002 0,0.06 0,0.129001 0,0.069 0.012,0.132001 0.012,0.063 0.045,0.114001 0.033,0.051 0.099,0.075 0.093,0.033 0.183,0.066 0.093,0.03 0.195,0.03 0.06,0 0.117,-0.027 0.057,-0.03 0.11701,-0.048 0.039,-0.012 0.087,-0.021 0.051,-0.012 0.099,-0.024 0.048,-0.015 0.09,-0.036 0.045,-0.024 0.075,-0.057 0.045,-0.051 0.087,-0.09 0.042,-0.039 0.117,-0.054 0.036,-0.006 0.045,-0.024 0.012,-0.021 0.015,-0.045 0.006,-0.027 0.015,-0.054 0.009,-0.03 0.039,-0.051 0.048,-0.036 0.072,-0.084 0.027,-0.048 0.039,-0.102001 0.012,-0.054 0.018,-0.108001 0.009,-0.057 0.024,-0.111001 0.033,-0.120001 0.075,-0.243002 0.045,-0.123001 0.045,-0.249002 0,-0.033 -0.015,-0.057 -0.015,-0.027 -0.015,-0.06 0,-0.018 0.006,-0.021 0.009,-0.006 0.018,-0.012 0.009,-0.009 0.015,-0.024 0.009,-0.015 0.009,-0.057 z"
           id="path307" /><path
           d="m 114.59235,75.875747 q 0,0.087 -0.03,0.180001 -0.027,0.09 -0.081,0.168002 -0.054,0.075 -0.132,0.126001 -0.075,0.048 -0.168,0.048 -0.063,0 -0.156,-0.018 -0.093,-0.021 -0.18001,-0.057 -0.084,-0.039 -0.147,-0.099 -0.06,-0.06 -0.06,-0.141001 0,-0.072 0.015,-0.147002 0.018,-0.078 0.021,-0.156001 0.03,-0.015 0.06,-0.054 0.03,-0.039 0.057,-0.078 0.03,-0.042 0.057,-0.075 0.03,-0.033 0.06,-0.036 l -0.015,0.006 q 0.042,-0.018 0.087,-0.03 0.048,-0.012 0.096,-0.012 0.063,0 0.15,0.033 0.09,0.03 0.171,0.081 0.081,0.051 0.138,0.120001 0.057,0.069 0.057,0.141001 z m 1.45201,3.65103 q 0,0.051 -0.021,0.096 -0.018,0.045 -0.054,0.078 -0.033,0.036 -0.078,0.057 -0.045,0.021 -0.099,0.021 -0.021,0 -0.027,-0.006 -0.006,-0.006 -0.021,-0.021 -0.042,-0.045 -0.102,-0.054 -0.06,-0.006 -0.126,-0.015 -0.063,-0.006 -0.123,-0.033 -0.057,-0.024 -0.093,-0.102001 -0.024,-0.051 -0.051,-0.066 -0.027,-0.015 -0.084,-0.015 -0.13201,0 -0.25201,0.042 -0.12,0.042 -0.237,0.096 -0.117,0.051 -0.24,0.093 -0.12,0.042 -0.249,0.042 -0.072,0 -0.144,-0.015 -0.069,-0.012 -0.135,-0.042 -0.015,0.015 -0.036,0.021 -0.018,0.006 -0.042,0.006 -0.021,0 -0.042,-0.003 -0.018,-0.003 -0.033,-0.003 -0.003,0 -0.033,0.009 -0.03,0.012 -0.036,0.015 l 0.018,0.03 q -0.018,0.027 -0.081,0.051 -0.063,0.027 -0.138,0.045 -0.072,0.018 -0.141,0.03 -0.069,0.012 -0.105,0.012 -0.096,0 -0.159,-0.033 -0.06,-0.03 -0.12,-0.108 -0.021,-0.03 -0.054,-0.06 -0.03,-0.03 -0.06,-0.06 -0.027,-0.033 -0.048,-0.069 -0.018,-0.036 -0.018,-0.075 0,-0.045 0.048,-0.075 0.048,-0.03 0.114,-0.048 0.066,-0.021 0.132,-0.027 0.066,-0.009 0.102,-0.009 0.072,0 0.144,0.021 0.072,0.018 0.144,0.018 0.066,0 0.126,-0.018 0.06,-0.018 0.126,-0.018 0.057,0 0.111,0.009 0.057,0.006 0.11401,0.006 0.072,0 0.138,-0.024 0.069,-0.027 0.129,-0.069 0.024,-0.147001 0.033,-0.294002 0.012,-0.147001 0.012,-0.297002 0,-0.147002 -0.024,-0.294003 -0.024,-0.147001 -0.024,-0.291002 0,-0.012 0.006,-0.012 0.006,-0.003 0.012,-0.003 0.009,-0.003 0.015,-0.006 0.006,-0.006 0.006,-0.024 0,-0.063 -0.018,-0.123001 -0.018,-0.06 -0.018,-0.123001 0,-0.078 0.021,-0.153001 0.021,-0.075 0.021,-0.153001 0,-0.054 -0.024,-0.108001 -0.024,-0.054 -0.063,-0.096 -0.039,-0.042 -0.09,-0.066 -0.051,-0.027 -0.108,-0.027 -0.063,0 -0.12601,0.015 -0.06,0.015 -0.126,0.036 -0.066,0.018 -0.135,0.033 -0.066,0.015 -0.141,0.015 -0.087,0 -0.171,-0.012 -0.084,-0.012 -0.171,-0.027 -0.042,-0.006 -0.096,-0.012 -0.051,-0.006 -0.099,-0.021 -0.048,-0.015 -0.081,-0.045 -0.033,-0.03 -0.033,-0.087 0,-0.105001 0.036,-0.159002 0.039,-0.057 0.093,-0.084 0.057,-0.027 0.126,-0.033 0.069,-0.006 0.132,-0.012 0.114,-0.009 0.225,-0.015 0.114,-0.009 0.228,-0.009 0.141,0 0.27601,0.018 0.138,0.015 0.279,0.015 0.099,0 0.189,0.03 0.09,0.03 0.156,0.093 0.069,0.06 0.108,0.153002 0.039,0.093 0.039,0.216001 0,0.081 -0.036,0.159002 -0.033,0.075 -0.087,0.135001 0.021,0.039 0.042,0.054 0.021,0.012 0.039,0.024 0.018,0.009 0.03,0.027 0.012,0.015 0.012,0.06 0,0.024 0.006,0.057 0.009,0.03 0.042,0.033 0,0.162001 -0.003,0.321003 -0.003,0.156001 -0.003,0.315002 0,0.135001 0,0.270002 0.003,0.135001 0.024,0.270003 0.012,0.084 0.048,0.129001 0.036,0.045 0.129,0.045 0.135,0 0.26701,-0.027 0.132,-0.03 0.267,-0.03 0.078,0 0.147,0.039 0.072,0.039 0.135,0.084 0.066,0.045 0.126,0.084 0.06,0.039 0.114,0.039 0.024,0 0.039,0.018 0.015,0.015 0.021,0.039 0.009,0.021 0.009,0.045 0.003,0.024 0.003,0.042 z"
           id="path309" /><path
           d="m 121.1534,79.484776 q 0,0.105001 -0.072,0.165002 -0.069,0.063 -0.168,0.093 -0.099,0.033 -0.207,0.042 -0.105,0.009 -0.18,0.009 -0.099,0 -0.165,-0.018 -0.063,-0.018 -0.111,-0.039 -0.048,-0.018 -0.084,-0.036 -0.036,-0.018 -0.075,-0.018 -0.051,0 -0.102,0.018 -0.048,0.018 -0.099,0.018 -0.036,0 -0.06,-0.012 -0.021,-0.012 -0.036,-0.03 -0.015,-0.015 -0.03,-0.027 -0.012,-0.012 -0.03,-0.012 -0.021,0 -0.033,0.015 -0.012,0.018 -0.027,0.039 -0.015,0.021 -0.045,0.036 -0.027,0.018 -0.081,0.018 -0.063,0 -0.123,-0.015 -0.06,-0.012 -0.123,-0.012 -0.063,0 -0.126,0.021 -0.06,0.024 -0.114,0.024 -0.024,0 -0.036,-0.018 -0.012,-0.015 -0.027,-0.015 -0.051,0 -0.108,0.024 -0.054,0.024 -0.111,0.024 -0.03,0 -0.06,-0.009 -0.027,-0.006 -0.057,-0.006 -0.051,0 -0.102,0.024 -0.051,0.024 -0.126,0.024 -0.027,0 -0.12,-0.009 -0.09,-0.006 -0.186,-0.021 -0.096,-0.015 -0.174,-0.039 -0.075,-0.021 -0.075,-0.048 0,-0.078 0.027,-0.156001 0.03,-0.078 0.03,-0.150001 v -0.006 q -0.039,0 -0.045,-0.042 0.006,-0.012 0.018,-0.018 0.015,-0.009 0.03,-0.012 0.015,-0.006 0.027,-0.015 0.012,-0.009 0.012,-0.027 v -0.012 q 0.12,0.012 0.234,0.015 0.117,0.003 0.243,0.003 0.117,0 0.25801,-0.006 0.144,-0.009 0.264,-0.045 0.123,-0.036 0.204,-0.108001 0.084,-0.075 0.084,-0.207001 v -0.021 -0.048 q -0.015,-0.330003 -0.033,-0.648005 -0.015,-0.321003 -0.015,-0.651006 0,-0.087 -0.015,-0.168001 -0.012,-0.084 -0.012,-0.168001 0,-0.105001 0.036,-0.210002 0.039,-0.105001 0.12,-0.177001 -0.003,-0.018 -0.015,-0.024 -0.012,-0.009 -0.03,-0.012 -0.018,-0.003 -0.036,-0.006 -0.015,-0.003 -0.027,-0.009 -0.018,-0.009 -0.024,-0.042 -0.006,-0.033 -0.012,-0.072 -0.003,-0.039 -0.009,-0.075 -0.003,-0.039 -0.018,-0.06 0.009,-0.087 0.03,-0.171001 0.021,-0.084 0.021,-0.171002 0,-0.063 -0.018,-0.099 -0.015,-0.036 -0.036,-0.06 -0.021,-0.024 -0.039,-0.042 -0.015,-0.021 -0.015,-0.051 0,-0.024 0.015,-0.045 l -0.024,-0.003 q -0.03,0 -0.045,0.015 -0.015,0.015 -0.03,0.033 -0.012,0.018 -0.027,0.033 -0.015,0.015 -0.042,0.015 -0.021,0 -0.048,-0.009 -0.051,0.015 -0.096,0.015 -0.105,0 -0.21001,-0.027 -0.102,-0.03 -0.207,-0.03 -0.057,0 -0.111,0.006 -0.054,0.003 -0.108,0.003 -0.078,0 -0.156,-0.018 -0.078,-0.018 -0.138,-0.078 v -0.036 q 0,-0.159001 0.105,-0.240002 0.108,-0.081 0.261,-0.081 0.105,0 0.207,0.027 0.102,0.027 0.207,0.027 0.057,0 0.12001,-0.012 0.063,-0.012 0.129,-0.027 0.066,-0.015 0.132,-0.027 0.069,-0.012 0.135,-0.012 0.102,0 0.192,0.045 0.09,0.042 0.18,0.081 l -0.003,0.024 q 0,0.027 0.012,0.051 0.015,0.021 0.033,0.045 0.018,0.021 0.03,0.045 0.015,0.021 0.015,0.048 0,0.027 -0.009,0.054 -0.006,0.024 -0.006,0.051 0,0.066 0.024,0.126001 0.027,0.06 0.027,0.129001 0,0.072 -0.018,0.141001 -0.015,0.069 -0.015,0.141001 0,0.087 0.021,0.174002 0.021,0.087 0.021,0.174001 0,0.072 -0.024,0.141001 -0.021,0.069 -0.021,0.138002 0,0.051 0.012,0.102 0.015,0.048 0.033,0.096 0.018,0.048 0.03,0.099 0.015,0.048 0.015,0.102001 v 0.06 q 0,0.048 -0.009,0.093 -0.006,0.042 -0.039,0.081 0.015,0.057 0.03,0.123001 0.018,0.066 0.018,0.126001 0,0.03 -0.006,0.066 -0.003,0.033 -0.015,0.069 -0.009,0.033 -0.027,0.063 -0.018,0.027 -0.042,0.045 0.039,0.114001 0.051,0.231002 0.012,0.117001 0.018,0.234002 0.003,0.036 0.012,0.093 0.009,0.057 0.018,0.114001 0.009,0.054 0.015,0.102001 0.009,0.045 0.009,0.063 0,0.051 -0.018,0.099 -0.018,0.048 -0.018,0.099 0,0.039 0.018,0.084 0.018,0.042 0.066,0.042 0.036,0 0.06,-0.015 0.027,-0.018 0.057,-0.036 0.03,-0.021 0.069,-0.036 0.042,-0.018 0.111,-0.018 0.078,0 0.147,0.021 0.069,0.021 0.147,0.021 0.057,0 0.114,-0.009 0.06,-0.012 0.114,-0.024 0.057,-0.015 0.114,-0.027 0.057,-0.012 0.117,-0.012 0.12,0 0.201,0.069 0.084,0.069 0.084,0.204001 z m -1.72201,-3.73503 q -0.012,-0.012 -0.03,-0.024 -0.015,-0.012 -0.036,-0.012 -0.015,0 -0.027,0.015 -0.009,0.012 -0.009,0.027 l 0.015,0.036 q 0.012,0.006 0.018,0.006 0.024,0 0.039,-0.015 0.018,-0.018 0.03,-0.033 z m 0.18,0.834007 q 0,-0.024 -0.015,-0.048 -0.012,-0.027 -0.042,-0.027 -0.009,0 -0.021,0.003 -0.009,0.003 -0.015,0.006 v 0.129001 q 0.024,0.012 0.036,0.012 0.03,0 0.042,-0.024 0.015,-0.027 0.015,-0.051 z"
           id="path311" /><path
           d="m 126.80245,79.451776 q 0,0.054 -0.036,0.114001 -0.033,0.06 -0.087,0.108001 -0.051,0.051 -0.111,0.084 -0.06,0.033 -0.114,0.033 -0.093,0 -0.183,-0.015 -0.09,-0.015 -0.186,-0.015 -0.045,0 -0.10501,-0.006 -0.057,-0.006 -0.081,-0.03 -0.069,-0.012 -0.102,-0.054 -0.033,-0.039 -0.06,-0.087 -0.024,-0.048 -0.054,-0.093 -0.027,-0.045 -0.084,-0.063 -0.171,0.075 -0.303,0.144001 -0.129,0.069 -0.258,0.120001 -0.126,0.054 -0.27301,0.084 -0.144,0.033 -0.345,0.033 -0.087,0 -0.126,-0.009 -0.036,-0.009 -0.057,-0.03 -0.018,-0.018 -0.036,-0.051 -0.015,-0.033 -0.06,-0.081 -0.024,-0.024 -0.048,-0.027 -0.021,-0.006 -0.042,-0.006 h -0.015 q -0.027,0 -0.051,-0.009 -0.021,-0.012 -0.033,-0.06 -0.009,-0.036 -0.036,-0.081 -0.027,-0.048 -0.063,-0.096 -0.033,-0.048 -0.069,-0.087 -0.036,-0.039 -0.066,-0.06 l -0.003,-0.297002 q -0.003,-0.300003 0.018,-0.594005 0.021,-0.294003 0.021,-0.594005 0,-0.045 -0.003,-0.123001 -0.003,-0.081 -0.015,-0.162001 -0.009,-0.081 -0.036,-0.144002 -0.024,-0.066 -0.069,-0.078 -0.069,-0.015 -0.14101,-0.012 -0.069,0 -0.138,-0.003 -0.069,-0.003 -0.135,-0.021 -0.063,-0.018 -0.12,-0.078 -0.033,-0.033 -0.063,-0.081 -0.027,-0.048 -0.027,-0.099 0,-0.075 0.063,-0.126001 0.066,-0.054 0.156,-0.087 0.09,-0.033 0.183,-0.048 0.093,-0.015 0.15001,-0.015 0.165,0 0.312,0.051 0.15,0.048 0.273,0.159001 0.006,0.006 0.006,0.012 0,0.003 -0.003,0.006 0.006,0.087 0.024,0.174001 0.018,0.084 0.018,0.171002 0,0.048 -0.015,0.09 -0.012,0.042 -0.012,0.093 0,0.051 0.012,0.102001 0.012,0.051 0.012,0.102001 0,0.033 -0.006,0.066 -0.006,0.033 -0.006,0.066 0,0.093 0.021,0.183002 0.021,0.087 0.021,0.180001 0,0.081 -0.018,0.159001 -0.018,0.075 -0.042,0.153002 -0.021,0.078 -0.039,0.156001 -0.018,0.075 -0.018,0.156001 0,0.111001 0.045,0.207002 0.045,0.096 0.12,0.168001 0.075,0.069 0.171,0.111001 0.099,0.039 0.207,0.039 0.093,0 0.15001,-0.018 0.06,-0.021 0.096,-0.045 0.036,-0.024 0.057,-0.042 0.024,-0.021 0.048,-0.021 0.024,0 0.042,0.006 0.021,0.003 0.042,0.003 0.042,0 0.069,-0.018 0.027,-0.018 0.048,-0.042 0.024,-0.024 0.045,-0.045 0.024,-0.024 0.06,-0.033 0.069,-0.015 0.12,-0.039 0.051,-0.027 0.051,-0.108001 0,-0.015 0.003,-0.027 0.006,-0.012 0.03,-0.012 0.015,0 0.021,0.009 0.009,0.006 0.024,0.012 0.015,-0.012 0.021,-0.033 0.006,-0.021 0.012,-0.036 0.015,-0.054 0.054,-0.096 0.042,-0.042 0.048,-0.096 0.006,-0.06 0.03,-0.111001 0.024,-0.051 0.024,-0.108001 0,-0.051 -0.027,-0.09 -0.027,-0.039 -0.027,-0.093 0,-0.06 0.021,-0.120001 0.024,-0.06 0.024,-0.120001 -0.018,-0.024 -0.036,-0.054 -0.015,-0.03 -0.015,-0.06 0,-0.051 0.018,-0.066 0.018,-0.018 0.018,-0.036 0,-0.027 -0.015,-0.054 -0.012,-0.03 -0.03,-0.057 -0.018,-0.027 -0.033,-0.054 -0.012,-0.027 -0.012,-0.057 0,-0.03 0.009,-0.057 0.012,-0.03 0.012,-0.063 0,-0.048 -0.024,-0.084 -0.021,-0.039 -0.057,-0.063 -0.033,-0.027 -0.078,-0.039 -0.042,-0.015 -0.084,-0.021 -0.075,-0.009 -0.129,-0.009 -0.054,0 -0.096,-0.012 -0.039,-0.015 -0.075,-0.051 -0.033,-0.036 -0.069,-0.117001 -0.021,-0.048 -0.021,-0.081 0,-0.072 0.063,-0.114001 0.066,-0.045 0.153,-0.066 0.087,-0.024 0.174,-0.03 0.09,-0.009 0.141,-0.009 0.048,0 0.093,0.009 0.048,0.006 0.096,0.006 0.051,0 0.099,-0.018 0.051,-0.021 0.102,-0.021 0.072,0 0.11701,0.042 0.045,0.039 0.069,0.105 0.027,0.063 0.036,0.147002 0.009,0.081 0.009,0.165001 0,0.111001 -0.009,0.210002 -0.006,0.099 -0.006,0.159001 0,0.129001 0.024,0.243002 0.027,0.111001 0.027,0.207002 0,0.03 -0.015,0.06 -0.012,0.03 -0.027,0.06 -0.015,0.03 -0.03,0.06 -0.012,0.03 -0.012,0.06 0,0.024 0.009,0.042 l 0.021,0.174001 q -0.015,0.012 -0.018,0.03 -0.003,0.018 -0.003,0.033 0,0.048 0.009,0.096 0.012,0.045 0.012,0.096 0,0.057 -0.012,0.114001 -0.012,0.054 -0.012,0.111001 0,0.138001 0.093,0.213002 0.096,0.072 0.225,0.072 0.072,0 0.144,-0.024 0.021,0.045 0.057,0.081 0.039,0.033 0.075,0.066 0.036,0.033 0.06,0.075 0.027,0.042 0.027,0.102001 z"
           id="path313" /><path
           d="m 131.69249,78.575769 q 0,0.096 -0.021,0.183001 -0.021,0.084 -0.048,0.168002 -0.027,0.081 -0.057,0.168001 -0.027,0.084 -0.042,0.174002 -0.027,0.150001 -0.108,0.249002 -0.081,0.099 -0.195,0.156001 -0.114,0.06 -0.255,0.087 -0.13801,0.03 -0.28501,0.045 -0.147,0.015 -0.291,0.021 -0.141,0.006 -0.261,0.021 -0.045,-0.033 -0.075,-0.072 -0.03,-0.039 -0.057,-0.075 -0.027,-0.033 -0.06,-0.057 -0.033,-0.021 -0.087,-0.021 -0.018,0 -0.03,-0.048 -0.009,-0.051 -0.018,-0.111001 -0.009,-0.063 -0.021,-0.111001 -0.009,-0.051 -0.027,-0.051 -0.069,0 -0.11101,-0.03 -0.039,-0.03 -0.063,-0.075 -0.021,-0.048 -0.03,-0.105001 -0.006,-0.057 -0.006,-0.111001 0,-0.042 -0.018,-0.078 -0.018,-0.036 -0.039,-0.069 -0.021,-0.036 -0.039,-0.072 -0.018,-0.036 -0.018,-0.075 0,-0.045 0.003,-0.111001 0.006,-0.069 0.009,-0.141001 0.006,-0.072 0.009,-0.141001 0.006,-0.069 0.006,-0.114001 0,-0.054 0.012,-0.09 0.015,-0.036 0.033,-0.063 0.018,-0.027 0.03,-0.048 0.015,-0.021 0.015,-0.048 0,-0.036 -0.018,-0.06 -0.015,-0.024 -0.015,-0.048 0,-0.033 0.021,-0.063 0.021,-0.033 0.03,-0.066 0.033,-0.132001 0.033,-0.261002 0,-0.027 -0.003,-0.051 0,-0.027 -0.003,-0.051 -0.069,-0.057 -0.153,-0.072 -0.084,-0.018 -0.168,-0.024 -0.084,-0.009 -0.162,-0.021 -0.078,-0.012 -0.132,-0.063 -0.045,-0.042 -0.081,-0.093 -0.036,-0.054 -0.096,-0.072 -0.042,-0.015 -0.072,-0.039 -0.027,-0.027 -0.027,-0.075 0,-0.072 0.042,-0.108001 0.045,-0.039 0.105,-0.06 0.06,-0.024 0.123,-0.039 0.066,-0.018 0.111,-0.051 0.045,-0.033 0.108,-0.033 0.027,0 0.051,0.003 0.027,0 0.054,0 0.075,0 0.123,-0.024 0.051,-0.027 0.078,-0.069 0.03,-0.045 0.039,-0.102001 0.012,-0.057 0.012,-0.123001 0,-0.096 -0.012,-0.186001 -0.012,-0.09 -0.012,-0.186002 0,-0.111001 0.03,-0.204002 0.03,-0.093 0.114,-0.171001 0.018,-0.015 0.039,-0.039 0.021,-0.024 0.045,-0.045 0.024,-0.024 0.048,-0.039 0.027,-0.015 0.054,-0.015 0.018,0 0.03,0.009 0.015,0.006 0.03,0.018 0.066,0.066 0.084,0.099 0.021,0.03 0.021,0.072 0,0.024 -0.003,0.054 0,0.027 0,0.072 0,0.096 0.024,0.189002 0.024,0.093 0.024,0.159001 0,0.057 -0.024,0.111001 -0.021,0.051 -0.021,0.108001 0,0.042 0.018,0.078 0.021,0.033 0.045,0.066 0.027,0.033 0.048,0.069 0.021,0.033 0.021,0.078 0.03,0.021 0.135,0.039 0.105,0.015 0.234,0.027 0.129,0.009 0.261,0.015 0.13201,0.006 0.21901,0.006 0.078,0 0.12,0.012 0.042,0.012 0.069,0.027 0.03,0.012 0.054,0.027 0.024,0.015 0.063,0.018 0.048,0.006 0.081,0.027 0.036,0.018 0.036,0.075 0,0.072 -0.039,0.114001 -0.036,0.042 -0.093,0.063 -0.054,0.021 -0.117,0.027 -0.063,0.003 -0.117,0.003 -0.087,0 -0.17401,-0.006 -0.087,-0.006 -0.174,-0.006 -0.144,0 -0.261,0.027 -0.117,0.027 -0.204,0.09 -0.084,0.063 -0.132,0.168002 -0.045,0.102 -0.045,0.258002 0,0.153001 0.018,0.300002 0.021,0.147001 0.021,0.300003 0,0.144001 0.003,0.231002 0.006,0.087 0.036,0.147001 0.039,0.087 0.063,0.198001 0.024,0.111001 0.06,0.210002 0.039,0.099 0.105,0.168001 0.069,0.066 0.201,0.066 0.045,0 0.12,-0.012 0.075,-0.012 0.15,-0.036 0.075,-0.027 0.12901,-0.066 0.054,-0.042 0.054,-0.102001 0,-0.051 -0.03,-0.102001 -0.03,-0.054 -0.03,-0.114001 0,-0.042 0.018,-0.072 0.021,-0.033 0.051,-0.057 0.033,-0.027 0.066,-0.045 0.036,-0.021 0.069,-0.036 0.054,-0.069 0.129,-0.114001 0.078,-0.048 0.165,-0.048 0.06,0 0.114,0.021 0.057,0.021 0.105,0.054 0.009,0.054 0.009,0.111001 z"
           id="path315" /><path
           d="m 136.70853,79.013772 q 0,0.081 -0.027,0.138002 -0.024,0.057 -0.066,0.102 -0.039,0.045 -0.093,0.084 -0.051,0.039 -0.105,0.084 -0.042,0.036 -0.075,0.054 -0.033,0.018 -0.066,0.03 -0.03,0.012 -0.066,0.024 -0.033,0.012 -0.078,0.033 -0.06,0.03 -0.102,0.057 -0.039,0.024 -0.081,0.045 -0.039,0.021 -0.087,0.033 -0.048,0.015 -0.12,0.024 -0.12,0.015 -0.243,0.036 -0.12,0.021 -0.24,0.021 -0.024,0 -0.051,-0.012 -0.024,-0.009 -0.057,-0.021 -0.033,-0.009 -0.075,-0.021 -0.039,-0.009 -0.096,-0.009 -0.06,0 -0.096,-0.018 -0.036,-0.018 -0.066,-0.042 -0.027,-0.024 -0.057,-0.051 -0.03,-0.03 -0.078,-0.051 -0.18001,-0.081 -0.30601,-0.195002 -0.126,-0.114001 -0.216,-0.255002 -0.09,-0.141001 -0.15,-0.306002 -0.06,-0.165002 -0.102,-0.345003 -0.033,-0.126001 -0.033,-0.252002 0,-0.165002 0.078,-0.306003 -0.03,-0.084 -0.03,-0.162001 0,-0.057 0.033,-0.168001 0.033,-0.114001 0.084,-0.228002 0.054,-0.114001 0.114,-0.204002 0.063,-0.093 0.117,-0.114001 0.042,-0.015 0.057,-0.024 0.018,-0.012 0.018,-0.06 0,-0.036 0.027,-0.06 0.03,-0.024 0.069,-0.039 0.042,-0.015 0.081,-0.027 0.042,-0.012 0.069,-0.024 0.11101,-0.054 0.21001,-0.09 0.102,-0.039 0.201,-0.063 0.102,-0.027 0.21,-0.039 0.108,-0.012 0.231,-0.012 0.066,0 0.129,0.018 0.063,0.018 0.12,0.048 0.06,0.027 0.117,0.063 0.057,0.033 0.11101,0.066 h -0.003 q 0.045,0.006 0.084,0.027 0.042,0.018 0.087,0.024 0.042,0.051 0.108,0.099 0.069,0.045 0.132,0.096 0.066,0.051 0.111,0.111001 0.048,0.057 0.048,0.132001 0,0.012 -0.003,0.024 0,0.012 -0.003,0.027 l 0.012,-0.015 q 0.012,0.009 0.021,0.03 0.012,0.021 0.021,0.048 0.009,0.024 0.015,0.051 0.006,0.024 0.009,0.039 0.024,0.039 0.063,0.063 0.042,0.024 0.066,0.066 -0.03,0.03 -0.03,0.078 0,0.051 0.021,0.102 0.021,0.048 0.021,0.099 0,0.06 -0.006,0.117001 -0.006,0.054 -0.006,0.114001 0,0.045 -0.036,0.069 -0.033,0.024 -0.075,0.042 -0.039,0.018 -0.072,0.036 -0.033,0.018 -0.033,0.051 0,0.024 -0.03,0.024 -0.027,-0.003 -0.045,-0.003 -0.132,0 -0.264,-0.033 -0.129,-0.033 -0.25801,-0.033 -0.141,0 -0.279,0.021 -0.138,0.018 -0.279,0.018 -0.105,0 -0.21,-0.006 -0.102,-0.006 -0.207,-0.006 -0.027,0 -0.102,0.012 -0.075,0.009 -0.15901,0.027 -0.081,0.015 -0.156,0.039 -0.075,0.021 -0.105,0.042 -0.003,0.015 -0.003,0.042 0,0.141001 0.081,0.291002 0.084,0.150001 0.21901,0.273002 0.135,0.123001 0.303,0.204002 0.168,0.081 0.339,0.081 0.099,0 0.195,0.009 0.099,0.006 0.192,0.042 0.081,-0.039 0.147,-0.09 0.069,-0.051 0.13201,-0.108 0.063,-0.057 0.123,-0.117001 0.06,-0.06 0.123,-0.120001 0.012,-0.012 0.057,-0.021 0.048,-0.012 0.102,-0.018 0.054,-0.009 0.102,-0.012 0.051,-0.006 0.069,-0.006 0.069,0 0.129,0.021 0.018,0.069 0.018,0.135001 z m -0.45,-1.218009 q 0,-0.045 -0.015,-0.087 -0.015,-0.042 -0.024,-0.087 -0.015,-0.084 -0.015,-0.162001 0,-0.081 -0.024,-0.162002 h -0.003 q 0,0.018 -0.012,0.036 -0.012,0.015 -0.033,0.015 -0.036,0 -0.069,-0.018 -0.033,-0.018 -0.057,-0.045 -0.11401,-0.051 -0.20701,-0.096 -0.09,-0.045 -0.183,-0.078 -0.09,-0.036 -0.195,-0.054 -0.102,-0.021 -0.237,-0.021 -0.012,0 -0.024,0.003 -0.009,0 -0.018,0.009 l 0.015,0.033 -0.024,0.006 q -0.081,0.015 -0.135,0.03 -0.051,0.012 -0.093,0.036 -0.042,0.024 -0.084,0.06 -0.039,0.033 -0.102,0.087 -0.03,0.027 -0.066,0.042 -0.033,0.012 -0.069,0.024 -0.033,0.009 -0.066,0.021 -0.03,0.012 -0.051,0.039 -0.021,0.075 -0.063,0.147001 -0.039,0.069 -0.039,0.147001 0,0.045 0.036,0.081 0.039,0.033 0.096,0.057 0.06,0.024 0.129,0.042 0.072,0.018 0.14101,0.027 0.069,0.009 0.126,0.015 0.06,0.003 0.093,0.003 0.114,0 0.225,-0.021 0.111,-0.024 0.225,-0.024 0.117,0 0.234,0.012 0.117,0.009 0.23401,0.009 0.03,0 0.09,-0.003 0.06,-0.003 0.117,-0.015 0.06,-0.015 0.102,-0.039 0.045,-0.027 0.045,-0.069 z"
           id="path317" /></g><path
         style="fill:#000000;stroke-width:0.0584587"
         d="m 132.95731,73.784894 c -0.13041,-0.06428 -0.19,-0.134957 -0.19,-0.225347 0,-0.07242 -0.0394,-0.164437 -0.0877,-0.204463 -0.0482,-0.04004 -0.0877,-0.135318 -0.0877,-0.211759 0,-0.14482 -0.13563,-0.19215 -0.20925,-0.07303 -0.0288,0.0465 -0.0543,0.04181 -0.0866,-0.01595 -0.0707,-0.126303 0.11076,-1.002098 0.22581,-1.08995 0.0771,-0.05891 0.0823,-0.08555 0.0235,-0.121891 -0.0574,-0.0355 -0.0617,-0.106776 -0.0181,-0.301172 0.0315,-0.140069 0.0431,-0.325343 0.0258,-0.411715 -0.0173,-0.08637 -4.5e-4,-0.215125 0.0376,-0.28611 0.0619,-0.115708 0.14216,-0.901716 0.12254,-1.20054 -0.004,-0.06428 -0.0225,-0.69517 -0.0405,-1.401928 -0.0243,-0.949453 -0.0135,-1.346357 0.0408,-1.519929 0.0405,-0.129202 0.0848,-0.445367 0.0983,-0.702582 0.0316,-0.598767 0.0417,-2.490303 0.0164,-3.098314 -0.0106,-0.257216 -0.003,-0.62551 0.016,-0.81842 0.0195,-0.192917 0.0485,-0.719042 0.0645,-1.169174 0.016,-0.450133 0.0474,-1.180544 0.0697,-1.623143 0.0302,-0.600612 0.0211,-0.863794 -0.0363,-1.037644 -0.0422,-0.128109 -0.0988,-0.232923 -0.12568,-0.232923 -0.0269,0 -0.21204,0.13153 -0.41155,0.292293 -0.1995,0.160764 -0.39693,0.292295 -0.43873,0.292295 -0.0418,0 -0.076,0.04677 -0.076,0.103924 0,0.05715 -0.0526,0.148974 -0.11692,0.204034 -0.0643,0.05505 -0.11691,0.139825 -0.11691,0.18837 0,0.04854 -0.0401,0.08826 -0.0891,0.08826 -0.049,0 -0.11352,0.06414 -0.14335,0.142593 -0.0662,0.174312 -0.27269,0.297052 -0.37045,0.220277 -0.0381,-0.02994 -0.1351,-0.07048 -0.21549,-0.09008 -0.16961,-0.04134 -0.29229,-0.271151 -0.29229,-0.547507 0,-0.229597 -0.0969,-0.253326 -0.17672,-0.04331 -0.0579,0.152435 -0.17404,0.146951 -0.17404,-0.0082 0,-0.153915 0.29321,-0.532731 0.49747,-0.642737 0.20044,-0.107943 0.35501,-0.361677 0.30713,-0.504148 -0.0142,-0.04242 0.0477,-0.107095 0.14028,-0.1463 0.1813,-0.07679 0.22911,-0.289123 0.0782,-0.347048 -0.14617,-0.05606 -0.0983,-0.13806 0.0806,-0.13806 0.19603,0 0.35159,-0.146612 0.25649,-0.241726 -0.0774,-0.07738 0.0207,-0.278223 0.2456,-0.502729 0.13147,-0.131272 0.14399,-0.16523 0.0666,-0.180692 -0.12258,-0.0245 -0.0613,-0.127105 0.0759,-0.127105 0.11585,0 0.29791,-0.17423 0.29791,-0.285092 0,-0.03924 0.0921,-0.215213 0.20461,-0.391127 0.11253,-0.175921 0.2046,-0.346472 0.2046,-0.379012 0,-0.03251 0.0394,-0.0743 0.0877,-0.09281 0.0482,-0.01853 0.0877,-0.06706 0.0877,-0.107923 0,-0.04086 0.0363,-0.104393 0.0806,-0.141203 0.0443,-0.03679 0.0951,-0.139043 0.11269,-0.22718 0.0177,-0.08814 0.0866,-0.223101 0.15319,-0.299929 0.0667,-0.07682 0.12114,-0.184616 0.12114,-0.239541 0,-0.075 0.0364,-0.09291 0.14616,-0.07193 0.10713,0.0205 0.14614,0.0027 0.14614,-0.06659 0,-0.05552 -0.0482,-0.0945 -0.11692,-0.0945 -0.11928,0 -0.15831,-0.08444 -0.0655,-0.141786 0.0283,-0.01744 0.0639,-0.0798 0.0793,-0.138507 0.0243,-0.09255 -0.0152,-0.08437 -0.29644,0.06156 -0.17841,0.09256 -0.39573,0.219097 -0.48294,0.281203 -0.0872,0.0621 -0.21452,0.112912 -0.28291,0.112912 -0.0684,0 -0.13953,0.03957 -0.1581,0.08796 -0.0185,0.0484 -0.1164,0.128074 -0.21739,0.177095 -0.10099,0.04901 -0.30105,0.193582 -0.44457,0.321249 -0.14352,0.12766 -0.27894,0.232115 -0.30093,0.232115 -0.022,0 -0.1348,0.197118 -0.25071,0.438036 -0.1159,0.240919 -0.26065,0.469212 -0.32168,0.507318 -0.061,0.03808 -0.0986,0.101393 -0.0836,0.140639 0.0151,0.03924 -6.7e-4,0.08872 -0.035,0.109951 -0.0344,0.02125 -0.0625,0.08557 -0.0625,0.142995 0,0.05742 -0.0536,0.15289 -0.11904,0.212139 -0.0655,0.05926 -0.17109,0.214589 -0.2347,0.345196 -0.0636,0.130606 -0.2065,0.382154 -0.31754,0.558991 -0.11103,0.176843 -0.22068,0.360984 -0.24365,0.409216 -0.0517,0.108405 -0.34797,0.500463 -0.54125,0.716118 -0.1251,0.139573 -0.18782,0.160764 -0.47592,0.160764 -0.2837,0 -0.35541,-0.02335 -0.49416,-0.160764 -0.14908,-0.147677 -0.31982,-0.464766 -0.34655,-0.643639 -0.006,-0.04052 -0.0423,-0.104964 -0.0806,-0.143225 -0.10038,-0.100382 -0.0876,-0.33847 0.0182,-0.33847 0.0482,0 0.0877,-0.02627 0.0877,-0.05844 0,-0.03217 -0.0263,-0.05844 -0.0585,-0.05844 -0.15353,0 0.0348,-0.689218 0.2224,-0.813689 0.0282,-0.01867 0.12894,-0.142315 0.224,-0.274754 0.17693,-0.246471 1.01699,-1.015851 1.10974,-1.016339 0.0283,-1.77e-4 0.1335,-0.07715 0.23374,-0.171129 0.10026,-0.09397 0.27204,-0.21896 0.38173,-0.277754 0.34679,-0.185871 0.51581,-0.400134 0.69477,-0.880784 0.0389,-0.104495 0.0886,-0.189991 0.11036,-0.189991 0.0218,0 0.0747,-0.09865 0.11747,-0.219219 0.0428,-0.120574 0.15332,-0.323054 0.24558,-0.449955 0.0923,-0.126907 0.16773,-0.260942 0.16773,-0.297853 0,-0.03692 0.0463,-0.109015 0.10291,-0.160235 0.0567,-0.05124 0.23417,-0.370703 0.39459,-0.70996 0.16044,-0.339257 0.3274,-0.617106 0.37103,-0.617439 0.0473,-3.53e-4 0.0654,-0.03692 0.0448,-0.09057 -0.0382,-0.09968 0.15033,-0.517784 0.39158,-0.868146 0.0861,-0.125054 0.15657,-0.287006 0.15657,-0.359891 0,-0.12553 -0.0112,-0.129059 -0.21386,-0.06686 -0.28276,0.08678 -0.59527,0.388474 -0.64142,0.619217 -0.0204,0.101902 -0.0857,0.219334 -0.1451,0.260956 -0.0924,0.06468 -0.14627,0.198672 -0.16445,0.408747 -0.003,0.02762 -0.0671,0.03441 -0.1438,0.01521 -0.087,-0.02186 -0.1658,-0.0034 -0.20944,0.04934 -0.0843,0.101651 -0.052,0.300405 0.0455,0.27992 0.0997,-0.02097 0.0854,0.04419 -0.0628,0.286036 -0.22092,0.360312 -0.35792,0.543705 -0.4657,0.623392 -0.0568,0.04201 -0.10332,0.109484 -0.10332,0.14993 0,0.04045 -0.0921,0.117452 -0.2046,0.171122 -0.12221,0.05831 -0.2046,0.140056 -0.2046,0.203071 0,0.186781 -0.2243,0.552441 -0.40704,0.663568 -0.0976,0.05939 -0.17755,0.134672 -0.17755,0.1673 0,0.03265 -0.0359,0.05933 -0.0798,0.05933 -0.0439,0 -0.14669,0.05261 -0.22844,0.116916 -0.0818,0.06428 -0.21528,0.116923 -0.29673,0.116923 -0.0814,0 -0.16417,0.02599 -0.18382,0.05783 -0.022,0.03564 -0.0885,0.02321 -0.17328,-0.03231 -0.12018,-0.07875 -0.1624,-0.07976 -0.33401,-0.0081 -0.24002,0.100286 -0.5746,0.468947 -0.5746,0.633126 0,0.07003 -0.0475,0.132779 -0.1136,0.150067 -0.0694,0.01813 -0.12058,0.08991 -0.13154,0.18452 -0.0128,0.110054 -0.0475,0.149842 -0.12023,0.137631 -0.0764,-0.01283 -0.1023,0.02281 -0.1023,0.141243 0,0.179817 0.009,0.169412 -0.6611,0.8405 -0.53837,0.539829 -0.68265,0.778033 -0.79664,1.315325 -0.0722,0.34058 -0.0913,0.402367 -0.23028,0.7481 -0.0362,0.08993 -0.0657,0.227404 -0.0657,0.305488 0,0.07809 -0.0504,0.224975 -0.11215,0.326408 -0.0617,0.101434 -0.0999,0.216287 -0.085,0.255234 0.0149,0.03896 -0.0135,0.265693 -0.0632,0.503882 -0.0497,0.23819 -0.0911,0.538297 -0.092,0.666901 -0.002,0.22604 -0.21731,0.747306 -0.30706,0.742134 -0.31797,-0.01832 -0.61996,-0.217522 -0.62473,-0.412115 -0.002,-0.04357 -0.0696,-0.213897 -0.15229,-0.378523 -0.14215,-0.283022 -0.14903,-0.338198 -0.12633,-1.013555 l 0.024,-0.714238 -0.16596,0.02586 c -0.0913,0.01425 -0.24387,0.03822 -0.33908,0.05322 -0.17847,0.02817 -0.35301,-0.0841 -0.35301,-0.227038 0,-0.119359 -0.20751,-0.274381 -0.31307,-0.233873 -0.0794,0.03048 -0.0961,-0.0041 -0.0961,-0.200288 0,-0.137754 0.0333,-0.256787 0.0793,-0.283938 0.0436,-0.02573 0.20614,-0.204584 0.36114,-0.397501 0.15499,-0.19291 0.30034,-0.363903 0.32298,-0.379982 0.0226,-0.01609 0.0903,-0.124295 0.1504,-0.240484 0.0601,-0.116197 0.18641,-0.326646 0.28077,-0.467672 0.37755,-0.564244 0.50071,-0.777565 0.50071,-0.867243 0,-0.05165 0.0353,-0.145776 0.0783,-0.209199 0.0725,-0.106701 0.0934,-0.635277 0.0277,-0.700988 -0.0471,-0.0471 -0.3651,0.133505 -0.51387,0.291873 -0.0763,0.08122 -0.18353,0.147657 -0.2383,0.147657 -0.0548,0 -0.1323,0.03943 -0.17233,0.08769 -0.04,0.04826 -0.10579,0.08769 -0.14615,0.08769 -0.0403,0 -0.10637,0.03978 -0.14672,0.08837 -0.0403,0.0486 -0.18166,0.140503 -0.31406,0.204225 -0.13239,0.06374 -0.31964,0.167138 -0.4161,0.22982 -0.0965,0.06265 -0.31089,0.183048 -0.47652,0.267486 -0.16564,0.08444 -0.31443,0.204319 -0.33067,0.266398 -0.017,0.06509 -0.0801,0.112878 -0.14901,0.112878 -0.0657,0 -0.14051,0.03564 -0.16623,0.07917 -0.0455,0.07701 -0.11075,0.09834 -0.66056,0.215893 -0.14469,0.03095 -0.3683,0.09826 -0.4969,0.149619 -0.40417,0.161394 -0.92378,0.20945 -1.16681,0.107901 -0.11663,-0.04873 -0.22588,-0.12464 -0.24279,-0.168678 -0.0169,-0.04405 -0.0815,-0.09336 -0.1436,-0.109599 -0.0749,-0.01962 -0.11287,-0.0805 -0.11287,-0.18114 0,-0.109518 -0.0306,-0.151614 -0.1101,-0.151614 -0.10652,0 -0.17965,-0.145695 -0.1814,-0.361378 -4.4e-4,-0.0541 0.15046,-0.253408 0.33533,-0.442971 0.75971,-0.778956 1.46887,-1.52986 1.82685,-1.934366 0.20899,-0.236153 0.43554,-0.451103 0.50343,-0.477656 0.0679,-0.02654 0.17509,-0.148967 0.23821,-0.272026 0.0632,-0.123052 0.17035,-0.249008 0.23831,-0.279892 0.068,-0.03088 0.13529,-0.101 0.14962,-0.155809 0.0143,-0.05478 0.0883,-0.108459 0.16436,-0.119217 0.0968,-0.01371 0.17293,-0.09412 0.2537,-0.268022 0.0723,-0.155699 0.15417,-0.248446 0.21923,-0.248446 0.0571,0 0.10381,-0.03489 0.10381,-0.0775 0,-0.09407 0.24351,-0.331709 0.33991,-0.331709 0.096,0 0.0867,0.08816 -0.0184,0.175371 -0.0482,0.04004 -0.0877,0.123235 -0.0877,0.184906 0,0.06163 -0.0511,0.183401 -0.11351,0.27052 -0.0625,0.08712 -0.1558,0.289924 -0.20748,0.450688 -0.069,0.214637 -0.15533,0.337981 -0.32494,0.464264 -0.12701,0.09459 -0.23095,0.221099 -0.23095,0.281135 0,0.06 -0.0262,0.09291 -0.0584,0.07305 -0.0321,-0.01988 -0.11405,0.05817 -0.18204,0.173436 -0.068,0.115247 -0.17158,0.235203 -0.2302,0.266569 -0.0616,0.03299 -0.11427,0.137109 -0.12486,0.246939 -0.0153,0.158226 -0.0452,0.192998 -0.17908,0.208406 -0.10939,0.01262 -0.16075,0.05233 -0.16075,0.124376 0,0.05824 -0.0394,0.138622 -0.0877,0.178649 -0.0483,0.04005 -0.0877,0.142621 -0.0877,0.227988 0,0.184663 -0.14786,0.415061 -0.26638,0.415061 -0.0465,0 -0.0843,0.02634 -0.0843,0.05844 0,0.08755 0.0693,0.07309 0.44413,-0.09268 0.21446,-0.09484 0.34962,-0.127505 0.36289,-0.08768 0.0367,0.109986 0.12909,0.06906 0.18678,-0.0827 0.0305,-0.08038 0.083,-0.14615 0.11653,-0.14615 0.0335,0 0.23418,-0.105222 0.44586,-0.233833 0.40356,-0.245167 0.5232,-0.280008 0.56199,-0.163642 0.0182,0.05464 0.0331,0.05464 0.0668,0 0.0239,-0.03862 0.0155,-0.07019 -0.0185,-0.07019 -0.14809,0 -0.0419,-0.104813 0.18059,-0.178241 0.13338,-0.04405 0.25424,-0.124919 0.26859,-0.179783 0.0143,-0.05484 0.0894,-0.115627 0.16671,-0.135039 0.0773,-0.01941 0.14062,-0.05987 0.14062,-0.0899 0,-0.03007 0.0855,-0.09526 0.18999,-0.144955 0.10449,-0.04968 0.26892,-0.159223 0.36537,-0.243403 0.27315,-0.238373 0.59986,-0.431697 0.72957,-0.431697 0.065,0 0.11808,-0.03523 0.11808,-0.0783 0,-0.0431 0.0663,-0.108514 0.14732,-0.145431 0.081,-0.03692 0.17556,-0.139791 0.21009,-0.228606 0.0597,-0.153678 0.15097,-0.873942 0.20445,-1.614019 0.0135,-0.188002 0.0506,-0.39015 0.0822,-0.449209 0.0316,-0.05905 0.0575,-0.161734 0.0575,-0.228151 0,-0.06638 0.0263,-0.120758 0.0585,-0.120758 0.0321,0 0.0585,0.05328 0.0585,0.118362 0,0.143938 0.23846,0.248127 0.44768,0.195618 0.12874,-0.03231 0.1455,-0.01941 0.13314,0.102207 -0.008,0.07655 0.045,0.270703 0.1172,0.43146 0.14705,0.327223 0.14248,0.541296 -0.0353,1.654154 -0.0727,0.454809 -0.0796,0.61837 -0.0287,0.669351 0.051,0.05098 0.0674,0.04575 0.0674,-0.02138 0,-0.04887 0.0631,-0.143646 0.14007,-0.210626 0.077,-0.067 0.16253,-0.157228 0.18999,-0.200532 0.0704,-0.111086 0.51704,-0.34181 0.66163,-0.34181 0.16702,0 0.5867,0.13563 0.5867,0.189605 0,0.0243 -0.0394,0.04425 -0.0877,0.04425 -0.0482,0 -0.0877,0.02634 -0.0877,0.05844 0,0.03217 0.0263,0.05844 0.0585,0.05844 0.0321,0 0.0584,0.07794 0.0584,0.173206 0,0.129738 -0.0712,0.243443 -0.28373,0.453057 -0.31073,0.3065 -0.47485,0.626147 -0.37351,0.727487 0.0426,0.04256 0.11027,0.0061 0.22271,-0.120174 0.0893,-0.100233 0.21982,-0.181317 0.29185,-0.181317 0.0959,0 0.13052,-0.03469 0.13111,-0.13153 6.7e-4,-0.116522 0.1256,-0.618892 0.16946,-0.681664 0.009,-0.01323 0.0692,0.02342 0.13321,0.08139 0.11277,0.102044 0.12389,0.100463 0.35112,-0.04989 0.12906,-0.08542 0.23466,-0.18879 0.23466,-0.229733 0,-0.04093 0.13226,-0.20472 0.29392,-0.36395 0.16165,-0.159224 0.41323,-0.467338 0.55906,-0.68469 0.14583,-0.217352 0.28687,-0.395188 0.31344,-0.395188 0.0266,0 0.084,-0.120934 0.12765,-0.268734 0.0436,-0.147806 0.12546,-0.293413 0.18182,-0.323577 0.0563,-0.03013 0.10249,-0.07742 0.10249,-0.104997 0,-0.09028 -0.17757,-0.120731 -0.291,-0.04989 -0.0871,0.05444 -0.14345,0.05193 -0.26193,-0.01147 -0.11596,-0.06204 -0.16692,-0.06482 -0.21991,-0.01181 -0.038,0.03794 -0.16235,0.06936 -0.27649,0.06983 -0.11414,4.69e-4 -0.2733,0.03889 -0.35368,0.08537 -0.0804,0.0465 -0.21191,0.11693 -0.2923,0.156549 -0.21866,0.107773 -0.34799,0.290767 -0.34945,0.494461 -0.002,0.162251 -0.0171,0.178867 -0.14744,0.153943 -0.13882,-0.02654 -0.14615,-0.01439 -0.14615,0.241944 0,0.148437 -0.0266,0.26988 -0.059,0.26988 -0.0706,0 -0.0602,-0.810097 0.0111,-0.854115 0.0264,-0.01629 0.048,-0.14328 0.048,-0.282139 0,-0.271273 0.10899,-0.571766 0.2792,-0.769773 0.15534,-0.180713 0.51372,-0.334479 0.68144,-0.292382 0.10415,0.02613 0.16547,0.0041 0.22523,-0.08132 0.0454,-0.06482 0.1973,-0.142234 0.33961,-0.173124 0.14163,-0.03074 0.32618,-0.07253 0.41008,-0.09287 0.12586,-0.03048 0.15929,-0.01303 0.19096,0.09981 0.037,0.132106 0.0413,0.133003 0.123,0.0262 0.0465,-0.06082 0.0921,-0.132874 0.10134,-0.160106 0.009,-0.02722 0.23956,-0.09418 0.51191,-0.148763 0.52631,-0.105493 0.7593,-0.260963 0.76399,-0.509802 0.002,-0.06767 0.0802,-0.267682 0.17536,-0.444519 0.0952,-0.176836 0.17306,-0.35476 0.17306,-0.39539 1e-5,-0.04059 0.0244,-0.119543 0.0543,-0.175378 0.13879,-0.259598 0.29647,-0.643659 0.29647,-0.72209 0,-0.04771 0.0222,-0.111757 0.0494,-0.142301 0.0585,-0.06591 0.25686,-0.591023 0.36319,-0.961651 0.0415,-0.144685 0.0972,-0.288052 0.12376,-0.318596 0.0266,-0.03055 0.0482,-0.094 0.0482,-0.141012 0,-0.04704 0.0685,-0.202392 0.15226,-0.345291 0.14888,-0.25406 0.15375,-0.256849 0.21922,-0.125726 0.0375,0.07508 0.15057,0.15574 0.25695,0.183278 0.1045,0.02708 0.18999,0.08587 0.18999,0.130708 0,0.0448 0.083,0.164491 0.18438,0.265897 0.18153,0.181527 0.18333,0.188892 0.11691,0.476624 -0.0371,0.160737 -0.0675,0.351549 -0.0675,0.424034 0,0.07247 -0.0657,0.261193 -0.1459,0.419364 -0.0802,0.158171 -0.14618,0.327046 -0.14651,0.375272 -4.4e-4,0.04826 -0.0399,0.163037 -0.0879,0.255131 -0.0481,0.09209 -0.0873,0.202589 -0.0873,0.245548 0,0.04297 -0.0359,0.09914 -0.0798,0.124851 -0.0439,0.02572 -0.0949,0.125665 -0.11337,0.222123 -0.0185,0.09646 -0.0514,0.24772 -0.0732,0.336135 -0.0348,0.141277 -0.0228,0.160737 0.0988,0.160547 0.0761,-1.23e-4 0.22022,-0.05016 0.32027,-0.111147 0.25845,-0.157601 0.89915,-0.19739 1.18851,-0.07382 0.21417,0.09147 0.2214,0.103789 0.1935,0.330093 -0.0207,0.168 -0.0922,0.30179 -0.25061,0.468907 -0.25632,0.270424 -0.58258,0.805646 -0.58258,0.955699 0,0.05661 -0.0789,0.227343 -0.17538,0.379439 -0.0965,0.152096 -0.17538,0.291567 -0.17538,0.309941 0,0.01839 -0.0789,0.133043 -0.17537,0.254833 -0.0965,0.121783 -0.17537,0.250109 -0.17537,0.28516 0,0.03502 -0.0789,0.226651 -0.17538,0.425771 -0.0965,0.199127 -0.17538,0.387355 -0.17538,0.418292 0,0.03095 -0.0789,0.184507 -0.17538,0.341273 -0.0965,0.156759 -0.17537,0.319641 -0.17537,0.361954 0,0.04229 -0.0657,0.112125 -0.14615,0.155145 -0.16304,0.08726 -0.19241,0.175377 -0.0584,0.175377 0.0482,0 0.0877,-0.02939 0.0877,-0.0653 0,-0.0359 0.0507,-0.05206 0.11254,-0.03583 0.0759,0.01982 0.10307,0.0047 0.0835,-0.04636 -0.0332,-0.08666 0.17918,-0.172745 0.27704,-0.112267 0.0371,0.02294 0.0505,0.112104 0.0312,0.208378 -0.0374,0.186937 0.0245,0.215792 0.16385,0.07643 0.11513,-0.115124 0.11535,-0.16859 0.002,-0.282756 -0.0819,-0.08193 -0.0594,-0.110706 0.23398,-0.298363 0.17857,-0.11422 0.37063,-0.224458 0.42682,-0.24497 0.0562,-0.0205 0.16488,-0.08542 0.24157,-0.144257 0.14177,-0.108777 0.30103,-0.142681 0.29655,-0.06312 -0.003,0.06082 -0.39768,0.306907 -0.49167,0.306907 -0.0836,0 -0.14461,0.160818 -0.10529,0.277681 0.0135,0.04018 0.074,0.07306 0.1346,0.07306 0.1583,0 0.52314,-0.339956 0.52409,-0.48834 0.002,-0.188226 0.0645,-0.388541 0.12293,-0.388541 0.0284,0 0.0517,0.0376 0.0517,0.08352 0,0.08811 0.28991,0.08864 0.68999,0.0014 0.18939,-0.04134 0.19232,-0.03896 0.15269,0.12652 -0.0222,0.09278 -0.0606,0.194994 -0.0853,0.227146 -0.0247,0.03217 -0.0637,0.184351 -0.0866,0.338225 -0.0229,0.153868 -0.10428,0.372062 -0.18085,0.484878 -0.0765,0.112817 -0.13964,0.236832 -0.1402,0.275597 -0.002,0.106429 -0.27906,0.347992 -0.34968,0.304355 -0.0889,-0.05491 -0.29321,0.214406 -0.2562,0.337682 0.0427,0.142193 -0.29245,0.869428 -0.63047,1.368111 -0.0911,0.134402 -0.16565,0.277016 -0.16565,0.31692 0,0.03991 -0.0417,0.118517 -0.0924,0.174698 -0.0847,0.09355 -0.0828,0.111785 0.0219,0.216517 0.0629,0.06292 0.12743,0.150535 0.14339,0.19475 0.0236,0.06523 0.0497,0.06665 0.13883,0.0076 0.0604,-0.04004 0.20644,-0.114418 0.32453,-0.165305 0.11809,-0.05091 0.22779,-0.126609 0.24379,-0.168278 0.016,-0.04168 0.1206,-0.09293 0.23247,-0.113923 0.11186,-0.02097 0.23472,-0.07591 0.27303,-0.122054 0.0427,-0.05145 0.16926,-0.08191 0.3274,-0.07873 0.23404,0.0047 0.25776,0.01853 0.25776,0.150161 0,0.101488 0.0249,0.135392 0.0833,0.113013 0.0887,-0.03408 0.49994,0.05994 0.57582,0.131605 0.0249,0.02355 0.0555,0.11976 0.0679,0.213788 0.0124,0.09403 0.054,0.249891 0.0923,0.346344 0.0902,0.226786 0.12813,0.673972 0.0641,0.755206 -0.0274,0.03476 -0.0682,0.165122 -0.0907,0.289674 -0.0752,0.416486 -0.77046,1.322309 -1.13533,1.479068 -0.108,0.04643 -0.20972,0.135426 -0.22604,0.197831 -0.0366,0.139878 -0.0698,0.142281 -0.16507,0.01195 -0.069,-0.09435 -0.0819,-0.09473 -0.18182,-0.0054 -0.12668,0.113183 -0.3659,0.153691 -0.48182,0.08158 -0.10297,-0.06407 -0.23598,0.104136 -0.24848,0.314198 -0.005,0.08227 -0.0118,0.183576 -0.0152,0.22511 -0.003,0.04154 -0.0438,0.09873 -0.0896,0.127077 -0.0698,0.0431 -0.0707,0.06693 -0.005,0.145322 0.0597,0.07199 0.0686,0.235116 0.0385,0.702447 -0.12396,1.917288 -0.13352,2.65723 -0.0439,3.392495 0.0393,0.321527 0.0836,0.689815 0.0986,0.818426 0.015,0.128604 0.0303,0.780212 0.0341,1.448009 0.004,0.667803 0.0285,1.227595 0.055,1.243993 0.0266,0.01636 0.0494,0.338124 0.0508,0.714957 0.002,0.376833 0.0126,0.816682 0.0249,0.977439 0.12738,1.673437 0.10114,2.334019 -0.13699,3.449069 -0.0344,0.160764 -0.0828,0.453967 -0.10761,0.651574 -0.0686,0.545253 -0.22456,0.65511 -0.63959,0.450513 z m 1.882,-15.080541 c 0.0731,-0.0281 0.0789,-0.05417 0.0262,-0.117643 -0.0513,-0.06177 -0.0871,-0.06543 -0.14764,-0.01527 -0.15565,0.129174 -0.0812,0.21064 0.12138,0.132881 z m -0.73183,-0.458081 c 0.32424,-0.204679 0.72623,-0.75089 1.06758,-1.450553 0.18854,-0.386458 0.19918,-0.467427 0.0751,-0.570462 -0.074,-0.06143 -0.11246,-0.05254 -0.22299,0.05131 -0.0767,0.07208 -0.20996,0.125503 -0.313,0.125503 -0.13024,0 -0.18778,0.03204 -0.20998,0.116916 -0.0213,0.08135 -0.0797,0.116916 -0.1922,0.116916 -0.16945,0 -0.37545,0.144338 -0.37545,0.263067 0,0.03828 -0.054,0.118395 -0.1199,0.178078 -0.10844,0.09813 -0.11652,0.153563 -0.0844,0.579036 0.0389,0.516446 0.0741,0.733581 0.11895,0.733581 0.0161,0 0.13148,-0.06455 0.2564,-0.143381 z m 0.76435,0.117602 c 0,-0.01419 -0.0263,-0.04201 -0.0585,-0.06191 -0.0321,-0.01988 -0.0584,-0.0083 -0.0584,0.02579 0,0.03408 0.0263,0.06191 0.0584,0.06191 0.0322,0 0.0585,-0.0116 0.0585,-0.02579 z m -6.19662,-0.204605 c 0,-0.03027 -0.0263,-0.07127 -0.0585,-0.09114 -0.0321,-0.01988 -0.0584,0.0047 -0.0584,0.05498 0,0.0501 0.0263,0.09114 0.0584,0.09114 0.0321,0 0.0585,-0.02478 0.0585,-0.05498 z m -0.23384,-0.06191 c 0,-0.03217 -0.0117,-0.05844 -0.0258,-0.05844 -0.0141,0 -0.042,0.02634 -0.0619,0.05844 -0.0199,0.03217 -0.009,0.05844 0.0258,0.05844 0.0341,0 0.0619,-0.02634 0.0619,-0.05844 z m 0.40921,-0.792206 c 0,-0.04656 0.025,-0.08468 0.0557,-0.08468 0.0306,0 0.10241,-0.09865 0.15949,-0.219219 0.0571,-0.120575 0.17012,-0.28499 0.2512,-0.365369 0.14877,-0.1475 0.33131,-0.566308 0.27248,-0.625149 -0.0175,-0.01751 -0.066,0.0047 -0.10767,0.04962 -0.13444,0.144338 -0.45585,0.635521 -0.45585,0.696609 0,0.03258 -0.0272,0.09099 -0.0607,0.12982 -0.14891,0.173273 -0.45338,0.715092 -0.42638,0.758783 0.0399,0.06442 0.31169,-0.232542 0.31169,-0.340437 z m -3.56598,0.02878 c 0,-0.03027 -0.0263,-0.05498 -0.0585,-0.05498 -0.0321,0 -0.0585,0.04099 -0.0585,0.09114 0,0.05016 0.0263,0.07488 0.0585,0.05498 0.0321,-0.01988 0.0585,-0.06089 0.0585,-0.09114 z m 3.39661,-0.270302 c 0.061,-0.108608 0.10979,-0.255864 0.10841,-0.327229 -0.002,-0.112464 -0.0333,-0.0947 -0.23368,0.133308 -0.25183,0.286572 -0.28752,0.430149 -0.12919,0.519766 0.0776,0.04392 0.10729,0.03543 0.12292,-0.03523 0.0113,-0.05124 0.0705,-0.182003 0.13154,-0.290617 z m 3.50152,0.247971 c 0,-0.01419 -0.0263,-0.04201 -0.0584,-0.06191 -0.0321,-0.01988 -0.0585,-0.0083 -0.0585,0.02579 0,0.03408 0.0263,0.06191 0.0585,0.06191 0.0321,0 0.0584,-0.0116 0.0584,-0.02579 z m 0.23383,-0.558808 c 0,-0.03217 -0.0263,-0.05844 -0.0584,-0.05844 -0.0321,0 -0.0585,0.02627 -0.0585,0.05844 0,0.03217 0.0263,0.05844 0.0585,0.05844 0.0321,0 0.0584,-0.02634 0.0584,-0.05844 z m 1.2861,-0.05844 c 0,-0.03218 -0.0117,-0.05844 -0.0258,-0.05844 -0.0141,0 -0.042,0.02634 -0.0619,0.05844 -0.0199,0.03217 -0.009,0.05844 0.0258,0.05844 0.0341,0 0.0619,-0.02634 0.0619,-0.05844 z m -1.51993,-0.23384 c 0,-0.03217 -0.0263,-0.05844 -0.0584,-0.05844 -0.0321,0 -0.0585,0.02627 -0.0585,0.05844 0,0.03218 0.0263,0.05844 0.0585,0.05844 0.0321,0 0.0584,-0.02634 0.0584,-0.05844 z m 1.9044,-0.131529 c 0.27584,-0.231016 0.28643,-0.247103 0.1767,-0.268246 -0.16929,-0.03258 -0.44426,0.110672 -0.44426,0.23149 0,0.125544 0.13878,0.14461 0.26756,0.03672 z m -5.29501,-0.102309 c 0,-0.03218 -0.0263,-0.05844 -0.0585,-0.05844 -0.0321,0 -0.0585,0.02634 -0.0585,0.05844 0,0.03217 0.0263,0.05844 0.0585,0.05844 0.0321,0 0.0585,-0.02634 0.0585,-0.05844 z m 4.82284,0 c 0.0199,-0.03218 -0.006,-0.05844 -0.0584,-0.05844 -0.0521,0 -0.0783,0.02634 -0.0584,0.05844 0.0199,0.03217 0.0462,0.05844 0.0584,0.05844 0.0122,0 0.0386,-0.02634 0.0584,-0.05844 z m 1.22426,-0.535989 c -0.0195,-0.06203 0.008,-0.106626 0.0741,-0.122488 0.0997,-0.02376 0.0997,-0.02708 0.002,-0.06984 -0.0747,-0.03252 -0.13651,-0.0027 -0.22346,0.107868 -0.0661,0.08403 -0.15773,0.152782 -0.20362,0.152782 -0.10182,0 -0.11161,0.156243 -0.0119,0.189489 0.12553,0.04188 0.39717,-0.150814 0.36348,-0.257806 z m -5.52097,-0.282438 c 0,-0.03218 -0.0394,-0.05844 -0.0877,-0.05844 -0.0482,0 -0.0877,0.02634 -0.0877,0.05844 0,0.03217 0.0394,0.05844 0.0877,0.05844 0.0482,0 0.0877,-0.02634 0.0877,-0.05844 z m 0.285,-0.0789 c 0.0498,-0.06007 0.0375,-0.111188 -0.0517,-0.213979 -0.15167,-0.174862 -0.20952,-0.11401 -0.10853,0.114147 0.0923,0.20844 0.0777,0.199317 0.16019,0.09983 z m 0.11292,-0.419548 c -0.018,-0.01799 -0.0507,0.01446 -0.0726,0.07211 -0.0317,0.08331 -0.025,0.09003 0.0327,0.03271 0.0399,-0.03964 0.0579,-0.08683 0.0399,-0.104827 z m 0.33032,-0.257473 c 0.0184,-0.02994 0.007,-0.07095 -0.0258,-0.09114 -0.0326,-0.02023 -0.0594,0.0041 -0.0594,0.05444 0,0.102683 0.0351,0.117805 0.0852,0.03672 z m -7.74329,-0.413255 c 0,-0.03217 -0.0279,-0.05844 -0.0619,-0.05844 -0.0341,0 -0.0457,0.02634 -0.0258,0.05844 0.0199,0.03218 0.0477,0.05844 0.0619,0.05844 0.0142,0 0.0258,-0.02634 0.0258,-0.05844 z m 5.08591,-0.240084 c 0,-0.08404 -0.10143,-0.05994 -0.13691,0.03252 -0.0217,0.05661 -0.005,0.07393 0.0522,0.0522 0.0465,-0.01785 0.0847,-0.056 0.0847,-0.08471 z m 3.82516,-0.713178 c 0.0825,-0.121606 0.15003,-0.258593 0.15003,-0.304416 0,-0.082 0.17066,-0.414694 0.3286,-0.640618 0.0443,-0.0634 0.0806,-0.150848 0.0806,-0.194282 0,-0.102275 -0.17831,-0.0674 -0.23804,0.0465 -0.10345,0.197309 -0.28808,0.624518 -0.28808,0.666561 0,0.02478 -0.0762,0.154587 -0.16926,0.288452 -0.0931,0.133872 -0.18615,0.317686 -0.20681,0.408484 -0.0369,0.161999 -0.0354,0.163078 0.0776,0.05777 0.0634,-0.05905 0.18274,-0.206838 0.26527,-0.328444 z m -7.36191,-0.09899 c 0.0199,-0.03218 0.009,-0.05844 -0.0258,-0.05844 -0.0341,0 -0.0619,0.02634 -0.0619,0.05844 0,0.03217 0.0117,0.05844 0.0258,0.05844 0.0142,0 0.042,-0.02627 0.0619,-0.05844 z m 5.18821,-0.02294 c 0.0563,-0.04269 0.1023,-0.120792 0.1023,-0.173518 0,-0.05274 0.0245,-0.09586 0.0545,-0.09586 0.03,0 0.0699,-0.0486 0.0888,-0.108045 0.0189,-0.05946 0.0995,-0.13778 0.17932,-0.174128 0.0798,-0.03631 0.14502,-0.105173 0.14502,-0.152958 0,-0.04778 0.0526,-0.115042 0.11692,-0.149455 0.0643,-0.03441 0.11692,-0.112906 0.11692,-0.174421 0,-0.154628 0.25001,-0.410167 0.4013,-0.410167 0.0687,0 0.12483,-0.02545 0.12483,-0.05661 0,-0.03116 -0.0368,-0.04249 -0.0818,-0.02525 -0.045,0.01724 -0.0973,0.0061 -0.11626,-0.02444 -0.041,-0.06631 0.32202,-0.478286 0.42141,-0.478286 0.038,0 0.0689,-0.04127 0.0689,-0.09163 0,-0.06503 -0.0339,-0.08086 -0.11692,-0.0545 -0.13956,0.04433 -0.15572,-0.05722 -0.0292,-0.183726 0.10093,-0.100938 0.11678,-0.254711 0.0263,-0.254711 -0.0338,0 -0.0989,0.08966 -0.14469,0.199249 -0.0459,0.109586 -0.1046,0.208236 -0.13066,0.219219 -0.0806,0.03394 -0.30626,0.383912 -0.30626,0.474894 0,0.04738 -0.0416,0.120648 -0.0925,0.162854 -0.0508,0.04222 -0.16725,0.222992 -0.25867,0.40175 -0.0914,0.178765 -0.26026,0.398486 -0.37521,0.488278 -0.11495,0.08979 -0.209,0.19046 -0.209,0.223712 0,0.03326 -0.0789,0.13939 -0.17538,0.235842 -0.0965,0.09646 -0.17536,0.199663 -0.17536,0.229338 0,0.08033 0.24793,0.0617 0.36536,-0.02743 z m 0.54075,-0.210918 c 0.0199,-0.03217 -0.005,-0.05844 -0.055,-0.05844 -0.05,0 -0.0911,0.02634 -0.0911,0.05844 0,0.03217 0.0248,0.05844 0.055,0.05844 0.0302,0 0.0713,-0.02634 0.0911,-0.05844 z m -1.31533,-0.116916 c 0,-0.03217 -0.0263,-0.05844 -0.0584,-0.05844 -0.0321,0 -0.0584,0.02634 -0.0584,0.05844 0,0.03218 0.0263,0.05844 0.0584,0.05844 0.0321,0 0.0584,-0.02634 0.0584,-0.05844 z m 0.25672,-0.267587 c 0.038,-0.0992 0.008,-0.103728 -0.14528,-0.02179 -0.0632,0.0338 -0.1,0.08523 -0.0819,0.114364 0.0435,0.0704 0.18716,0.01188 0.22725,-0.09259 z m 4.94611,0.03373 c 0,-0.03217 0.0394,-0.05844 0.0877,-0.05844 0.0482,0 0.0877,-0.02634 0.0877,-0.05844 0,-0.109083 -0.28665,-0.06129 -0.35075,0.05844 -0.053,0.09912 -0.0445,0.116916 0.0564,0.116916 0.0654,0 0.11897,-0.02627 0.11897,-0.05844 z m -4.6767,-0.350755 c 0,-0.03217 -0.0263,-0.05844 -0.0585,-0.05844 -0.0321,0 -0.0585,0.02634 -0.0585,0.05844 0,0.03218 0.0263,0.05844 0.0585,0.05844 0.0321,0 0.0585,-0.02634 0.0585,-0.05844 z m 2.16298,-1.839618 c 0,-0.05226 -0.0343,-0.0727 -0.0877,-0.05219 -0.10587,0.04066 -0.11357,-0.05593 -0.0168,-0.210829 0.0877,-0.140381 0.022,-0.220149 -0.0987,-0.119957 -0.12035,0.09989 -0.1128,0.332327 0.0132,0.405707 0.14224,0.08284 0.19,0.07714 0.19,-0.02274 z m 0.17537,-0.297574 c 0,-0.04636 -0.0263,-0.08424 -0.0584,-0.08424 -0.0321,0 -0.0585,0.05417 -0.0585,0.120371 0,0.06618 0.0263,0.104108 0.0585,0.08423 0.0321,-0.01988 0.0584,-0.07403 0.0584,-0.120363 z m -2.57219,-0.464223 c 0,-0.04819 -0.0263,-0.08769 -0.0584,-0.08769 -0.0321,0 -0.0584,0.03943 -0.0584,0.08769 0,0.04826 0.0263,0.08769 0.0584,0.08769 0.0321,0 0.0584,-0.03943 0.0584,-0.08769 z m 6.07971,1.782996 c 0,-0.03217 0.0263,-0.05844 0.0584,-0.05844 0.0322,0 0.0585,0.02634 0.0585,0.05844 0,0.03218 -0.0263,0.05844 -0.0585,0.05844 -0.0321,0 -0.0584,-0.02627 -0.0584,-0.05844 z m -11.57482,-1.052258 c 0,-0.03217 0.0279,-0.05844 0.0619,-0.05844 0.034,0 0.0457,0.02634 0.0258,0.05844 -0.0199,0.03217 -0.0477,0.05844 -0.0619,0.05844 -0.0141,0 -0.0258,-0.02627 -0.0258,-0.05844 z m 0.14614,-0.350756 c 0.0199,-0.03217 0.0477,-0.05844 0.0619,-0.05844 0.0142,0 0.0258,0.02627 0.0258,0.05844 0,0.03217 -0.0279,0.05844 -0.0619,0.05844 -0.0341,0 -0.0457,-0.02634 -0.0258,-0.05844 z m 0.35252,-0.347911 c -0.0497,-0.08038 0.0133,-0.178215 0.11466,-0.178215 0.0442,0 0.0968,-0.05213 0.11708,-0.115877 0.0202,-0.06373 0.15353,-0.241237 0.29623,-0.394467 0.1427,-0.15323 0.25946,-0.312365 0.25946,-0.353633 0,-0.04127 0.0394,-0.09017 0.0877,-0.108683 0.0482,-0.01853 0.0877,-0.09201 0.0877,-0.163349 0,-0.07134 0.0657,-0.191485 0.14615,-0.267004 0.0804,-0.07551 0.14615,-0.165882 0.14615,-0.200818 0,-0.03495 0.0894,-0.166994 0.1987,-0.29346 0.10929,-0.126467 0.24123,-0.301899 0.29318,-0.389852 0.0937,-0.158721 0.0922,-0.162243 -0.20548,-0.47093 -0.43927,-0.455459 -0.44649,-0.465519 -0.53921,-0.750706 -0.15451,-0.475225 -0.16668,-0.58306 -0.07,-0.620147 0.13058,-0.0501 0.36755,0.02308 0.49837,0.153887 0.0627,0.06279 0.22427,0.193908 0.35892,0.291446 0.22917,0.166018 0.26795,0.174977 0.60696,0.140245 0.22472,-0.02301 0.44252,-0.01058 0.57395,0.03278 0.24128,0.07963 0.47661,0.36995 0.46023,0.567781 -0.007,0.08134 0.0344,0.157764 0.10509,0.195632 0.11698,0.06258 0.16246,0.233412 0.0622,0.233412 -0.0297,0 -0.13223,0.06584 -0.22785,0.146306 -0.18122,0.152483 -0.3745,0.193276 -0.55471,0.117079 -0.0795,-0.03367 -0.11385,-0.01385 -0.13834,0.07978 -0.0179,0.06848 -0.0595,0.124512 -0.0924,0.124512 -0.0329,0 -0.18112,0.127613 -0.32932,0.283584 -0.32817,0.34536 -0.50896,0.451802 -0.6162,0.362797 -0.056,-0.04643 -0.0957,-0.03978 -0.14957,0.02518 -0.0403,0.0486 -0.0524,0.08841 -0.0268,0.08841 0.0255,0 -0.008,0.05919 -0.0738,0.13153 -0.0662,0.07234 -0.13834,0.190724 -0.16027,0.263066 -0.0219,0.07235 -0.0662,0.13153 -0.0983,0.13153 -0.0321,0 -0.14464,0.06577 -0.25002,0.14615 -0.10539,0.08038 -0.22202,0.146143 -0.25917,0.146143 -0.0372,0 -0.0675,0.06082 -0.0675,0.135209 0,0.185756 -0.48048,0.628985 -0.5536,0.510677 z"
         id="path885" /></g></g></svg>
