<?xml version="1.0" encoding="UTF-8" standalone="no"?>
<!-- Created with Inkscape (http://www.inkscape.org/) -->

<svg
   width="128"
   height="128"
   viewBox="0 0 33.866667 33.866667"
   version="1.1"
   id="svg5"
   inkscape:version="1.2 (dc2aedaf03, 2022-05-15)"
   sodipodi:docname="xi.svg"
   xml:space="preserve"
   inkscape:export-filename="xi.png"
   inkscape:export-xdpi="96"
   inkscape:export-ydpi="96"
   xmlns:inkscape="http://www.inkscape.org/namespaces/inkscape"
   xmlns:sodipodi="http://sodipodi.sourceforge.net/DTD/sodipodi-0.dtd"
   xmlns="http://www.w3.org/2000/svg"
   xmlns:svg="http://www.w3.org/2000/svg"><sodipodi:namedview
     id="namedview7"
     pagecolor="#ffffff"
     bordercolor="#666666"
     borderopacity="1.0"
     inkscape:pageshadow="2"
     inkscape:pageopacity="0.0"
     inkscape:pagecheckerboard="0"
     inkscape:document-units="mm"
     showgrid="false"
     inkscape:zoom="3.0653364"
     inkscape:cx="55.948182"
     inkscape:cy="98.194769"
     inkscape:window-width="1920"
     inkscape:window-height="1007"
     inkscape:window-x="0"
     inkscape:window-y="0"
     inkscape:window-maximized="1"
     inkscape:current-layer="g309"
     inkscape:showpageshadow="2"
     inkscape:deskcolor="#d1d1d1" /><defs
     id="defs2" /><g
     inkscape:label="图层 1"
     inkscape:groupmode="layer"
     id="layer1"
     transform="translate(-110.66899,-40.350534)"><g
       id="g309"
       transform="translate(-0.11703734)"><circle
         style="fill:#ffff01;fill-opacity:1;stroke:none;stroke-width:0.090166"
         id="path1508"
         cx="127.49795"
         cy="55.867607"
         r="15.144722" /><path
         style="fill:#1a1a1a;stroke:none;stroke-width:0.115201"
         d="m 133.82393,75.096116 c -0.0937,-0.244184 -0.0535,-0.276479 0.24665,-0.197991 0.15098,0.03948 0.22224,0.12682 0.18425,0.225831 -0.0845,0.22031 -0.34206,0.203674 -0.4309,-0.02782 z m 0.71759,-0.119806 c 0.0832,-0.03326 0.18252,-0.02917 0.2208,0.0091 0.0383,0.03827 -0.0298,0.06551 -0.15119,0.06051 -0.13421,-0.0055 -0.1615,-0.03283 -0.0696,-0.0696 z m 0.252,-0.266909 c 0,-0.06336 0.0519,-0.115199 0.1152,-0.115199 0.0634,0 0.1152,0.05184 0.1152,0.115199 0,0.06337 -0.0519,0.1152 -0.1152,0.1152 -0.0634,0 -0.1152,-0.05184 -0.1152,-0.1152 z m -1.01066,-0.428578 c -0.005,-0.179966 -0.1444,-0.983006 -0.30953,-1.784536 -0.16512,-0.80153 -0.34849,-2.01821 -0.40749,-2.703734 -0.12634,-1.468197 -0.34356,-6.06491 -0.38108,-8.06441 -0.0145,-0.771952 -0.0609,-1.438111 -0.10312,-1.480349 -0.13573,-0.135734 -0.32253,0.06667 -0.32253,0.349478 0,0.150921 -0.0519,0.306443 -0.1152,0.345603 -0.0634,0.03915 -0.1152,0.269953 -0.1152,0.512878 0,0.460903 -0.26484,0.70837 -0.50311,0.470104 -0.0654,-0.06544 -0.23515,-0.118975 -0.37714,-0.118975 -0.142,0 -0.29148,-0.05392 -0.33221,-0.11982 -0.0476,-0.0769 0.0429,-0.09832 0.2524,-0.05979 0.30051,0.05526 0.29748,0.04995 -0.0382,-0.06683 -0.20053,-0.06978 -0.39496,-0.21135 -0.43208,-0.314616 -0.0372,-0.103261 -0.0957,-0.246535 -0.13017,-0.318381 -0.0344,-0.07185 0.006,-0.201449 0.0899,-0.288003 0.084,-0.08656 0.22305,-0.390655 0.30913,-0.675777 0.20962,-0.694341 0.39758,-1.152013 0.47312,-1.152013 0.0341,0 0.0727,-0.12939 0.0858,-0.287537 0.0277,-0.334232 0.90919,-2.246885 1.03558,-2.246885 0.13121,0 0.10862,-0.622497 -0.0261,-0.718244 -0.0655,-0.04655 -0.19681,-0.08463 -0.29185,-0.08463 -0.1536,0 -0.1536,0.0124 0,0.111672 0.14515,0.09381 0.13811,0.111955 -0.0441,0.113437 -0.29669,0.0024 -0.64703,0.433602 -0.64755,0.796998 -4.4e-4,0.428968 -0.56324,1.493475 -1.0562,1.998392 -0.46644,0.477759 -0.58125,0.532397 -0.48409,0.230404 0.0395,-0.122967 0.0269,-0.152174 -0.0324,-0.07488 -0.0535,0.0697 -0.17504,0.156329 -0.27008,0.192511 -0.13764,0.0524 -0.13178,0.06762 0.0287,0.07487 0.45996,0.02077 0.15771,0.504987 -0.40305,0.645728 -0.17345,0.04354 -0.29137,0.117974 -0.26205,0.165424 0.0294,0.04744 -0.0877,0.05876 -0.25999,0.02513 l -0.31333,-0.06115 0.37441,-0.09831 c 0.20593,-0.05407 0.3744,-0.154212 0.3744,-0.22254 0,-0.06833 -0.0718,-0.09665 -0.15975,-0.06292 -0.10916,0.04188 -0.14272,-0.0039 -0.10593,-0.14459 0.0313,-0.119662 -0.0224,-0.235162 -0.12824,-0.275768 -0.10016,-0.03845 -0.17843,-0.188138 -0.17398,-0.332694 0.007,-0.249435 0.0131,-0.251085 0.1071,-0.0324 0.10954,0.254908 0.13194,0.236134 0.17178,-0.144001 0.0157,-0.150189 -0.036,-0.259202 -0.12307,-0.259202 -0.11988,0 -0.11685,-0.06402 0.015,-0.316801 0.22751,-0.436133 0.20993,-0.504848 -0.10875,-0.424865 -0.15149,0.03802 -0.31007,0.0131 -0.3524,-0.05541 -0.0424,-0.06849 -0.13871,-0.122888 -0.21417,-0.120873 -0.0754,0.002 -0.046,0.07295 0.0657,0.157635 0.23301,0.176843 0.18832,0.228086 -0.555,0.636267 -0.25703,0.14114 -0.5259,0.350418 -0.59749,0.465061 -0.13858,0.221891 -0.0711,0.695791 0.099,0.695791 0.056,0 0.10175,0.07614 0.10175,0.169185 0,0.332197 -0.31488,0.04206 -0.45236,-0.416822 -0.0768,-0.256301 -0.12306,-0.479852 -0.10281,-0.496781 0.0203,-0.01694 0.15041,-0.08985 0.28929,-0.162049 0.15089,-0.07844 0.23645,-0.214585 0.21263,-0.338301 -0.0457,-0.237606 0.34174,-0.809185 0.46502,-0.685913 0.045,0.04504 0.0202,0.156294 -0.0554,0.247228 -0.0816,0.09828 -0.0932,0.19252 -0.0287,0.232389 0.0597,0.03688 0.14205,-0.0666 0.18306,-0.229964 0.0729,-0.290394 0.26419,-0.530853 0.67003,-0.842163 0.14857,-0.113962 0.24182,-0.121266 0.35449,-0.02776 0.1187,0.09852 0.1509,0.07482 0.144,-0.106009 -0.005,-0.143709 0.12324,-0.308218 0.33613,-0.429584 0.43415,-0.247502 0.65059,-0.53384 0.84534,-1.118297 0.0844,-0.253441 0.2279,-0.519018 0.3188,-0.590167 0.0938,-0.07341 0.13323,-0.212832 0.0912,-0.322339 -0.0441,-0.114686 0.001,-0.249147 0.11118,-0.331439 0.20053,-0.149905 0.2057,-0.135356 -0.36931,-1.038361 -0.14882,-0.233706 -0.32036,-0.424919 -0.38121,-0.424919 -0.0609,0 -0.0751,-0.05737 -0.0318,-0.1275 0.0562,-0.09091 0.10386,-0.08701 0.166,0.0136 0.0639,0.103504 0.15333,0.07498 0.33541,-0.107104 0.13651,-0.136511 0.29815,-0.217331 0.3592,-0.179601 0.0611,0.03773 0.11099,0.0137 0.11099,-0.0534 0,-0.06711 -0.0519,-0.122 -0.1152,-0.122 -0.0634,0 -0.1152,-0.07777 -0.1152,-0.172802 0,-0.223628 -0.18625,-0.223628 -0.27205,0 -0.13399,0.349142 -0.28902,0.176826 -0.18071,-0.200841 0.18169,-0.633514 0.15846,-0.663167 -0.51965,-0.663167 -0.34473,0 -0.65884,-0.05184 -0.698,-0.115202 -0.0391,-0.06336 -0.13294,-0.114407 -0.2084,-0.113436 -0.0824,10e-4 -0.0683,0.04634 0.0356,0.113436 0.15609,0.100874 0.0827,0.165222 -0.14607,0.128158 -0.21643,-0.03506 -0.88427,0.335699 -1.00245,0.556524 -0.0716,0.133859 -0.1795,0.212949 -0.23968,0.175755 -0.0602,-0.03719 -0.10942,0.03749 -0.10942,0.165959 0,0.160302 -0.0542,0.212782 -0.1728,0.167275 -0.0951,-0.03647 -0.17281,-0.01325 -0.17281,0.05161 0,0.06486 0.0648,0.144074 0.14401,0.176032 0.1152,0.04649 0.1152,0.05993 0,0.0672 -0.0793,0.005 -0.14401,0.09091 -0.14401,0.190897 0,0.1 -0.18144,0.559036 -0.4032,1.020098 -0.22176,0.461063 -0.4032,0.917671 -0.4032,1.014685 0,0.289236 -1.05735,2.737967 -1.15593,2.67704 -0.05,-0.03088 -0.12725,0.164383 -0.1717,0.433934 -0.0445,0.269556 -0.13294,0.554619 -0.19661,0.633485 -0.0637,0.07886 -0.0896,0.243335 -0.0577,0.365493 0.0319,0.122157 -0.0311,0.368679 -0.14,0.547822 -0.10894,0.179153 -0.17648,0.390525 -0.15009,0.46972 0.0264,0.07919 -0.047,0.148086 -0.1632,0.153089 -0.12233,0.0053 -0.15031,0.03365 -0.0665,0.06743 0.0796,0.03209 0.1107,0.11338 0.0691,0.180642 -0.0416,0.06726 -0.081,0.486283 -0.0877,0.931158 -0.01,0.612777 -0.0539,0.820248 -0.18434,0.855843 -0.13955,0.03806 -0.14258,0.02617 -0.016,-0.06258 0.0998,-0.06988 0.11349,-0.136033 0.0382,-0.182635 -0.15041,-0.09296 -0.38171,0.594286 -0.31538,0.937067 0.0621,0.321269 -0.11596,0.339447 -0.28221,0.02882 -0.0786,-0.146937 -0.24121,-0.230404 -0.44878,-0.230404 -0.17901,0 -0.56868,-0.03336 -0.86596,-0.07408 -0.41506,-0.05689 -0.52516,-0.114007 -0.47445,-0.246138 0.0424,-0.110311 -0.14715,-0.368031 -0.52797,-0.718141 -0.3267,-0.300347 -0.5607,-0.599959 -0.52001,-0.665801 0.0407,-0.06585 0.024,-0.25119 -0.0371,-0.411877 -0.091,-0.239277 -0.08,-0.28023 0.0605,-0.22628 0.1456,0.05587 0.15079,0.02003 0.0342,-0.235916 -0.0756,-0.165985 -0.17753,-0.301788 -0.22645,-0.301788 -0.19145,0 -0.22701,0.468984 -0.0542,0.715628 0.20414,0.291448 0.23725,0.485247 0.0647,0.378595 -0.0635,-0.03927 -0.22313,-0.307646 -0.35468,-0.596406 -0.24571,-0.539368 -0.22491,-1.097087 0.0389,-1.044347 0.0898,0.01794 0.12786,-0.08576 0.10523,-0.286749 -0.0195,-0.173179 0.006,-0.38054 0.0571,-0.460804 0.0509,-0.08026 0.10207,-0.275533 0.11359,-0.433934 0.0115,-0.158405 0.0708,-0.512002 0.13178,-0.785778 0.0614,-0.275543 0.0697,-0.680031 0.0188,-0.906004 -0.0506,-0.224527 -0.0732,-0.505973 -0.0503,-0.625436 0.0294,-0.152622 -0.0247,-0.217207 -0.18196,-0.217207 -0.12308,0 -0.22379,-0.05184 -0.22379,-0.115201 0,-0.06336 -0.0582,-0.115202 -0.1293,-0.115202 -0.0865,0 -0.0795,0.06003 0.0213,0.181583 0.12489,0.150486 0.12238,0.199504 -0.0147,0.286238 -0.091,0.05756 -0.21723,0.105448 -0.28059,0.106425 -0.0634,9.14e-4 -0.25566,0.177805 -0.42734,0.392962 -0.27449,0.344021 -0.28469,0.38402 -0.0846,0.331694 0.12514,-0.03272 0.2557,-0.105089 0.29013,-0.160796 0.0829,-0.134239 0.27941,-0.129919 0.27941,0.0061 0,0.0591 -0.11644,0.144395 -0.25876,0.189565 -0.76547,0.24295 -1.05596,1.598201 -0.71416,3.331829 0.1,0.506887 0.20983,1.089678 0.2442,1.295088 0.0343,0.205417 0.10851,0.345056 0.16472,0.310309 0.0562,-0.03474 0.1626,0.06936 0.2364,0.231328 0.0739,0.161975 0.16836,0.2945 0.21015,0.2945 0.0418,0 0.25015,0.155513 0.46305,0.345598 0.21292,0.190081 0.48451,0.345603 0.60356,0.345603 0.11905,0 0.1848,0.05121 0.14611,0.113811 -0.0447,0.07238 0.12052,0.08765 0.45401,0.04193 0.36115,-0.0495 0.52434,-0.03048 0.52434,0.06119 0,0.0864 -0.10702,0.106196 -0.30518,0.05645 -0.1975,-0.04957 -0.27925,-0.03461 -0.23168,0.04237 0.0405,0.06542 0.26849,0.154578 0.50679,0.198127 0.2383,0.04355 0.54721,0.152531 0.68647,0.242181 0.13925,0.08965 0.28106,0.117926 0.3151,0.06284 0.10793,-0.174642 0.64131,-0.22571 0.64131,-0.0614 0,0.211746 -0.65381,0.253915 -1.2672,0.08174 -0.28513,-0.08003 -0.6287,-0.146074 -0.76351,-0.146762 -0.1348,-8.71e-4 -0.30963,-0.07901 -0.3885,-0.174049 -0.0789,-0.09504 -0.24381,-0.172799 -0.36652,-0.172799 -0.1227,0 -0.19105,-0.05185 -0.15189,-0.115204 0.0391,-0.06336 -0.0119,-0.1152 -0.11341,-0.1152 -0.31518,0 -1.44181,-1.207423 -1.44181,-1.545207 0,-0.163904 -0.0392,-0.298004 -0.0871,-0.298004 -0.12063,0 -0.32505,-0.518551 -0.49079,-1.245021 -0.0908,-0.397783 -0.11178,-0.961306 -0.0601,-1.612817 0.0695,-0.87726 0.12872,-1.076877 0.47774,-1.610246 0.21913,-0.334866 0.55647,-0.704965 0.74964,-0.822445 0.19748,-0.120099 0.28922,-0.234272 0.20956,-0.260826 -0.0801,-0.02671 0.0655,-0.211368 0.33531,-0.425021 0.37143,-0.294174 0.45421,-0.420409 0.37401,-0.570342 -0.0566,-0.1059 -0.12863,-0.348069 -0.15995,-0.538151 -0.0314,-0.190082 -0.0925,-0.482509 -0.13596,-0.649839 -0.0974,-0.37506 0.0741,-0.509666 0.26321,-0.206718 0.10998,0.176115 0.10878,0.223071 -0.005,0.223523 -0.0798,3.11e-4 0.0106,0.128051 0.20063,0.28386 0.19008,0.155808 0.31081,0.285152 0.26829,0.287431 -0.14692,0.0078 0.96,1.040952 1.11536,1.040952 0.37555,0 0.7531,0.886206 0.78683,1.846868 0.0185,0.527279 0.37572,1.493965 0.55204,1.493965 0.0525,0 0.12804,-0.129602 0.16779,-0.288003 0.0397,-0.158401 0.11141,-0.288004 0.15922,-0.288004 0.0479,0 0.28603,-0.392272 0.52938,-0.871716 0.24336,-0.479444 0.48374,-0.897227 0.5342,-0.928407 0.0504,-0.03118 0.0917,-0.149381 0.0917,-0.262669 0,-0.181211 0.0891,-0.321188 0.56695,-0.89136 0.0607,-0.07245 0.0865,-0.15558 0.0574,-0.184734 -0.0697,-0.06976 0.76009,-1.814761 0.86301,-1.814761 0.0436,0 0.15317,0.0648 0.24336,0.144002 0.0902,0.0792 0.0734,0.03486 -0.0373,-0.09854 -0.199,-0.23975 -0.16427,-0.621466 0.0565,-0.621466 0.0618,0 0.0914,-0.06313 0.0657,-0.14029 -0.0258,-0.07716 0.12548,-0.445024 0.336,-0.817475 0.21052,-0.372451 0.38277,-0.719725 0.38277,-0.771718 0,-0.05199 0.0408,-0.111814 0.0905,-0.132934 0.0498,-0.02112 0.20929,-0.207492 0.35441,-0.414159 0.1534,-0.218465 0.32045,-0.343348 0.39905,-0.298334 0.0744,0.04258 0.10069,0.03898 0.0586,-0.008 -0.0801,-0.08931 0.24557,-0.619122 0.74616,-1.214028 0.18782,-0.223208 0.35896,-0.324122 0.4745,-0.279785 0.10048,0.03856 0.18073,0.0097 0.18073,-0.06497 0,-0.07388 -0.0519,-0.102289 -0.11522,-0.06312 -0.0634,0.03916 -0.1152,0.01936 -0.1152,-0.04401 0,-0.06336 0.0519,-0.147241 0.1152,-0.186399 0.0634,-0.03916 0.11522,-0.01629 0.11522,0.0508 0,0.0671 0.0778,0.122 0.17279,0.122 0.0951,0 0.17281,0.07777 0.17281,0.172802 0,0.09504 -0.0802,0.172802 -0.17831,0.172802 -0.20283,0 -0.6931,0.492876 -0.91673,0.921608 -0.0826,0.158402 -0.28476,0.404301 -0.4492,0.546444 -0.41272,0.356755 -0.37558,0.446159 0.16398,0.394702 0.25464,-0.02428 0.52707,0.0091 0.60538,0.07404 0.18508,0.153592 1.43215,0.07801 1.64637,-0.0998 0.091,-0.07546 0.16532,-0.23147 0.16532,-0.346694 0,-0.115224 0.0519,-0.241537 0.1152,-0.280696 0.0634,-0.03916 0.11599,-0.2107 0.11696,-0.381202 0.001,-0.217734 0.0313,-0.263483 0.1008,-0.153705 0.0784,0.123771 0.11769,0.126128 0.18864,0.01133 0.10555,-0.170852 -0.23419,-0.455628 -0.54362,-0.455628 -0.11461,0 -0.20839,-0.05738 -0.20839,-0.127526 0,-0.07014 0.0719,-0.09994 0.15976,-0.06622 0.11033,0.04234 0.14261,-0.0043 0.10429,-0.150719 -0.0305,-0.116615 -0.18015,-0.243325 -0.33257,-0.281579 -0.3565,-0.08947 -0.3512,-0.241709 0.0168,-0.482835 0.19913,-0.130479 0.25615,-0.230347 0.17681,-0.309691 -0.17829,-0.178285 0.20989,-0.417032 0.68129,-0.419019 0.24316,-10e-4 0.63181,0.13391 0.9792,0.339975 0.31681,0.18792 0.52809,0.342559 0.46953,0.343639 -0.0585,0.0011 0.0183,0.134846 0.17093,0.297257 0.2374,0.252704 0.28094,0.423007 0.30185,1.180811 0.0134,0.487036 -0.002,0.794798 -0.0354,0.683917 -0.0852,-0.287183 -0.27119,-0.249566 -0.2848,0.05761 -0.011,0.248669 -0.0152,0.247498 -0.10375,-0.0288 -0.0558,-0.17416 -0.0968,-0.212038 -0.10376,-0.09582 -0.006,0.105699 -0.0456,0.28714 -0.0875,0.403204 -0.0417,0.116063 -0.0386,0.177583 0.007,0.136713 0.092,-0.08235 0.64442,0.386815 0.64558,0.548324 8.7e-4,0.115672 0.70223,0.557767 0.83447,0.525969 0.0475,-0.01142 0.0872,0.09586 0.0881,0.238429 0.001,0.209601 0.0231,0.226135 0.11343,0.0864 0.0614,-0.09504 0.11247,-0.114348 0.11344,-0.04291 8.8e-4,0.07145 -0.0844,0.201045 -0.18977,0.288004 -0.15005,0.123858 -0.20209,0.126758 -0.24024,0.01339 -0.0267,-0.07959 -0.0938,-0.116816 -0.14904,-0.08271 -0.0551,0.03411 -0.0747,0.128874 -0.0433,0.2106 0.0317,0.0825 -0.0731,0.207863 -0.23544,0.281843 -0.17671,0.08052 -0.29244,0.08864 -0.29244,0.02052 0,-0.062 -0.0574,-0.112731 -0.12753,-0.112731 -0.0702,0 -0.0977,0.07776 -0.0612,0.172802 0.0466,0.12136 -0.01,0.173326 -0.18928,0.174565 -0.19416,0.0014 -0.21666,0.02642 -0.0936,0.104307 0.13186,0.08347 0.0998,0.186854 -0.1728,0.555807 -0.18412,0.249295 -0.39957,0.431318 -0.47878,0.404496 -0.0792,-0.02682 -0.144,0.02899 -0.144,0.124034 0,0.09504 0.0648,0.195944 0.144,0.22423 0.0793,0.02829 0.10638,0.09184 0.0604,0.141218 -0.046,0.04939 -0.16381,0.02323 -0.26184,-0.05812 -0.14893,-0.123605 -0.16703,-0.118752 -0.11012,0.02953 0.0374,0.0976 0.0127,0.211667 -0.0549,0.253496 -0.0676,0.04183 -0.12305,0.153812 -0.12305,0.248854 0,0.09504 0.0539,0.139477 0.11982,0.09875 0.0765,-0.04727 0.095,0.02501 0.051,0.199842 -0.0467,0.185889 -7e-5,0.336037 0.14497,0.467293 0.22575,0.204308 0.24176,0.201934 1.82354,-0.270594 0.52463,-0.156721 0.85583,-0.130748 0.85583,0.06712 0,0.09504 0.0519,0.172801 0.1152,0.172801 0.0634,0 0.1152,-0.05228 0.1152,-0.116177 0,-0.06887 0.0938,-0.05758 0.2304,0.0277 0.28567,0.1784 0.30184,0.364421 0.0254,0.292131 -0.25151,-0.06577 -0.5296,0.208273 -0.44227,0.435848 0.0359,0.09358 -0.002,0.166895 -0.0875,0.166895 -0.35666,0 -0.91096,0.396109 -1.06278,0.759471 -0.21704,0.51944 -0.20432,0.648115 0.0959,0.970356 0.14811,0.158976 0.24217,0.387407 0.22222,0.539651 -0.0262,0.199659 0.01,0.24707 0.14639,0.194542 0.11823,-0.04537 0.18099,-0.0053 0.18099,0.11568 0,0.101814 0.0778,0.185125 0.17279,0.185125 0.0951,0 0.17281,0.04346 0.17281,0.09654 0,0.05309 0.17782,0.103219 0.39517,0.111389 0.26979,0.01014 0.52163,0.13091 0.79368,0.380593 0.3462,0.317737 0.38618,0.408754 0.30452,0.693466 -0.0541,0.188518 -0.0487,0.355735 0.0127,0.393677 0.0586,0.03627 0.10672,0.268628 0.10672,0.516343 0,0.373779 -0.0328,0.437804 -0.1928,0.376403 -0.14262,-0.05473 -0.17467,-0.02673 -0.12314,0.107554 0.0384,0.09985 0.035,0.216183 -0.007,0.258532 -0.0424,0.04236 -0.0827,0.138136 -0.0897,0.212865 -0.007,0.07473 -0.0206,0.226594 -0.0302,0.337474 -0.01,0.110876 -0.0749,0.201597 -0.14507,0.201597 -0.0702,0 -0.10259,-0.06508 -0.0721,-0.144602 0.0305,-0.07954 -0.0157,-0.211181 -0.10291,-0.292545 -0.12984,-0.121287 -0.15837,-0.115992 -0.15837,0.02939 0,0.09875 -0.0991,0.177341 -0.22361,0.177341 -0.12298,0 -0.26064,0.05993 -0.30592,0.133182 -0.0589,0.09521 0.0214,0.112452 0.28122,0.06048 0.19993,-0.03997 0.36351,-0.02486 0.36351,0.03361 0,0.05846 -0.27216,0.12197 -0.60481,0.141124 l -0.60481,0.03484 0.0118,1.497613 c 0.006,0.823687 0.0728,1.860497 0.14715,2.304022 0.0744,0.443523 0.15956,1.013769 0.18925,1.26721 0.0297,0.253445 0.10376,0.745929 0.16468,1.094414 0.43384,2.48331 0.58458,4.487631 0.41892,5.570232 -0.0822,0.537469 -0.0985,0.557079 -0.42231,0.509556 -0.23483,-0.03449 -0.33678,-8.72e-4 -0.33678,0.111185 0,0.110758 0.0805,0.138616 0.25921,0.08975 0.22595,-0.06177 0.23303,-0.05448 0.0553,0.05687 -0.11216,0.07025 -0.31304,0.0931 -0.44639,0.05077 -0.14035,-0.04455 -0.27745,-0.02033 -0.32555,0.05749 -0.0468,0.07573 -0.0872,-0.0085 -0.0923,-0.192763 z m 0.89546,-0.493031 c 0,-0.06336 -0.0549,-0.1152 -0.12199,-0.1152 -0.0671,0 -0.0899,0.05184 -0.0508,0.1152 0.0391,0.06336 0.094,0.115204 0.122,0.115204 0.028,0 0.0508,-0.05185 0.0508,-0.115204 z m -0.26691,-0.828007 c -0.0368,-0.0919 -0.064,-0.0646 -0.0696,0.0696 -0.005,0.121444 0.0222,0.189485 0.0606,0.151203 0.0383,-0.03827 0.0424,-0.137644 0.01,-0.220802 z m 0.54886,-0.626858 c 0.0249,-0.333455 0.017,-0.35877 -0.0312,-0.100345 -0.06,0.321478 -0.0698,0.309417 -0.14035,-0.172804 -0.0728,-0.497482 -0.0765,-0.488416 -0.0931,0.224644 -0.0124,0.531595 0.0181,0.707678 0.10699,0.618755 0.0684,-0.06836 0.13931,-0.324974 0.15767,-0.570247 z m 0.0491,-12.369262 c -0.002,-0.09504 -0.0753,-0.01729 -0.1624,0.1728 -0.0871,0.190086 -0.15638,0.423366 -0.15409,0.518407 0.002,0.09504 0.0753,0.01729 0.1624,-0.172804 0.0871,-0.190081 0.15639,-0.423362 0.15409,-0.518403 z m -0.29456,-0.359048 c 0.0191,-0.665601 -8.7e-4,-0.735362 -0.20928,-0.735362 -0.19721,0 -0.24025,0.0996 -0.29879,0.691207 -0.0537,0.543095 -0.0303,0.722155 0.10902,0.83564 0.272,0.221474 0.37589,0.01542 0.39905,-0.791485 z m -13.15365,0.253885 c 0.35662,-0.332241 0.19957,-0.678205 -0.30787,-0.678205 -0.22294,0 -0.39987,0.05847 -0.40086,0.132481 -0.001,0.09177 -0.0296,0.08874 -0.0921,-0.0098 -0.0539,-0.08484 -0.0904,0.01628 -0.0904,0.250306 v 0.392626 l 0.27517,-0.307905 c 0.25667,-0.28722 0.27011,-0.290565 0.19992,-0.04973 -0.0697,0.239294 -0.006,0.490636 0.12405,0.490636 0.0306,0 0.16206,-0.09916 0.29215,-0.220367 z m 12.44909,-0.213532 c -0.0761,-0.02534 -0.13833,-0.09669 -0.13833,-0.158509 0,-0.06182 0.0519,-0.08035 0.1152,-0.04119 0.0634,0.03915 0.1152,0.01628 0.1152,-0.0508 0,-0.06709 -0.0778,-0.121997 -0.1728,-0.121997 -0.0951,0 -0.1728,0.09504 -0.1728,0.211198 0,0.265036 0.11067,0.381203 0.2696,0.282983 0.0826,-0.05107 0.0774,-0.09051 -0.0161,-0.121669 z m -15.72698,-0.739714 c -0.0368,-0.0919 -0.064,-0.0646 -0.0696,0.0696 -0.005,0.121439 0.0223,0.189484 0.0605,0.151203 0.0383,-0.03827 0.0424,-0.137645 0.01,-0.220802 z m 2.14812,-0.275939 c -0.0801,-0.208611 -0.22603,-0.209439 -0.30574,-0.0017 -0.0783,0.203931 0.0144,0.300865 0.21413,0.224195 0.0848,-0.03256 0.12607,-0.132668 0.0916,-0.222466 z m 0.4228,0.182335 c 0,-0.06336 -0.0519,-0.1152 -0.1152,-0.1152 -0.0634,0 -0.1152,0.05184 -0.1152,0.1152 0,0.06336 0.0519,0.115204 0.1152,0.115204 0.0634,0 0.1152,-0.05184 0.1152,-0.115204 z m 10.36735,-2.102419 c 4.3e-4,-0.11088 -0.0764,-0.201602 -0.17076,-0.201602 -0.10659,0 -0.16445,0.09812 -0.15285,0.259204 0.0106,0.142561 -0.0202,0.388803 -0.0676,0.547204 -0.0792,0.264562 -0.0669,0.259872 0.1521,-0.05761 0.13111,-0.190081 0.23873,-0.436324 0.23915,-0.547205 z m 1.49837,-0.215198 c 0,-0.06336 -0.0519,-0.08317 -0.1152,-0.04401 -0.0634,0.03916 -0.1152,0.123038 -0.1152,0.186398 0,0.06336 0.0519,0.08317 0.1152,0.04401 0.0634,-0.03916 0.1152,-0.123039 0.1152,-0.186399 z m -7.9107,-0.504097 c 0.20822,0.05658 0.21802,0.04783 0.0589,-0.05253 -0.11886,-0.075 -0.17081,-0.218329 -0.13767,-0.379905 0.0307,-0.150126 -0.0223,-0.09612 -0.12592,0.128156 -0.0985,0.213197 -0.17311,0.446479 -0.16575,0.518404 0.007,0.07192 0.0375,0.0379 0.067,-0.07561 0.0386,-0.148289 0.12394,-0.187281 0.30345,-0.138502 z m 0.76823,-1.149327 c 0,-0.256973 -0.0379,-0.271928 -0.46081,-0.181507 -0.0317,0.0068 0.031,0.06395 0.13922,0.127062 0.1201,0.07002 0.1686,0.188281 0.12443,0.303396 -0.0485,0.126238 -0.0278,0.161095 0.0623,0.105354 0.0742,-0.04581 0.13478,-0.205253 0.13478,-0.354308 z m 7.94887,-0.061 c 0,-0.06336 -0.0549,-0.115202 -0.122,-0.115202 -0.0671,0 -0.0899,0.05184 -0.0508,0.115202 0.0391,0.06336 0.094,0.115201 0.12199,0.115201 0.028,0 0.0508,-0.05184 0.0508,-0.115201 z m -13.24812,-0.230403 c 0,-0.06336 -0.0488,-0.115201 -0.1084,-0.115201 -0.0596,0 -0.14044,0.05184 -0.1796,0.115201 -0.0391,0.06336 0.01,0.115201 0.1084,0.115201 0.0988,0 0.1796,-0.05184 0.1796,-0.115201 z m 13.65133,0 c 0.0391,-0.06336 0.0193,-0.115201 -0.0441,-0.115201 -0.0634,0 -0.14724,0.05184 -0.18639,0.115201 -0.0391,0.06336 -0.0193,0.115201 0.0439,0.115201 0.0634,0 0.14725,-0.05184 0.18641,-0.115201 z m 0.57601,-0.115201 c 0.0391,-0.06336 -0.0127,-0.115202 -0.11521,-0.115202 -0.10248,0 -0.15435,0.05184 -0.1152,0.115202 0.0391,0.06336 0.091,0.115201 0.1152,0.115201 0.0242,0 0.0761,-0.05184 0.11521,-0.115201 z m -8.73419,-0.367203 c -0.0368,-0.0919 -0.0641,-0.0646 -0.0696,0.0696 -0.005,0.121441 0.0222,0.189482 0.0605,0.151202 0.0383,-0.03828 0.0424,-0.137642 0.01,-0.220802 z m 6.83337,-2.07973 c 0,-0.251114 -0.0955,-0.256207 -0.35757,-0.01907 -0.11159,0.10099 -0.17587,0.254076 -0.14283,0.340182 0.0843,0.21987 0.5004,-0.0471 0.5004,-0.321116 z m -2.85123,-1.776601 c -0.0793,-0.03196 -0.20881,-0.03196 -0.28801,0 -0.0792,0.03196 -0.0144,0.0581 0.14401,0.0581 0.1584,0 0.2232,-0.02615 0.144,-0.0581 z m -1.87202,-0.960515 c 0,-0.06336 -0.0519,-0.115201 -0.1152,-0.115201 -0.0634,0 -0.1152,0.05184 -0.1152,0.115201 0,0.06336 0.0519,0.115201 0.1152,0.115201 0.0634,0 0.1152,-0.05184 0.1152,-0.115201 z m 0.8851,-1.288812 c -0.0368,-0.0919 -0.064,-0.0646 -0.0696,0.0696 -0.005,0.121441 0.0222,0.189482 0.0605,0.151201 0.0383,-0.03828 0.0424,-0.137642 0.01,-0.220802 z m 4.14724,-0.115201 c -0.0368,-0.0919 -0.064,-0.0646 -0.0696,0.0696 -0.005,0.121442 0.0222,0.189482 0.0606,0.151202 0.0383,-0.03828 0.0424,-0.137642 0.01,-0.220802 z m -0.68771,-1.319362 c 0.0524,-0.15721 -0.47877,-0.389247 -0.86521,-0.377959 -0.18356,0.0054 -0.24046,0.03607 -0.13859,0.07481 0.0951,0.03613 0.29821,0.163044 0.45149,0.282012 0.28518,0.22134 0.48305,0.228915 0.55231,0.02114 z m -9.87428,16.198285 c 0,-0.06137 -0.16416,-0.111586 -0.36481,-0.111586 -0.20064,0 -0.33724,-0.02756 -0.30356,-0.06123 0.0959,-0.09591 0.89206,-0.136299 0.83396,-0.04232 -0.0285,0.04613 0.0107,0.104698 0.0871,0.130164 0.0877,0.02922 0.0667,0.07401 -0.0568,0.121421 -0.10768,0.04132 -0.19577,0.0249 -0.19577,-0.03644 z m 5.49349,-2.647915 c -0.41177,-0.123603 -0.67226,-0.337836 -0.58414,-0.48041 0.0376,-0.06084 0.14364,-0.0031 0.23566,0.128254 0.092,0.131375 0.2909,0.238863 0.44197,0.238863 0.15108,0 0.30671,0.05184 0.34587,0.1152 0.0822,0.132964 0.008,0.132646 -0.43936,-0.0017 z m 0.66977,-0.113293 c -0.0391,-0.06336 0.0127,-0.115204 0.1152,-0.115204 0.10249,0 0.15436,0.05185 0.11519,0.115204 -0.0391,0.06336 -0.091,0.1152 -0.11519,0.1152 -0.0242,0 -0.0761,-0.05184 -0.1152,-0.1152 z m 7.81447,-0.341366 c 0,-0.30104 0.017,-0.318139 0.14378,-0.144729 0.079,0.108146 0.10933,0.223485 0.0672,0.256301 -0.0422,0.03283 -0.10682,0.09795 -0.14378,0.144734 -0.037,0.04679 -0.0672,-0.06855 -0.0672,-0.256306 z m -9.02408,-0.34984 c 0,-0.06336 0.0519,-0.115204 0.1152,-0.115204 0.0634,0 0.1152,0.05185 0.1152,0.115204 0,0.06336 -0.0519,0.1152 -0.1152,0.1152 -0.0634,0 -0.1152,-0.05184 -0.1152,-0.1152 z m 0.576,-0.115204 c 0,-0.06336 0.0549,-0.115199 0.122,-0.115199 0.0671,0 0.0899,0.05184 0.0508,0.115199 -0.0391,0.06336 -0.094,0.115204 -0.12199,0.115204 -0.028,0 -0.0508,-0.05184 -0.0508,-0.115204 z m -8.25293,-3.544195 c -0.0951,-0.06131 -0.0872,-0.125574 0.0287,-0.233182 0.13284,-0.123288 0.16005,-0.108597 0.16005,0.0864 0,0.262199 -0.004,0.265675 -0.18884,0.146781 z m 0.31315,-0.43984 c 0.005,-0.134204 0.0329,-0.161501 0.0696,-0.0696 0.0333,0.08317 0.0292,0.182521 -0.01,0.220803 -0.0383,0.03828 -0.0655,-0.02976 -0.0605,-0.151201 z m 15.19746,-0.124907 c 0.0951,-0.04007 0.21562,-0.12987 0.26796,-0.19957 0.0612,-0.08151 0.0784,-0.06507 0.0481,0.04608 -0.0259,0.09504 -0.14649,0.184847 -0.26797,0.199571 -0.15517,0.01881 -0.16947,0.0051 -0.0481,-0.04608 z m -6.71048,-1.384918 c -0.11088,-0.02897 -0.20159,-0.100726 -0.20159,-0.159439 0,-0.05871 -0.10366,-0.106753 -0.23041,-0.106753 -0.12671,0 -0.2304,-0.05184 -0.2304,-0.115202 0,-0.06336 0.10365,-0.115201 0.2304,-0.115201 0.12672,0 0.23041,0.04555 0.23041,0.101222 0,0.12581 0.51913,0.335363 0.97921,0.395263 0.26356,0.03432 0.2362,0.04592 -0.11521,0.0489 -0.25344,0.0021 -0.55153,-0.01981 -0.66241,-0.04878 z m 1.64162,-0.259394 c 0,-0.05962 0.0512,-0.140074 0.11389,-0.178785 0.0653,-0.04036 0.0846,0.0059 0.0453,0.108403 -0.0766,0.199576 -0.15917,0.236091 -0.15917,0.07038 z m -2.82921,-0.406339 c -0.12299,-0.09302 -0.16873,-0.170786 -0.10164,-0.172801 0.0671,-0.002 0.22261,0.07245 0.3456,0.165474 0.123,0.09302 0.16873,0.170786 0.10164,0.172801 -0.0671,0.002 -0.2226,-0.07245 -0.3456,-0.165474 z m -7.53889,-1.462877 c 0,-0.714076 0.057,-0.696373 0.15437,0.048 0.0431,0.32957 0.0267,0.547206 -0.0414,0.547206 -0.0621,0 -0.11299,-0.267843 -0.11299,-0.595206 z m 0.42908,-1.202944 c -0.0931,-0.09314 0.30092,-0.875049 0.54172,-1.07489 0.15463,-0.128334 0.18121,-0.116335 0.18121,0.08178 0,0.127701 0.0778,0.262022 0.17281,0.298493 0.0951,0.03647 0.17279,0.02258 0.17279,-0.03087 0,-0.05345 0.14257,-0.09595 0.31681,-0.09444 l 0.3168,0.0027 -0.36941,0.153948 c -0.41016,0.170925 -0.725,0.105886 -0.725,-0.149774 0,-0.092 -0.0527,-0.134713 -0.11708,-0.09491 -0.0644,0.03979 -0.0852,0.124067 -0.0461,0.187265 0.0391,0.0632 -0.0249,0.19275 -0.14211,0.287891 -0.1986,0.161183 -0.18956,0.168729 0.13247,0.110598 0.34173,-0.06168 0.34238,-0.06085 0.0576,0.07537 -0.15839,0.07577 -0.31745,0.178845 -0.35346,0.229071 -0.036,0.05023 -0.0986,0.0582 -0.13907,0.01773 z m 12.89259,-1.024277 c 0.0365,-0.09504 0.0866,-0.172802 0.11159,-0.172802 0.0249,0 0.0452,0.07776 0.0452,0.172802 0,0.09504 -0.0502,0.172802 -0.11159,0.172802 -0.0614,0 -0.0818,-0.07777 -0.0453,-0.172802 z m -4.04194,-0.0655 c 0.0567,-0.0907 0.10439,-0.239132 0.10611,-0.329857 0.002,-0.102067 0.15677,-0.182608 0.40625,-0.21126 0.22177,-0.02546 0.37728,-0.0269 0.34561,-0.0032 -0.71413,0.534579 -0.94241,0.67941 -0.85797,0.544305 z m -6.6589,-0.183408 c -0.17424,-0.09178 -0.3168,-0.233765 -0.3168,-0.315529 0,-0.23788 -0.4081,-0.542968 -0.61836,-0.462281 -0.1614,0.06194 -0.18793,-0.0049 -0.17175,-0.432504 0.0235,-0.61893 -0.0812,-0.821049 -0.7557,-1.459989 -0.63975,-0.606023 -0.68973,-0.849745 -0.15341,-0.748118 0.5251,0.0995 0.79789,0.258086 0.70434,0.409455 -0.0541,0.08761 -0.008,0.101507 0.14077,0.04328 0.24863,-0.09665 0.2762,-0.101306 0.4865,-0.08229 0.0829,0.0075 0.11876,0.06548 0.0796,0.128842 -0.0391,0.06336 -0.0108,0.115201 0.0631,0.115201 0.0739,0 0.10545,0.07512 0.0703,0.166935 -0.0428,0.111574 -0.008,0.145691 0.10292,0.102881 0.0918,-0.03524 0.16693,-0.108726 0.16693,-0.16332 0,-0.154716 0.32001,0.0062 0.39357,0.197953 0.0503,0.131026 0.008,0.153169 -0.17831,0.09395 -0.17043,-0.05409 -0.21905,-0.03694 -0.16111,0.05681 0.0493,0.07983 0.21126,0.106114 0.39927,0.06482 0.33678,-0.07397 0.66678,0.173447 0.52891,0.396534 -0.0409,0.06613 0.01,0.120248 0.11208,0.120248 0.11298,0 0.1536,0.05308 0.10313,0.134778 -0.0552,0.08934 -0.0216,0.111102 0.0997,0.06455 0.11744,-0.04506 0.24802,0.02901 0.3645,0.206772 0.28874,0.440674 0.22125,0.68898 -0.27685,1.018602 -0.47647,0.315316 -0.6371,0.376179 -0.52833,0.200182 0.0935,-0.151368 -0.21694,-0.238836 -0.40618,-0.114424 -0.1346,0.08848 -0.12412,0.1359 0.0613,0.277344 0.27839,0.212395 0.11134,0.201244 -0.31002,-0.0207 z m -1.46882,-0.140698 c 0,-0.06336 0.0519,-0.14724 0.1152,-0.1864 0.0634,-0.03916 0.1152,-0.01936 0.1152,0.04401 0,0.06336 -0.0519,0.14724 -0.1152,0.186399 -0.0634,0.03916 -0.1152,0.01936 -0.1152,-0.04401 z m 9.06927,-0.659623 c -0.0868,-0.08685 0.16483,-0.505986 0.30384,-0.505986 0.0559,0 0.0389,0.07549 -0.0376,0.167755 -0.0766,0.09226 -0.10578,0.221867 -0.0649,0.288003 0.079,0.127825 -0.0833,0.168303 -0.20129,0.05023 z m 0.37722,-0.04518 c 0,-0.06336 0.0549,-0.115201 0.12201,-0.115201 0.0671,0 0.0899,0.05184 0.0508,0.115201 -0.0391,0.06336 -0.094,0.1152 -0.12201,0.1152 -0.028,0 -0.0508,-0.05184 -0.0508,-0.1152 z m -0.7488,-1.382413 c 0.0391,-0.06336 0.094,-0.115201 0.12199,-0.115201 0.028,0 0.0508,0.05184 0.0508,0.115201 0,0.06336 -0.055,0.115201 -0.122,0.115201 -0.0671,0 -0.0899,-0.05184 -0.0508,-0.115201 z m 0.288,-0.227377 c 0,-0.03454 0.10365,-0.127554 0.2304,-0.206693 0.19826,-0.123813 0.2304,-0.11505 0.2304,0.0628 0,0.129892 -0.0856,0.206692 -0.2304,0.206692 -0.12672,0 -0.2304,-0.02826 -0.2304,-0.0628 z"
         id="path1234" /><g
         aria-label="D i l u t e"
         transform="rotate(-4.9525519)"
         id="text1877"
         style="font-size:6.14405px;font-family:'Special Elite';-inkscape-font-specification:'Special Elite, Normal';fill:#ee1c25;stroke-width:0.115201"><path
           d="m 110.20012,77.915306 q 0,0.09 -0.018,0.210002 -0.018,0.117001 -0.051,0.249002 -0.03,0.129001 -0.072,0.267002 -0.039,0.138002 -0.084,0.267003 -0.045,0.126001 -0.093,0.237002 -0.045,0.108 -0.087,0.183001 -0.018,0.03 -0.057,0.063 -0.036,0.03 -0.075,0.066 -0.039,0.033 -0.069,0.066 -0.03,0.033 -0.03,0.063 -0.024,0.003 -0.075,0.015 -0.051,0.009 -0.108,0.027 -0.054,0.015 -0.102,0.036 -0.045,0.018 -0.054,0.036 -0.033,0.063 -0.042,0.084 -0.006,0.021 -0.015,0.027 -0.009,0.003 -0.036,0.003 -0.024,-0.003 -0.096,0.012 -0.027,0.006 -0.069,0.018 -0.039,0.012 -0.084,0.024 -0.042,0.012 -0.081,0.018 -0.039,0.009 -0.063,0.009 -0.066,0 -0.12901,-0.021 -0.06,-0.021 -0.126,-0.021 -0.042,0 -0.075,0.012 -0.111,0.042 -0.213,0.06 -0.099,0.018 -0.219,0.018 l -0.423,-0.057 q -0.048,0.012 -0.096,0.015 -0.048,0.006 -0.096,0.006 -0.06,0 -0.12,-0.006 -0.057,-0.006 -0.117,-0.015 -0.009,-0.045 -0.03,-0.084 -0.018,-0.042 -0.036,-0.084 -0.018,-0.042 -0.033,-0.084 -0.015,-0.045 -0.015,-0.09 0,-0.078 0.039,-0.111001 0.039,-0.036 0.099,-0.048 0.06,-0.015 0.126,-0.021 0.069,-0.009 0.129,-0.036 0.06,-0.027 0.099,-0.084 0.039,-0.057 0.039,-0.171001 0,-0.069 -0.012,-0.138001 -0.009,-0.069 -0.024,-0.138001 -0.012,-0.072 -0.024,-0.141001 -0.009,-0.069 -0.009,-0.138002 0,-0.051 0.009,-0.099 0.009,-0.051 0.009,-0.102001 0,-0.093 -0.015,-0.183002 -0.012,-0.093 -0.012,-0.186001 0,-0.108001 0.012,-0.213002 0.012,-0.108001 0.012,-0.216002 0,-0.102001 -0.021,-0.198001 -0.018,-0.099 -0.018,-0.204002 0,-0.057 0.003,-0.114001 0.003,-0.057 0.003,-0.114001 0,-0.066 -0.006,-0.126001 -0.006,-0.063 -0.024,-0.126001 -0.021,-0.075 -0.024,-0.147001 -0.003,-0.072 -0.018,-0.129001 -0.015,-0.06 -0.057,-0.102001 -0.042,-0.045 -0.141,-0.066 -0.033,-0.006 -0.051,-0.018 -0.015,-0.015 -0.03,-0.027 -0.015,-0.015 -0.039,-0.027 -0.021,-0.012 -0.066,-0.018 -0.132,-0.018 -0.132,-0.147002 0,-0.072 0.027,-0.126001 0.027,-0.057 0.069,-0.102 0.042,-0.045 0.093,-0.081 0.054,-0.039 0.105,-0.078 0.078,-0.06 0.147,-0.072 0.069,-0.015 0.147,-0.015 h 0.12901 q 0.087,0 0.171,-0.006 0.087,-0.009 0.174,-0.009 0.051,0 0.102,0.006 0.054,0.006 0.105,0.021 0.027,0.009 0.051,0.021 0.027,0.009 0.054,0.009 0.042,0 0.072,-0.024 0.03,-0.027 0.054,-0.027 0.006,0 0.006,0.006 0,0.006 -0.003,0.015 0,0.006 0,0.012 0,0.018 0.024,0.018 0.015,0 0.021,-0.018 0.009,-0.018 0.036,-0.024 0.021,0.009 0.033,0.021 0.012,0.009 0.021,0.018 0.012,0.009 0.027,0.015 0.018,0.006 0.045,0.006 0.063,0 0.126,-0.009 0.063,-0.012 0.12601,-0.012 0.081,0 0.15,0.027 0.069,0.027 0.129,0.069 0.063,0.039 0.12,0.09 0.057,0.051 0.114,0.099 0.042,0.036 0.084,0.057 0.045,0.018 0.084,0.039 0.039,0.018 0.075,0.048 0.036,0.027 0.063,0.084 0.03,0.063 0.069,0.123001 0.042,0.057 0.081,0.114001 0.042,0.054 0.081,0.114001 0.039,0.057 0.069,0.123001 0.075,0.171001 0.105,0.360003 0.033,0.186001 0.066,0.369003 0.015,0.078 0.033,0.159001 0.018,0.078 0.018,0.156002 0,0.042 -0.015,0.081 -0.015,0.039 -0.015,0.081 0,0.027 0.009,0.048 0.009,0.021 0.021,0.042 0.012,0.021 0.021,0.048 0.009,0.027 0.009,0.063 z m -0.50101,-0.201001 q 0,-0.117001 -0.033,-0.228002 -0.033,-0.111001 -0.102,-0.207002 0.033,-0.033 0.042,-0.078 0.009,-0.045 0.009,-0.087 0,-0.045 -0.006,-0.09 -0.003,-0.045 -0.003,-0.087 0,-0.024 -0.018,-0.042 -0.015,-0.018 -0.036,-0.033 -0.018,-0.018 -0.039,-0.033 -0.021,-0.018 -0.03,-0.042 -0.012,-0.03 -0.018,-0.051 -0.003,-0.024 -0.006,-0.045 -0.003,-0.021 -0.012,-0.045 -0.009,-0.024 -0.03,-0.057 -0.015,-0.024 -0.024,-0.045 -0.009,-0.024 -0.009,-0.057 0,-0.03 0.009,-0.063 -0.012,-0.024 -0.039,-0.039 -0.027,-0.018 -0.06,-0.027 -0.036,-0.012 -0.081,-0.018 -0.045,0 -0.096,-0.027 -0.048,-0.027 -0.102,-0.06 -0.054,-0.033 -0.111,-0.06 -0.054,-0.027 -0.111,-0.027 -0.087,0 -0.17101,0.015 -0.084,0.015 -0.171,0.027 -0.066,0.009 -0.144,0.012 -0.078,0 -0.147,0.015 -0.066,0.015 -0.111,0.057 -0.045,0.039 -0.045,0.126001 0,0.105001 0.012,0.213002 0.015,0.108001 0.015,0.222002 0,0.237002 -0.021,0.474004 -0.018,0.234002 -0.018,0.474004 0,0.111 0.012,0.222001 0.012,0.108001 0.012,0.222002 0,0.147001 -0.024,0.291003 -0.021,0.144001 -0.021,0.291002 0,0.06 0,0.129001 0,0.069 0.012,0.132001 0.012,0.063 0.045,0.114001 0.033,0.051 0.099,0.075 0.093,0.033 0.183,0.066 0.093,0.03 0.195,0.03 0.06,0 0.117,-0.027 0.057,-0.03 0.11701,-0.048 0.039,-0.012 0.087,-0.021 0.051,-0.012 0.099,-0.024 0.048,-0.015 0.09,-0.036 0.045,-0.024 0.075,-0.057 0.045,-0.051 0.087,-0.09 0.042,-0.039 0.117,-0.054 0.036,-0.006 0.045,-0.024 0.012,-0.021 0.015,-0.045 0.006,-0.027 0.015,-0.054 0.009,-0.03 0.039,-0.051 0.048,-0.036 0.072,-0.084 0.027,-0.048 0.039,-0.102 0.012,-0.054 0.018,-0.108001 0.009,-0.057 0.024,-0.111001 0.033,-0.120001 0.075,-0.243002 0.045,-0.123001 0.045,-0.249002 0,-0.033 -0.015,-0.057 -0.015,-0.027 -0.015,-0.06 0,-0.018 0.006,-0.021 0.009,-0.006 0.018,-0.012 0.009,-0.009 0.015,-0.024 0.009,-0.015 0.009,-0.057 z"
           id="path294" /><path
           d="m 114.30415,76.079291 q 0,0.087 -0.03,0.180002 -0.027,0.09 -0.081,0.168001 -0.054,0.075 -0.132,0.126001 -0.075,0.048 -0.168,0.048 -0.063,0 -0.156,-0.018 -0.093,-0.021 -0.18001,-0.057 -0.084,-0.039 -0.147,-0.099 -0.06,-0.06 -0.06,-0.141001 0,-0.072 0.015,-0.147001 0.018,-0.078 0.021,-0.156001 0.03,-0.015 0.06,-0.054 0.03,-0.039 0.057,-0.078 0.03,-0.042 0.057,-0.075 0.03,-0.033 0.06,-0.036 l -0.015,0.006 q 0.042,-0.018 0.087,-0.03 0.048,-0.012 0.096,-0.012 0.063,0 0.15,0.033 0.09,0.03 0.171,0.081 0.081,0.051 0.138,0.120001 0.057,0.069 0.057,0.141001 z m 1.45201,3.65103 q 0,0.051 -0.021,0.096 -0.018,0.045 -0.054,0.078 -0.033,0.036 -0.078,0.057 -0.045,0.021 -0.099,0.021 -0.021,0 -0.027,-0.006 -0.006,-0.006 -0.021,-0.021 -0.042,-0.045 -0.102,-0.054 -0.06,-0.006 -0.126,-0.015 -0.063,-0.006 -0.123,-0.033 -0.057,-0.024 -0.093,-0.102001 -0.024,-0.051 -0.051,-0.066 -0.027,-0.015 -0.084,-0.015 -0.13201,0 -0.25201,0.042 -0.12,0.042 -0.237,0.096 -0.117,0.051 -0.24,0.093 -0.12,0.042 -0.249,0.042 -0.072,0 -0.144,-0.015 -0.069,-0.012 -0.13501,-0.042 -0.015,0.015 -0.036,0.021 -0.018,0.006 -0.042,0.006 -0.021,0 -0.042,-0.003 -0.018,-0.003 -0.033,-0.003 -0.003,0 -0.033,0.009 -0.03,0.012 -0.036,0.015 l 0.018,0.03 q -0.018,0.027 -0.081,0.051 -0.063,0.027 -0.138,0.045 -0.072,0.018 -0.141,0.03 -0.069,0.012 -0.105,0.012 -0.096,0 -0.159,-0.033 -0.06,-0.03 -0.12,-0.108001 -0.021,-0.03 -0.054,-0.06 -0.03,-0.03 -0.06,-0.06 -0.027,-0.033 -0.048,-0.069 -0.018,-0.036 -0.018,-0.075 0,-0.045 0.048,-0.075 0.048,-0.03 0.114,-0.048 0.066,-0.021 0.132,-0.027 0.066,-0.009 0.102,-0.009 0.072,0 0.144,0.021 0.072,0.018 0.144,0.018 0.066,0 0.126,-0.018 0.06,-0.018 0.126,-0.018 0.057,0 0.111,0.009 0.057,0.006 0.11401,0.006 0.072,0 0.138,-0.024 0.069,-0.027 0.129,-0.069 0.024,-0.147001 0.033,-0.294002 0.012,-0.147002 0.012,-0.297003 0,-0.147001 -0.024,-0.294002 -0.024,-0.147001 -0.024,-0.291003 0,-0.012 0.006,-0.012 0.006,-0.003 0.012,-0.003 0.009,-0.003 0.015,-0.006 0.006,-0.006 0.006,-0.024 0,-0.063 -0.018,-0.123001 -0.018,-0.06 -0.018,-0.123001 0,-0.078 0.021,-0.153001 0.021,-0.075 0.021,-0.153001 0,-0.054 -0.024,-0.108001 -0.024,-0.054 -0.063,-0.096 -0.039,-0.042 -0.09,-0.066 -0.051,-0.027 -0.108,-0.027 -0.063,0 -0.12601,0.015 -0.06,0.015 -0.126,0.036 -0.066,0.018 -0.135,0.033 -0.066,0.015 -0.141,0.015 -0.087,0 -0.171,-0.012 -0.084,-0.012 -0.171,-0.027 -0.042,-0.006 -0.096,-0.012 -0.051,-0.006 -0.099,-0.021 -0.048,-0.015 -0.081,-0.045 -0.033,-0.03 -0.033,-0.087 0,-0.105001 0.036,-0.159001 0.039,-0.057 0.093,-0.084 0.057,-0.027 0.126,-0.033 0.069,-0.006 0.132,-0.012 0.114,-0.009 0.225,-0.015 0.114,-0.009 0.228,-0.009 0.141,0 0.276,0.018 0.13801,0.015 0.27901,0.015 0.099,0 0.189,0.03 0.09,0.03 0.156,0.093 0.069,0.06 0.108,0.153001 0.039,0.093 0.039,0.216002 0,0.081 -0.036,0.159001 -0.033,0.075 -0.087,0.135001 0.021,0.039 0.042,0.054 0.021,0.012 0.039,0.024 0.018,0.009 0.03,0.027 0.012,0.015 0.012,0.06 0,0.024 0.006,0.057 0.009,0.03 0.042,0.033 0,0.162001 -0.003,0.321002 -0.003,0.156001 -0.003,0.315003 0,0.135001 0,0.270002 0.003,0.135001 0.024,0.270002 0.012,0.084 0.048,0.129001 0.036,0.045 0.129,0.045 0.135,0 0.26701,-0.027 0.132,-0.03 0.267,-0.03 0.078,0 0.147,0.039 0.072,0.039 0.135,0.084 0.066,0.045 0.126,0.084 0.06,0.039 0.114,0.039 0.024,0 0.039,0.018 0.015,0.015 0.021,0.039 0.009,0.021 0.009,0.045 0.003,0.024 0.003,0.042 z"
           id="path296" /><path
           d="m 120.8652,79.688321 q 0,0.105001 -0.072,0.165001 -0.069,0.063 -0.168,0.093 -0.099,0.033 -0.207,0.042 -0.105,0.009 -0.18,0.009 -0.099,0 -0.165,-0.018 -0.063,-0.018 -0.111,-0.039 -0.048,-0.018 -0.084,-0.036 -0.036,-0.018 -0.075,-0.018 -0.051,0 -0.102,0.018 -0.048,0.018 -0.099,0.018 -0.036,0 -0.06,-0.012 -0.021,-0.012 -0.036,-0.03 -0.015,-0.015 -0.03,-0.027 -0.012,-0.012 -0.03,-0.012 -0.021,0 -0.033,0.015 -0.012,0.018 -0.027,0.039 -0.015,0.021 -0.045,0.036 -0.027,0.018 -0.081,0.018 -0.063,0 -0.123,-0.015 -0.06,-0.012 -0.123,-0.012 -0.063,0 -0.126,0.021 -0.06,0.024 -0.114,0.024 -0.024,0 -0.036,-0.018 -0.012,-0.015 -0.027,-0.015 -0.051,0 -0.108,0.024 -0.054,0.024 -0.111,0.024 -0.03,0 -0.06,-0.009 -0.027,-0.006 -0.057,-0.006 -0.051,0 -0.102,0.024 -0.051,0.024 -0.126,0.024 -0.027,0 -0.12,-0.009 -0.09,-0.006 -0.186,-0.021 -0.096,-0.015 -0.174,-0.039 -0.075,-0.021 -0.075,-0.048 0,-0.078 0.027,-0.156002 0.03,-0.078 0.03,-0.150001 v -0.006 q -0.039,0 -0.045,-0.042 0.006,-0.012 0.018,-0.018 0.015,-0.009 0.03,-0.012 0.015,-0.006 0.027,-0.015 0.012,-0.009 0.012,-0.027 v -0.012 q 0.12,0.012 0.234,0.015 0.117,0.003 0.243,0.003 0.117,0 0.258,-0.006 0.14401,-0.009 0.26401,-0.045 0.123,-0.036 0.204,-0.108001 0.084,-0.075 0.084,-0.207002 v -0.021 -0.048 q -0.015,-0.330003 -0.033,-0.648006 -0.015,-0.321002 -0.015,-0.651005 0,-0.087 -0.015,-0.168001 -0.012,-0.084 -0.012,-0.168002 0,-0.105001 0.036,-0.210001 0.039,-0.105001 0.12,-0.177002 -0.003,-0.018 -0.015,-0.024 -0.012,-0.009 -0.03,-0.012 -0.018,-0.003 -0.036,-0.006 -0.015,-0.003 -0.027,-0.009 -0.018,-0.009 -0.024,-0.042 -0.006,-0.033 -0.012,-0.072 -0.003,-0.039 -0.009,-0.075 -0.003,-0.039 -0.018,-0.06 0.009,-0.087 0.03,-0.171002 0.021,-0.084 0.021,-0.171001 0,-0.063 -0.018,-0.099 -0.015,-0.036 -0.036,-0.06 -0.021,-0.024 -0.039,-0.042 -0.015,-0.021 -0.015,-0.051 0,-0.024 0.015,-0.045 l -0.024,-0.003 q -0.03,0 -0.045,0.015 -0.015,0.015 -0.03,0.033 -0.012,0.018 -0.027,0.033 -0.015,0.015 -0.042,0.015 -0.021,0 -0.048,-0.009 -0.051,0.015 -0.096,0.015 -0.10501,0 -0.21001,-0.027 -0.102,-0.03 -0.207,-0.03 -0.057,0 -0.111,0.006 -0.054,0.003 -0.108,0.003 -0.078,0 -0.156,-0.018 -0.078,-0.018 -0.138,-0.078 v -0.036 q 0,-0.159001 0.105,-0.240002 0.108,-0.081 0.261,-0.081 0.105,0 0.207,0.027 0.102,0.027 0.207,0.027 0.057,0 0.12001,-0.012 0.063,-0.012 0.129,-0.027 0.066,-0.015 0.132,-0.027 0.069,-0.012 0.135,-0.012 0.102,0 0.192,0.045 0.09,0.042 0.18,0.081 l -0.003,0.024 q 0,0.027 0.012,0.051 0.015,0.021 0.033,0.045 0.018,0.021 0.03,0.045 0.015,0.021 0.015,0.048 0,0.027 -0.009,0.054 -0.006,0.024 -0.006,0.051 0,0.066 0.024,0.126001 0.027,0.06 0.027,0.129001 0,0.072 -0.018,0.141001 -0.015,0.069 -0.015,0.141001 0,0.087 0.021,0.174001 0.021,0.087 0.021,0.174002 0,0.072 -0.024,0.141001 -0.021,0.069 -0.021,0.138001 0,0.051 0.012,0.102001 0.015,0.048 0.033,0.096 0.018,0.048 0.03,0.099 0.015,0.048 0.015,0.102 v 0.06 q 0,0.048 -0.009,0.093 -0.006,0.042 -0.039,0.081 0.015,0.057 0.03,0.123001 0.018,0.066 0.018,0.126001 0,0.03 -0.006,0.066 -0.003,0.033 -0.015,0.069 -0.009,0.033 -0.027,0.063 -0.018,0.027 -0.042,0.045 0.039,0.114001 0.051,0.231002 0.012,0.117001 0.018,0.234002 0.003,0.036 0.012,0.093 0.009,0.057 0.018,0.114001 0.009,0.054 0.015,0.102001 0.009,0.045 0.009,0.063 0,0.051 -0.018,0.099 -0.018,0.048 -0.018,0.099 0,0.039 0.018,0.084 0.018,0.042 0.066,0.042 0.036,0 0.06,-0.015 0.027,-0.018 0.057,-0.036 0.03,-0.021 0.069,-0.036 0.042,-0.018 0.111,-0.018 0.078,0 0.147,0.021 0.069,0.021 0.147,0.021 0.057,0 0.114,-0.009 0.06,-0.012 0.114,-0.024 0.057,-0.015 0.114,-0.027 0.057,-0.012 0.117,-0.012 0.12,0 0.201,0.069 0.084,0.069 0.084,0.204002 z m -1.72201,-3.735031 q -0.012,-0.012 -0.03,-0.024 -0.015,-0.012 -0.036,-0.012 -0.015,0 -0.027,0.015 -0.009,0.012 -0.009,0.027 l 0.015,0.036 q 0.012,0.006 0.018,0.006 0.024,0 0.039,-0.015 0.018,-0.018 0.03,-0.033 z m 0.18,0.834007 q 0,-0.024 -0.015,-0.048 -0.012,-0.027 -0.042,-0.027 -0.009,0 -0.021,0.003 -0.009,0.003 -0.015,0.006 v 0.129001 q 0.024,0.012 0.036,0.012 0.03,0 0.042,-0.024 0.015,-0.027 0.015,-0.051 z"
           id="path298" /><path
           d="m 126.51425,79.655321 q 0,0.054 -0.036,0.114001 -0.033,0.06 -0.087,0.108 -0.051,0.051 -0.111,0.084 -0.06,0.033 -0.114,0.033 -0.093,0 -0.183,-0.015 -0.09,-0.015 -0.186,-0.015 -0.045,0 -0.10501,-0.006 -0.057,-0.006 -0.081,-0.03 -0.069,-0.012 -0.102,-0.054 -0.033,-0.039 -0.06,-0.087 -0.024,-0.048 -0.054,-0.093 -0.027,-0.045 -0.084,-0.063 -0.171,0.075 -0.303,0.144002 -0.129,0.069 -0.258,0.120001 -0.126,0.054 -0.27301,0.084 -0.144,0.033 -0.345,0.033 -0.087,0 -0.126,-0.009 -0.036,-0.009 -0.057,-0.03 -0.018,-0.018 -0.036,-0.051 -0.015,-0.033 -0.06,-0.081 -0.024,-0.024 -0.048,-0.027 -0.021,-0.006 -0.042,-0.006 h -0.015 q -0.027,0 -0.051,-0.009 -0.021,-0.012 -0.033,-0.06 -0.009,-0.036 -0.036,-0.081 -0.027,-0.048 -0.063,-0.096 -0.033,-0.048 -0.069,-0.087 -0.036,-0.039 -0.066,-0.06 l -0.003,-0.297003 q -0.003,-0.300002 0.018,-0.594005 0.021,-0.294002 0.021,-0.594004 0,-0.045 -0.003,-0.123001 -0.003,-0.081 -0.015,-0.162002 -0.009,-0.081 -0.036,-0.144001 -0.024,-0.066 -0.069,-0.078 -0.069,-0.015 -0.14101,-0.012 -0.069,0 -0.138,-0.003 -0.069,-0.003 -0.135,-0.021 -0.063,-0.018 -0.12,-0.078 -0.033,-0.033 -0.063,-0.081 -0.027,-0.048 -0.027,-0.099 0,-0.075 0.063,-0.126001 0.066,-0.054 0.156,-0.087 0.09,-0.033 0.183,-0.048 0.093,-0.015 0.15,-0.015 0.16501,0 0.31201,0.051 0.15,0.048 0.273,0.159002 0.006,0.006 0.006,0.012 0,0.003 -0.003,0.006 0.006,0.087 0.024,0.174001 0.018,0.084 0.018,0.171001 0,0.048 -0.015,0.09 -0.012,0.042 -0.012,0.093 0,0.051 0.012,0.102001 0.012,0.051 0.012,0.102001 0,0.033 -0.006,0.066 -0.006,0.033 -0.006,0.066 0,0.093 0.021,0.183001 0.021,0.087 0.021,0.180002 0,0.081 -0.018,0.159001 -0.018,0.075 -0.042,0.153001 -0.021,0.078 -0.039,0.156001 -0.018,0.075 -0.018,0.156002 0,0.111001 0.045,0.207001 0.045,0.096 0.12,0.168002 0.075,0.069 0.171,0.111001 0.099,0.039 0.207,0.039 0.093,0 0.15,-0.018 0.06,-0.021 0.096,-0.045 0.036,-0.024 0.057,-0.042 0.024,-0.021 0.048,-0.021 0.024,0 0.042,0.006 0.021,0.003 0.042,0.003 0.042,0 0.069,-0.018 0.027,-0.018 0.048,-0.042 0.024,-0.024 0.045,-0.045 0.024,-0.024 0.06,-0.033 0.069,-0.015 0.12,-0.039 0.051,-0.027 0.051,-0.108001 0,-0.015 0.003,-0.027 0.006,-0.012 0.03,-0.012 0.015,0 0.021,0.009 0.009,0.006 0.024,0.012 0.015,-0.012 0.021,-0.033 0.006,-0.021 0.012,-0.036 0.015,-0.054 0.054,-0.096 0.042,-0.042 0.048,-0.096 0.006,-0.06 0.03,-0.111 0.024,-0.051 0.024,-0.108001 0,-0.051 -0.027,-0.09 -0.027,-0.039 -0.027,-0.093 0,-0.06 0.021,-0.120001 0.024,-0.06 0.024,-0.120001 -0.018,-0.024 -0.036,-0.054 -0.015,-0.03 -0.015,-0.06 0,-0.051 0.018,-0.066 0.018,-0.018 0.018,-0.036 0,-0.027 -0.015,-0.054 -0.012,-0.03 -0.03,-0.057 -0.018,-0.027 -0.033,-0.054 -0.012,-0.027 -0.012,-0.057 0,-0.03 0.009,-0.057 0.012,-0.03 0.012,-0.063 0,-0.048 -0.024,-0.084 -0.021,-0.039 -0.057,-0.063 -0.033,-0.027 -0.078,-0.039 -0.042,-0.015 -0.084,-0.021 -0.075,-0.009 -0.129,-0.009 -0.054,0 -0.096,-0.012 -0.039,-0.015 -0.075,-0.051 -0.033,-0.036 -0.069,-0.117001 -0.021,-0.048 -0.021,-0.081 0,-0.072 0.063,-0.114001 0.066,-0.045 0.153,-0.066 0.087,-0.024 0.174,-0.03 0.09,-0.009 0.141,-0.009 0.048,0 0.093,0.009 0.048,0.006 0.096,0.006 0.051,0 0.099,-0.018 0.051,-0.021 0.102,-0.021 0.072,0 0.11701,0.042 0.045,0.039 0.069,0.105001 0.027,0.063 0.036,0.147001 0.009,0.081 0.009,0.165002 0,0.111 -0.009,0.210001 -0.006,0.099 -0.006,0.159002 0,0.129001 0.024,0.243002 0.027,0.111 0.027,0.207001 0,0.03 -0.015,0.06 -0.012,0.03 -0.027,0.06 -0.015,0.03 -0.03,0.06 -0.012,0.03 -0.012,0.06 0,0.024 0.009,0.042 l 0.021,0.174001 q -0.015,0.012 -0.018,0.03 -0.003,0.018 -0.003,0.033 0,0.048 0.009,0.096 0.012,0.045 0.012,0.096 0,0.057 -0.012,0.114001 -0.012,0.054 -0.012,0.111001 0,0.138001 0.093,0.213002 0.096,0.072 0.225,0.072 0.072,0 0.144,-0.024 0.021,0.045 0.057,0.081 0.039,0.033 0.075,0.066 0.036,0.033 0.06,0.075 0.027,0.042 0.027,0.102001 z"
           id="path300" /><path
           d="m 131.40429,78.779314 q 0,0.096 -0.021,0.183001 -0.021,0.084 -0.048,0.168001 -0.027,0.081 -0.057,0.168002 -0.027,0.084 -0.042,0.174001 -0.027,0.150001 -0.108,0.249002 -0.081,0.099 -0.195,0.156001 -0.114,0.06 -0.255,0.087 -0.13801,0.03 -0.28501,0.045 -0.147,0.015 -0.291,0.021 -0.141,0.006 -0.261,0.021 -0.045,-0.033 -0.075,-0.072 -0.03,-0.039 -0.057,-0.075 -0.027,-0.033 -0.06,-0.057 -0.033,-0.021 -0.087,-0.021 -0.018,0 -0.03,-0.048 -0.009,-0.051 -0.018,-0.111001 -0.009,-0.063 -0.021,-0.111001 -0.009,-0.051 -0.027,-0.051 -0.069,0 -0.11101,-0.03 -0.039,-0.03 -0.063,-0.075 -0.021,-0.048 -0.03,-0.105001 -0.006,-0.057 -0.006,-0.111001 0,-0.042 -0.018,-0.078 -0.018,-0.036 -0.039,-0.069 -0.021,-0.036 -0.039,-0.072 -0.018,-0.036 -0.018,-0.075 0,-0.045 0.003,-0.111 0.006,-0.069 0.009,-0.141002 0.006,-0.072 0.009,-0.141001 0.006,-0.069 0.006,-0.114001 0,-0.054 0.012,-0.09 0.015,-0.036 0.033,-0.063 0.018,-0.027 0.03,-0.048 0.015,-0.021 0.015,-0.048 0,-0.036 -0.018,-0.06 -0.015,-0.024 -0.015,-0.048 0,-0.033 0.021,-0.063 0.021,-0.033 0.03,-0.066 0.033,-0.132001 0.033,-0.261002 0,-0.027 -0.003,-0.051 0,-0.027 -0.003,-0.051 -0.069,-0.057 -0.153,-0.072 -0.084,-0.018 -0.168,-0.024 -0.084,-0.009 -0.162,-0.021 -0.078,-0.012 -0.132,-0.063 -0.045,-0.042 -0.081,-0.093 -0.036,-0.054 -0.096,-0.072 -0.042,-0.015 -0.072,-0.039 -0.027,-0.027 -0.027,-0.075 0,-0.072 0.042,-0.108001 0.045,-0.039 0.105,-0.06 0.06,-0.024 0.123,-0.039 0.066,-0.018 0.111,-0.051 0.045,-0.033 0.108,-0.033 0.027,0 0.051,0.003 0.027,0 0.054,0 0.075,0 0.123,-0.024 0.051,-0.027 0.078,-0.069 0.03,-0.045 0.039,-0.102001 0.012,-0.057 0.012,-0.123001 0,-0.096 -0.012,-0.186002 -0.012,-0.09 -0.012,-0.186001 0,-0.111001 0.03,-0.204002 0.03,-0.093 0.114,-0.171001 0.018,-0.015 0.039,-0.039 0.021,-0.024 0.045,-0.045 0.024,-0.024 0.048,-0.039 0.027,-0.015 0.054,-0.015 0.018,0 0.03,0.009 0.015,0.006 0.03,0.018 0.066,0.066 0.084,0.099 0.021,0.03 0.021,0.072 0,0.024 -0.003,0.054 0,0.027 0,0.072 0,0.096 0.024,0.189002 0.024,0.093 0.024,0.159001 0,0.057 -0.024,0.111001 -0.021,0.051 -0.021,0.108001 0,0.042 0.018,0.078 0.021,0.033 0.045,0.066 0.027,0.033 0.048,0.069 0.021,0.033 0.021,0.078 0.03,0.021 0.135,0.039 0.105,0.015 0.234,0.027 0.129,0.009 0.261,0.015 0.132,0.006 0.21901,0.006 0.078,0 0.12,0.012 0.042,0.012 0.069,0.027 0.03,0.012 0.054,0.027 0.024,0.015 0.063,0.018 0.048,0.006 0.081,0.027 0.036,0.018 0.036,0.075 0,0.072 -0.039,0.114001 -0.036,0.042 -0.093,0.063 -0.054,0.021 -0.117,0.027 -0.063,0.003 -0.117,0.003 -0.087,0 -0.17401,-0.006 -0.087,-0.006 -0.174,-0.006 -0.144,0 -0.261,0.027 -0.117,0.027 -0.204,0.09 -0.084,0.063 -0.132,0.168001 -0.045,0.102001 -0.045,0.258002 0,0.153002 0.018,0.300003 0.021,0.147001 0.021,0.300002 0,0.144001 0.003,0.231002 0.006,0.087 0.036,0.147001 0.039,0.087 0.063,0.198002 0.024,0.111001 0.06,0.210002 0.039,0.099 0.105,0.168001 0.069,0.066 0.201,0.066 0.045,0 0.12,-0.012 0.075,-0.012 0.15,-0.036 0.075,-0.027 0.12901,-0.066 0.054,-0.042 0.054,-0.102001 0,-0.051 -0.03,-0.102001 -0.03,-0.054 -0.03,-0.114001 0,-0.042 0.018,-0.072 0.021,-0.033 0.051,-0.057 0.033,-0.027 0.066,-0.045 0.036,-0.021 0.069,-0.036 0.054,-0.069 0.129,-0.114001 0.078,-0.048 0.165,-0.048 0.06,0 0.114,0.021 0.057,0.021 0.105,0.054 0.009,0.054 0.009,0.111001 z"
           id="path302" /><path
           d="m 136.42033,79.217317 q 0,0.081 -0.027,0.138001 -0.024,0.057 -0.066,0.102001 -0.039,0.045 -0.093,0.084 -0.051,0.039 -0.105,0.084 -0.042,0.036 -0.075,0.054 -0.033,0.018 -0.066,0.03 -0.03,0.012 -0.066,0.024 -0.033,0.012 -0.078,0.033 -0.06,0.03 -0.102,0.057 -0.039,0.024 -0.081,0.045 -0.039,0.021 -0.087,0.033 -0.048,0.015 -0.12,0.024 -0.12,0.015 -0.243,0.036 -0.12,0.021 -0.24,0.021 -0.024,0 -0.051,-0.012 -0.024,-0.009 -0.057,-0.021 -0.033,-0.009 -0.075,-0.021 -0.039,-0.009 -0.096,-0.009 -0.06,0 -0.096,-0.018 -0.036,-0.018 -0.066,-0.042 -0.027,-0.024 -0.057,-0.051 -0.03,-0.03 -0.078,-0.051 -0.18,-0.081 -0.306,-0.195001 -0.126,-0.114001 -0.216,-0.255002 -0.09,-0.141001 -0.15,-0.306003 -0.06,-0.165001 -0.102,-0.345002 -0.033,-0.126002 -0.033,-0.252003 0,-0.165001 0.078,-0.306002 -0.03,-0.084 -0.03,-0.162001 0,-0.057 0.033,-0.168002 0.033,-0.114001 0.084,-0.228002 0.054,-0.114001 0.114,-0.204001 0.063,-0.093 0.117,-0.114001 0.042,-0.015 0.057,-0.024 0.018,-0.012 0.018,-0.06 0,-0.036 0.027,-0.06 0.03,-0.024 0.069,-0.039 0.042,-0.015 0.081,-0.027 0.042,-0.012 0.069,-0.024 0.111,-0.054 0.21001,-0.09 0.102,-0.039 0.201,-0.063 0.102,-0.027 0.21,-0.039 0.108,-0.012 0.231,-0.012 0.066,0 0.129,0.018 0.063,0.018 0.12,0.048 0.06,0.027 0.117,0.063 0.057,0.033 0.111,0.066 h -0.003 q 0.045,0.006 0.084,0.027 0.042,0.018 0.087,0.024 0.042,0.051 0.108,0.099 0.069,0.045 0.132,0.096 0.066,0.051 0.111,0.111001 0.048,0.057 0.048,0.132001 0,0.012 -0.003,0.024 0,0.012 -0.003,0.027 l 0.012,-0.015 q 0.012,0.009 0.021,0.03 0.012,0.021 0.021,0.048 0.009,0.024 0.015,0.051 0.006,0.024 0.009,0.039 0.024,0.039 0.063,0.063 0.042,0.024 0.066,0.066 -0.03,0.03 -0.03,0.078 0,0.051 0.021,0.102001 0.021,0.048 0.021,0.099 0,0.06 -0.006,0.117001 -0.006,0.054 -0.006,0.114001 0,0.045 -0.036,0.069 -0.033,0.024 -0.075,0.042 -0.039,0.018 -0.072,0.036 -0.033,0.018 -0.033,0.051 0,0.024 -0.03,0.024 -0.027,-0.003 -0.045,-0.003 -0.132,0 -0.264,-0.033 -0.129,-0.033 -0.25801,-0.033 -0.141,0 -0.279,0.021 -0.138,0.018 -0.279,0.018 -0.105,0 -0.21,-0.006 -0.102,-0.006 -0.207,-0.006 -0.027,0 -0.102,0.012 -0.075,0.009 -0.15901,0.027 -0.081,0.015 -0.156,0.039 -0.075,0.021 -0.105,0.042 -0.003,0.015 -0.003,0.042 0,0.141002 0.081,0.291003 0.084,0.150001 0.219,0.273002 0.13501,0.123001 0.30301,0.204002 0.168,0.081 0.339,0.081 0.099,0 0.195,0.009 0.099,0.006 0.192,0.042 0.081,-0.039 0.147,-0.09 0.069,-0.051 0.13201,-0.108001 0.063,-0.057 0.123,-0.117001 0.06,-0.06 0.123,-0.120001 0.012,-0.012 0.057,-0.021 0.048,-0.012 0.102,-0.018 0.054,-0.009 0.102,-0.012 0.051,-0.006 0.069,-0.006 0.069,0 0.129,0.021 0.018,0.069 0.018,0.135001 z m -0.45,-1.21801 q 0,-0.045 -0.015,-0.087 -0.015,-0.042 -0.024,-0.087 -0.015,-0.084 -0.015,-0.162002 0,-0.081 -0.024,-0.162001 h -0.003 q 0,0.018 -0.012,0.036 -0.012,0.015 -0.033,0.015 -0.036,0 -0.069,-0.018 -0.033,-0.018 -0.057,-0.045 -0.11401,-0.051 -0.20701,-0.096 -0.09,-0.045 -0.183,-0.078 -0.09,-0.036 -0.195,-0.054 -0.102,-0.021 -0.237,-0.021 -0.012,0 -0.024,0.003 -0.009,0 -0.018,0.009 l 0.015,0.033 -0.024,0.006 q -0.081,0.015 -0.135,0.03 -0.051,0.012 -0.093,0.036 -0.042,0.024 -0.084,0.06 -0.039,0.033 -0.102,0.087 -0.03,0.027 -0.066,0.042 -0.033,0.012 -0.069,0.024 -0.033,0.009 -0.066,0.021 -0.03,0.012 -0.051,0.039 -0.021,0.075 -0.063,0.147001 -0.039,0.069 -0.039,0.147002 0,0.045 0.036,0.081 0.039,0.033 0.096,0.057 0.06,0.024 0.129,0.042 0.072,0.018 0.14101,0.027 0.069,0.009 0.126,0.015 0.06,0.003 0.093,0.003 0.114,0 0.225,-0.021 0.111,-0.024 0.225,-0.024 0.117,0 0.234,0.012 0.117,0.009 0.234,0.009 0.03,0 0.09,-0.003 0.06,-0.003 0.117,-0.015 0.06,-0.015 0.102,-0.039 0.045,-0.027 0.045,-0.069 z"
           id="path304" /></g><g
         aria-label="D i l u t e"
         transform="rotate(-4.9525519)"
         id="text1877-2"
         style="font-size:6.14405px;font-family:'Special Elite';-inkscape-font-specification:'Special Elite, Normal';fill:#ee1c25;fill-opacity:0.349824;stroke-width:0.115201"><path
           d="m 110.48832,77.711762 q 0,0.09 -0.018,0.210002 -0.018,0.117001 -0.051,0.249002 -0.03,0.129001 -0.072,0.267002 -0.039,0.138001 -0.084,0.267002 -0.045,0.126001 -0.093,0.237002 -0.045,0.108001 -0.087,0.183001 -0.018,0.03 -0.057,0.063 -0.036,0.03 -0.075,0.066 -0.039,0.033 -0.069,0.066 -0.03,0.033 -0.03,0.063 -0.024,0.003 -0.075,0.015 -0.051,0.009 -0.108,0.027 -0.054,0.015 -0.102,0.036 -0.045,0.018 -0.054,0.036 -0.033,0.063 -0.042,0.084 -0.006,0.021 -0.015,0.027 -0.009,0.003 -0.036,0.003 -0.024,-0.003 -0.096,0.012 -0.027,0.006 -0.069,0.018 -0.039,0.012 -0.084,0.024 -0.042,0.012 -0.081,0.018 -0.039,0.009 -0.063,0.009 -0.066,0 -0.12901,-0.021 -0.06,-0.021 -0.126,-0.021 -0.042,0 -0.075,0.012 -0.111,0.042 -0.213,0.06 -0.099,0.018 -0.219,0.018 l -0.423,-0.057 q -0.048,0.012 -0.096,0.015 -0.048,0.006 -0.096,0.006 -0.06,0 -0.12,-0.006 -0.057,-0.006 -0.117,-0.015 -0.009,-0.045 -0.03,-0.084 -0.018,-0.042 -0.036,-0.084 -0.018,-0.042 -0.033,-0.084 -0.015,-0.045 -0.015,-0.09 0,-0.078 0.039,-0.111001 0.039,-0.036 0.099,-0.048 0.06,-0.015 0.126,-0.021 0.069,-0.009 0.129,-0.036 0.06,-0.027 0.099,-0.084 0.039,-0.057 0.039,-0.171002 0,-0.069 -0.012,-0.138001 -0.009,-0.069 -0.024,-0.138001 -0.012,-0.072 -0.024,-0.141001 -0.009,-0.069 -0.009,-0.138001 0,-0.051 0.009,-0.099 0.009,-0.051 0.009,-0.102001 0,-0.093 -0.015,-0.183001 -0.012,-0.093 -0.012,-0.186002 0,-0.108001 0.012,-0.213002 0.012,-0.108 0.012,-0.216001 0,-0.102001 -0.021,-0.198002 -0.018,-0.099 -0.018,-0.204002 0,-0.057 0.003,-0.114001 0.003,-0.057 0.003,-0.114001 0,-0.066 -0.006,-0.126001 -0.006,-0.063 -0.024,-0.126001 -0.021,-0.075 -0.024,-0.147001 -0.003,-0.072 -0.018,-0.129001 -0.015,-0.06 -0.057,-0.102001 -0.042,-0.045 -0.141,-0.066 -0.033,-0.006 -0.051,-0.018 -0.015,-0.015 -0.03,-0.027 -0.015,-0.015 -0.039,-0.027 -0.021,-0.012 -0.066,-0.018 -0.132,-0.018 -0.132,-0.147001 0,-0.072 0.027,-0.126001 0.027,-0.057 0.069,-0.102001 0.042,-0.045 0.093,-0.081 0.054,-0.039 0.105,-0.078 0.078,-0.06 0.147,-0.072 0.069,-0.015 0.14701,-0.015 h 0.129 q 0.087,0 0.171,-0.006 0.087,-0.009 0.174,-0.009 0.051,0 0.102,0.006 0.054,0.006 0.105,0.021 0.027,0.009 0.051,0.021 0.027,0.009 0.054,0.009 0.042,0 0.072,-0.024 0.03,-0.027 0.054,-0.027 0.006,0 0.006,0.006 0,0.006 -0.003,0.015 0,0.006 0,0.012 0,0.018 0.024,0.018 0.015,0 0.021,-0.018 0.009,-0.018 0.036,-0.024 0.021,0.009 0.033,0.021 0.012,0.009 0.021,0.018 0.012,0.009 0.027,0.015 0.018,0.006 0.045,0.006 0.063,0 0.12601,-0.009 0.063,-0.012 0.126,-0.012 0.081,0 0.15,0.027 0.069,0.027 0.129,0.069 0.063,0.039 0.12,0.09 0.057,0.051 0.114,0.099 0.042,0.036 0.084,0.057 0.045,0.018 0.084,0.039 0.039,0.018 0.075,0.048 0.036,0.027 0.063,0.084 0.03,0.063 0.069,0.123001 0.042,0.057 0.081,0.114 0.042,0.054 0.081,0.114001 0.039,0.057 0.069,0.123001 0.075,0.171002 0.105,0.360003 0.033,0.186002 0.066,0.369003 0.015,0.078 0.033,0.159002 0.018,0.078 0.018,0.156001 0,0.042 -0.015,0.081 -0.015,0.039 -0.015,0.081 0,0.027 0.009,0.048 0.009,0.021 0.021,0.042 0.012,0.021 0.021,0.048 0.009,0.027 0.009,0.063 z m -0.50101,-0.201002 q 0,-0.117001 -0.033,-0.228002 -0.033,-0.111001 -0.102,-0.207001 0.033,-0.033 0.042,-0.078 0.009,-0.045 0.009,-0.087 0,-0.045 -0.006,-0.09 -0.003,-0.045 -0.003,-0.087 0,-0.024 -0.018,-0.042 -0.015,-0.018 -0.036,-0.033 -0.018,-0.018 -0.039,-0.033 -0.021,-0.018 -0.03,-0.042 -0.012,-0.03 -0.018,-0.051 -0.003,-0.024 -0.006,-0.045 -0.003,-0.021 -0.012,-0.045 -0.009,-0.024 -0.03,-0.057 -0.015,-0.024 -0.024,-0.045 -0.009,-0.024 -0.009,-0.057 0,-0.03 0.009,-0.063 -0.012,-0.024 -0.039,-0.039 -0.027,-0.018 -0.06,-0.027 -0.036,-0.012 -0.081,-0.018 -0.045,0 -0.096,-0.027 -0.048,-0.027 -0.102,-0.06 -0.054,-0.033 -0.111,-0.06 -0.054,-0.027 -0.111,-0.027 -0.087,0 -0.17101,0.015 -0.084,0.015 -0.171,0.027 -0.066,0.009 -0.144,0.012 -0.078,0 -0.147,0.015 -0.066,0.015 -0.111,0.057 -0.045,0.039 -0.045,0.126001 0,0.105 0.012,0.213001 0.015,0.108001 0.015,0.222002 0,0.237002 -0.021,0.474004 -0.018,0.234002 -0.018,0.474004 0,0.111001 0.012,0.222002 0.012,0.108001 0.012,0.222002 0,0.147001 -0.024,0.291002 -0.021,0.144001 -0.021,0.291002 0,0.06 0,0.129001 0,0.069 0.012,0.132001 0.012,0.063 0.045,0.114001 0.033,0.051 0.099,0.075 0.093,0.033 0.183,0.066 0.093,0.03 0.195,0.03 0.06,0 0.117,-0.027 0.057,-0.03 0.11701,-0.048 0.039,-0.012 0.087,-0.021 0.051,-0.012 0.099,-0.024 0.048,-0.015 0.09,-0.036 0.045,-0.024 0.075,-0.057 0.045,-0.051 0.087,-0.09 0.042,-0.039 0.117,-0.054 0.036,-0.006 0.045,-0.024 0.012,-0.021 0.015,-0.045 0.006,-0.027 0.015,-0.054 0.009,-0.03 0.039,-0.051 0.048,-0.036 0.072,-0.084 0.027,-0.048 0.039,-0.102001 0.012,-0.054 0.018,-0.108001 0.009,-0.057 0.024,-0.111001 0.033,-0.120001 0.075,-0.243002 0.045,-0.123001 0.045,-0.249002 0,-0.033 -0.015,-0.057 -0.015,-0.027 -0.015,-0.06 0,-0.018 0.006,-0.021 0.009,-0.006 0.018,-0.012 0.009,-0.009 0.015,-0.024 0.009,-0.015 0.009,-0.057 z"
           id="path307" /><path
           d="m 114.59235,75.875747 q 0,0.087 -0.03,0.180001 -0.027,0.09 -0.081,0.168002 -0.054,0.075 -0.132,0.126001 -0.075,0.048 -0.168,0.048 -0.063,0 -0.156,-0.018 -0.093,-0.021 -0.18001,-0.057 -0.084,-0.039 -0.147,-0.099 -0.06,-0.06 -0.06,-0.141001 0,-0.072 0.015,-0.147002 0.018,-0.078 0.021,-0.156001 0.03,-0.015 0.06,-0.054 0.03,-0.039 0.057,-0.078 0.03,-0.042 0.057,-0.075 0.03,-0.033 0.06,-0.036 l -0.015,0.006 q 0.042,-0.018 0.087,-0.03 0.048,-0.012 0.096,-0.012 0.063,0 0.15,0.033 0.09,0.03 0.171,0.081 0.081,0.051 0.138,0.120001 0.057,0.069 0.057,0.141001 z m 1.45201,3.65103 q 0,0.051 -0.021,0.096 -0.018,0.045 -0.054,0.078 -0.033,0.036 -0.078,0.057 -0.045,0.021 -0.099,0.021 -0.021,0 -0.027,-0.006 -0.006,-0.006 -0.021,-0.021 -0.042,-0.045 -0.102,-0.054 -0.06,-0.006 -0.126,-0.015 -0.063,-0.006 -0.123,-0.033 -0.057,-0.024 -0.093,-0.102001 -0.024,-0.051 -0.051,-0.066 -0.027,-0.015 -0.084,-0.015 -0.13201,0 -0.25201,0.042 -0.12,0.042 -0.237,0.096 -0.117,0.051 -0.24,0.093 -0.12,0.042 -0.249,0.042 -0.072,0 -0.144,-0.015 -0.069,-0.012 -0.135,-0.042 -0.015,0.015 -0.036,0.021 -0.018,0.006 -0.042,0.006 -0.021,0 -0.042,-0.003 -0.018,-0.003 -0.033,-0.003 -0.003,0 -0.033,0.009 -0.03,0.012 -0.036,0.015 l 0.018,0.03 q -0.018,0.027 -0.081,0.051 -0.063,0.027 -0.138,0.045 -0.072,0.018 -0.141,0.03 -0.069,0.012 -0.105,0.012 -0.096,0 -0.159,-0.033 -0.06,-0.03 -0.12,-0.108 -0.021,-0.03 -0.054,-0.06 -0.03,-0.03 -0.06,-0.06 -0.027,-0.033 -0.048,-0.069 -0.018,-0.036 -0.018,-0.075 0,-0.045 0.048,-0.075 0.048,-0.03 0.114,-0.048 0.066,-0.021 0.132,-0.027 0.066,-0.009 0.102,-0.009 0.072,0 0.144,0.021 0.072,0.018 0.144,0.018 0.066,0 0.126,-0.018 0.06,-0.018 0.126,-0.018 0.057,0 0.111,0.009 0.057,0.006 0.11401,0.006 0.072,0 0.138,-0.024 0.069,-0.027 0.129,-0.069 0.024,-0.147001 0.033,-0.294002 0.012,-0.147001 0.012,-0.297002 0,-0.147002 -0.024,-0.294003 -0.024,-0.147001 -0.024,-0.291002 0,-0.012 0.006,-0.012 0.006,-0.003 0.012,-0.003 0.009,-0.003 0.015,-0.006 0.006,-0.006 0.006,-0.024 0,-0.063 -0.018,-0.123001 -0.018,-0.06 -0.018,-0.123001 0,-0.078 0.021,-0.153001 0.021,-0.075 0.021,-0.153001 0,-0.054 -0.024,-0.108001 -0.024,-0.054 -0.063,-0.096 -0.039,-0.042 -0.09,-0.066 -0.051,-0.027 -0.108,-0.027 -0.063,0 -0.12601,0.015 -0.06,0.015 -0.126,0.036 -0.066,0.018 -0.135,0.033 -0.066,0.015 -0.141,0.015 -0.087,0 -0.171,-0.012 -0.084,-0.012 -0.171,-0.027 -0.042,-0.006 -0.096,-0.012 -0.051,-0.006 -0.099,-0.021 -0.048,-0.015 -0.081,-0.045 -0.033,-0.03 -0.033,-0.087 0,-0.105001 0.036,-0.159002 0.039,-0.057 0.093,-0.084 0.057,-0.027 0.126,-0.033 0.069,-0.006 0.132,-0.012 0.114,-0.009 0.225,-0.015 0.114,-0.009 0.228,-0.009 0.141,0 0.27601,0.018 0.138,0.015 0.279,0.015 0.099,0 0.189,0.03 0.09,0.03 0.156,0.093 0.069,0.06 0.108,0.153002 0.039,0.093 0.039,0.216001 0,0.081 -0.036,0.159002 -0.033,0.075 -0.087,0.135001 0.021,0.039 0.042,0.054 0.021,0.012 0.039,0.024 0.018,0.009 0.03,0.027 0.012,0.015 0.012,0.06 0,0.024 0.006,0.057 0.009,0.03 0.042,0.033 0,0.162001 -0.003,0.321003 -0.003,0.156001 -0.003,0.315002 0,0.135001 0,0.270002 0.003,0.135001 0.024,0.270003 0.012,0.084 0.048,0.129001 0.036,0.045 0.129,0.045 0.135,0 0.26701,-0.027 0.132,-0.03 0.267,-0.03 0.078,0 0.147,0.039 0.072,0.039 0.135,0.084 0.066,0.045 0.126,0.084 0.06,0.039 0.114,0.039 0.024,0 0.039,0.018 0.015,0.015 0.021,0.039 0.009,0.021 0.009,0.045 0.003,0.024 0.003,0.042 z"
           id="path309" /><path
           d="m 121.1534,79.484776 q 0,0.105001 -0.072,0.165002 -0.069,0.063 -0.168,0.093 -0.099,0.033 -0.207,0.042 -0.105,0.009 -0.18,0.009 -0.099,0 -0.165,-0.018 -0.063,-0.018 -0.111,-0.039 -0.048,-0.018 -0.084,-0.036 -0.036,-0.018 -0.075,-0.018 -0.051,0 -0.102,0.018 -0.048,0.018 -0.099,0.018 -0.036,0 -0.06,-0.012 -0.021,-0.012 -0.036,-0.03 -0.015,-0.015 -0.03,-0.027 -0.012,-0.012 -0.03,-0.012 -0.021,0 -0.033,0.015 -0.012,0.018 -0.027,0.039 -0.015,0.021 -0.045,0.036 -0.027,0.018 -0.081,0.018 -0.063,0 -0.123,-0.015 -0.06,-0.012 -0.123,-0.012 -0.063,0 -0.126,0.021 -0.06,0.024 -0.114,0.024 -0.024,0 -0.036,-0.018 -0.012,-0.015 -0.027,-0.015 -0.051,0 -0.108,0.024 -0.054,0.024 -0.111,0.024 -0.03,0 -0.06,-0.009 -0.027,-0.006 -0.057,-0.006 -0.051,0 -0.102,0.024 -0.051,0.024 -0.126,0.024 -0.027,0 -0.12,-0.009 -0.09,-0.006 -0.186,-0.021 -0.096,-0.015 -0.174,-0.039 -0.075,-0.021 -0.075,-0.048 0,-0.078 0.027,-0.156001 0.03,-0.078 0.03,-0.150001 v -0.006 q -0.039,0 -0.045,-0.042 0.006,-0.012 0.018,-0.018 0.015,-0.009 0.03,-0.012 0.015,-0.006 0.027,-0.015 0.012,-0.009 0.012,-0.027 v -0.012 q 0.12,0.012 0.234,0.015 0.117,0.003 0.243,0.003 0.117,0 0.25801,-0.006 0.144,-0.009 0.264,-0.045 0.123,-0.036 0.204,-0.108001 0.084,-0.075 0.084,-0.207001 v -0.021 -0.048 q -0.015,-0.330003 -0.033,-0.648005 -0.015,-0.321003 -0.015,-0.651006 0,-0.087 -0.015,-0.168001 -0.012,-0.084 -0.012,-0.168001 0,-0.105001 0.036,-0.210002 0.039,-0.105001 0.12,-0.177001 -0.003,-0.018 -0.015,-0.024 -0.012,-0.009 -0.03,-0.012 -0.018,-0.003 -0.036,-0.006 -0.015,-0.003 -0.027,-0.009 -0.018,-0.009 -0.024,-0.042 -0.006,-0.033 -0.012,-0.072 -0.003,-0.039 -0.009,-0.075 -0.003,-0.039 -0.018,-0.06 0.009,-0.087 0.03,-0.171001 0.021,-0.084 0.021,-0.171002 0,-0.063 -0.018,-0.099 -0.015,-0.036 -0.036,-0.06 -0.021,-0.024 -0.039,-0.042 -0.015,-0.021 -0.015,-0.051 0,-0.024 0.015,-0.045 l -0.024,-0.003 q -0.03,0 -0.045,0.015 -0.015,0.015 -0.03,0.033 -0.012,0.018 -0.027,0.033 -0.015,0.015 -0.042,0.015 -0.021,0 -0.048,-0.009 -0.051,0.015 -0.096,0.015 -0.105,0 -0.21001,-0.027 -0.102,-0.03 -0.207,-0.03 -0.057,0 -0.111,0.006 -0.054,0.003 -0.108,0.003 -0.078,0 -0.156,-0.018 -0.078,-0.018 -0.138,-0.078 v -0.036 q 0,-0.159001 0.105,-0.240002 0.108,-0.081 0.261,-0.081 0.105,0 0.207,0.027 0.102,0.027 0.207,0.027 0.057,0 0.12001,-0.012 0.063,-0.012 0.129,-0.027 0.066,-0.015 0.132,-0.027 0.069,-0.012 0.135,-0.012 0.102,0 0.192,0.045 0.09,0.042 0.18,0.081 l -0.003,0.024 q 0,0.027 0.012,0.051 0.015,0.021 0.033,0.045 0.018,0.021 0.03,0.045 0.015,0.021 0.015,0.048 0,0.027 -0.009,0.054 -0.006,0.024 -0.006,0.051 0,0.066 0.024,0.126001 0.027,0.06 0.027,0.129001 0,0.072 -0.018,0.141001 -0.015,0.069 -0.015,0.141001 0,0.087 0.021,0.174002 0.021,0.087 0.021,0.174001 0,0.072 -0.024,0.141001 -0.021,0.069 -0.021,0.138002 0,0.051 0.012,0.102 0.015,0.048 0.033,0.096 0.018,0.048 0.03,0.099 0.015,0.048 0.015,0.102001 v 0.06 q 0,0.048 -0.009,0.093 -0.006,0.042 -0.039,0.081 0.015,0.057 0.03,0.123001 0.018,0.066 0.018,0.126001 0,0.03 -0.006,0.066 -0.003,0.033 -0.015,0.069 -0.009,0.033 -0.027,0.063 -0.018,0.027 -0.042,0.045 0.039,0.114001 0.051,0.231002 0.012,0.117001 0.018,0.234002 0.003,0.036 0.012,0.093 0.009,0.057 0.018,0.114001 0.009,0.054 0.015,0.102001 0.009,0.045 0.009,0.063 0,0.051 -0.018,0.099 -0.018,0.048 -0.018,0.099 0,0.039 0.018,0.084 0.018,0.042 0.066,0.042 0.036,0 0.06,-0.015 0.027,-0.018 0.057,-0.036 0.03,-0.021 0.069,-0.036 0.042,-0.018 0.111,-0.018 0.078,0 0.147,0.021 0.069,0.021 0.147,0.021 0.057,0 0.114,-0.009 0.06,-0.012 0.114,-0.024 0.057,-0.015 0.114,-0.027 0.057,-0.012 0.117,-0.012 0.12,0 0.201,0.069 0.084,0.069 0.084,0.204001 z m -1.72201,-3.73503 q -0.012,-0.012 -0.03,-0.024 -0.015,-0.012 -0.036,-0.012 -0.015,0 -0.027,0.015 -0.009,0.012 -0.009,0.027 l 0.015,0.036 q 0.012,0.006 0.018,0.006 0.024,0 0.039,-0.015 0.018,-0.018 0.03,-0.033 z m 0.18,0.834007 q 0,-0.024 -0.015,-0.048 -0.012,-0.027 -0.042,-0.027 -0.009,0 -0.021,0.003 -0.009,0.003 -0.015,0.006 v 0.129001 q 0.024,0.012 0.036,0.012 0.03,0 0.042,-0.024 0.015,-0.027 0.015,-0.051 z"
           id="path311" /><path
           d="m 126.80245,79.451776 q 0,0.054 -0.036,0.114001 -0.033,0.06 -0.087,0.108001 -0.051,0.051 -0.111,0.084 -0.06,0.033 -0.114,0.033 -0.093,0 -0.183,-0.015 -0.09,-0.015 -0.186,-0.015 -0.045,0 -0.10501,-0.006 -0.057,-0.006 -0.081,-0.03 -0.069,-0.012 -0.102,-0.054 -0.033,-0.039 -0.06,-0.087 -0.024,-0.048 -0.054,-0.093 -0.027,-0.045 -0.084,-0.063 -0.171,0.075 -0.303,0.144001 -0.129,0.069 -0.258,0.120001 -0.126,0.054 -0.27301,0.084 -0.144,0.033 -0.345,0.033 -0.087,0 -0.126,-0.009 -0.036,-0.009 -0.057,-0.03 -0.018,-0.018 -0.036,-0.051 -0.015,-0.033 -0.06,-0.081 -0.024,-0.024 -0.048,-0.027 -0.021,-0.006 -0.042,-0.006 h -0.015 q -0.027,0 -0.051,-0.009 -0.021,-0.012 -0.033,-0.06 -0.009,-0.036 -0.036,-0.081 -0.027,-0.048 -0.063,-0.096 -0.033,-0.048 -0.069,-0.087 -0.036,-0.039 -0.066,-0.06 l -0.003,-0.297002 q -0.003,-0.300003 0.018,-0.594005 0.021,-0.294003 0.021,-0.594005 0,-0.045 -0.003,-0.123001 -0.003,-0.081 -0.015,-0.162001 -0.009,-0.081 -0.036,-0.144002 -0.024,-0.066 -0.069,-0.078 -0.069,-0.015 -0.14101,-0.012 -0.069,0 -0.138,-0.003 -0.069,-0.003 -0.135,-0.021 -0.063,-0.018 -0.12,-0.078 -0.033,-0.033 -0.063,-0.081 -0.027,-0.048 -0.027,-0.099 0,-0.075 0.063,-0.126001 0.066,-0.054 0.156,-0.087 0.09,-0.033 0.183,-0.048 0.093,-0.015 0.15001,-0.015 0.165,0 0.312,0.051 0.15,0.048 0.273,0.159001 0.006,0.006 0.006,0.012 0,0.003 -0.003,0.006 0.006,0.087 0.024,0.174001 0.018,0.084 0.018,0.171002 0,0.048 -0.015,0.09 -0.012,0.042 -0.012,0.093 0,0.051 0.012,0.102001 0.012,0.051 0.012,0.102001 0,0.033 -0.006,0.066 -0.006,0.033 -0.006,0.066 0,0.093 0.021,0.183002 0.021,0.087 0.021,0.180001 0,0.081 -0.018,0.159001 -0.018,0.075 -0.042,0.153002 -0.021,0.078 -0.039,0.156001 -0.018,0.075 -0.018,0.156001 0,0.111001 0.045,0.207002 0.045,0.096 0.12,0.168001 0.075,0.069 0.171,0.111001 0.099,0.039 0.207,0.039 0.093,0 0.15001,-0.018 0.06,-0.021 0.096,-0.045 0.036,-0.024 0.057,-0.042 0.024,-0.021 0.048,-0.021 0.024,0 0.042,0.006 0.021,0.003 0.042,0.003 0.042,0 0.069,-0.018 0.027,-0.018 0.048,-0.042 0.024,-0.024 0.045,-0.045 0.024,-0.024 0.06,-0.033 0.069,-0.015 0.12,-0.039 0.051,-0.027 0.051,-0.108001 0,-0.015 0.003,-0.027 0.006,-0.012 0.03,-0.012 0.015,0 0.021,0.009 0.009,0.006 0.024,0.012 0.015,-0.012 0.021,-0.033 0.006,-0.021 0.012,-0.036 0.015,-0.054 0.054,-0.096 0.042,-0.042 0.048,-0.096 0.006,-0.06 0.03,-0.111001 0.024,-0.051 0.024,-0.108001 0,-0.051 -0.027,-0.09 -0.027,-0.039 -0.027,-0.093 0,-0.06 0.021,-0.120001 0.024,-0.06 0.024,-0.120001 -0.018,-0.024 -0.036,-0.054 -0.015,-0.03 -0.015,-0.06 0,-0.051 0.018,-0.066 0.018,-0.018 0.018,-0.036 0,-0.027 -0.015,-0.054 -0.012,-0.03 -0.03,-0.057 -0.018,-0.027 -0.033,-0.054 -0.012,-0.027 -0.012,-0.057 0,-0.03 0.009,-0.057 0.012,-0.03 0.012,-0.063 0,-0.048 -0.024,-0.084 -0.021,-0.039 -0.057,-0.063 -0.033,-0.027 -0.078,-0.039 -0.042,-0.015 -0.084,-0.021 -0.075,-0.009 -0.129,-0.009 -0.054,0 -0.096,-0.012 -0.039,-0.015 -0.075,-0.051 -0.033,-0.036 -0.069,-0.117001 -0.021,-0.048 -0.021,-0.081 0,-0.072 0.063,-0.114001 0.066,-0.045 0.153,-0.066 0.087,-0.024 0.174,-0.03 0.09,-0.009 0.141,-0.009 0.048,0 0.093,0.009 0.048,0.006 0.096,0.006 0.051,0 0.099,-0.018 0.051,-0.021 0.102,-0.021 0.072,0 0.11701,0.042 0.045,0.039 0.069,0.105 0.027,0.063 0.036,0.147002 0.009,0.081 0.009,0.165001 0,0.111001 -0.009,0.210002 -0.006,0.099 -0.006,0.159001 0,0.129001 0.024,0.243002 0.027,0.111001 0.027,0.207002 0,0.03 -0.015,0.06 -0.012,0.03 -0.027,0.06 -0.015,0.03 -0.03,0.06 -0.012,0.03 -0.012,0.06 0,0.024 0.009,0.042 l 0.021,0.174001 q -0.015,0.012 -0.018,0.03 -0.003,0.018 -0.003,0.033 0,0.048 0.009,0.096 0.012,0.045 0.012,0.096 0,0.057 -0.012,0.114001 -0.012,0.054 -0.012,0.111001 0,0.138001 0.093,0.213002 0.096,0.072 0.225,0.072 0.072,0 0.144,-0.024 0.021,0.045 0.057,0.081 0.039,0.033 0.075,0.066 0.036,0.033 0.06,0.075 0.027,0.042 0.027,0.102001 z"
           id="path313" /><path
           d="m 131.69249,78.575769 q 0,0.096 -0.021,0.183001 -0.021,0.084 -0.048,0.168002 -0.027,0.081 -0.057,0.168001 -0.027,0.084 -0.042,0.174002 -0.027,0.150001 -0.108,0.249002 -0.081,0.099 -0.195,0.156001 -0.114,0.06 -0.255,0.087 -0.13801,0.03 -0.28501,0.045 -0.147,0.015 -0.291,0.021 -0.141,0.006 -0.261,0.021 -0.045,-0.033 -0.075,-0.072 -0.03,-0.039 -0.057,-0.075 -0.027,-0.033 -0.06,-0.057 -0.033,-0.021 -0.087,-0.021 -0.018,0 -0.03,-0.048 -0.009,-0.051 -0.018,-0.111001 -0.009,-0.063 -0.021,-0.111001 -0.009,-0.051 -0.027,-0.051 -0.069,0 -0.11101,-0.03 -0.039,-0.03 -0.063,-0.075 -0.021,-0.048 -0.03,-0.105001 -0.006,-0.057 -0.006,-0.111001 0,-0.042 -0.018,-0.078 -0.018,-0.036 -0.039,-0.069 -0.021,-0.036 -0.039,-0.072 -0.018,-0.036 -0.018,-0.075 0,-0.045 0.003,-0.111001 0.006,-0.069 0.009,-0.141001 0.006,-0.072 0.009,-0.141001 0.006,-0.069 0.006,-0.114001 0,-0.054 0.012,-0.09 0.015,-0.036 0.033,-0.063 0.018,-0.027 0.03,-0.048 0.015,-0.021 0.015,-0.048 0,-0.036 -0.018,-0.06 -0.015,-0.024 -0.015,-0.048 0,-0.033 0.021,-0.063 0.021,-0.033 0.03,-0.066 0.033,-0.132001 0.033,-0.261002 0,-0.027 -0.003,-0.051 0,-0.027 -0.003,-0.051 -0.069,-0.057 -0.153,-0.072 -0.084,-0.018 -0.168,-0.024 -0.084,-0.009 -0.162,-0.021 -0.078,-0.012 -0.132,-0.063 -0.045,-0.042 -0.081,-0.093 -0.036,-0.054 -0.096,-0.072 -0.042,-0.015 -0.072,-0.039 -0.027,-0.027 -0.027,-0.075 0,-0.072 0.042,-0.108001 0.045,-0.039 0.105,-0.06 0.06,-0.024 0.123,-0.039 0.066,-0.018 0.111,-0.051 0.045,-0.033 0.108,-0.033 0.027,0 0.051,0.003 0.027,0 0.054,0 0.075,0 0.123,-0.024 0.051,-0.027 0.078,-0.069 0.03,-0.045 0.039,-0.102001 0.012,-0.057 0.012,-0.123001 0,-0.096 -0.012,-0.186001 -0.012,-0.09 -0.012,-0.186002 0,-0.111001 0.03,-0.204002 0.03,-0.093 0.114,-0.171001 0.018,-0.015 0.039,-0.039 0.021,-0.024 0.045,-0.045 0.024,-0.024 0.048,-0.039 0.027,-0.015 0.054,-0.015 0.018,0 0.03,0.009 0.015,0.006 0.03,0.018 0.066,0.066 0.084,0.099 0.021,0.03 0.021,0.072 0,0.024 -0.003,0.054 0,0.027 0,0.072 0,0.096 0.024,0.189002 0.024,0.093 0.024,0.159001 0,0.057 -0.024,0.111001 -0.021,0.051 -0.021,0.108001 0,0.042 0.018,0.078 0.021,0.033 0.045,0.066 0.027,0.033 0.048,0.069 0.021,0.033 0.021,0.078 0.03,0.021 0.135,0.039 0.105,0.015 0.234,0.027 0.129,0.009 0.261,0.015 0.13201,0.006 0.21901,0.006 0.078,0 0.12,0.012 0.042,0.012 0.069,0.027 0.03,0.012 0.054,0.027 0.024,0.015 0.063,0.018 0.048,0.006 0.081,0.027 0.036,0.018 0.036,0.075 0,0.072 -0.039,0.114001 -0.036,0.042 -0.093,0.063 -0.054,0.021 -0.117,0.027 -0.063,0.003 -0.117,0.003 -0.087,0 -0.17401,-0.006 -0.087,-0.006 -0.174,-0.006 -0.144,0 -0.261,0.027 -0.117,0.027 -0.204,0.09 -0.084,0.063 -0.132,0.168002 -0.045,0.102 -0.045,0.258002 0,0.153001 0.018,0.300002 0.021,0.147001 0.021,0.300003 0,0.144001 0.003,0.231002 0.006,0.087 0.036,0.147001 0.039,0.087 0.063,0.198001 0.024,0.111001 0.06,0.210002 0.039,0.099 0.105,0.168001 0.069,0.066 0.201,0.066 0.045,0 0.12,-0.012 0.075,-0.012 0.15,-0.036 0.075,-0.027 0.12901,-0.066 0.054,-0.042 0.054,-0.102001 0,-0.051 -0.03,-0.102001 -0.03,-0.054 -0.03,-0.114001 0,-0.042 0.018,-0.072 0.021,-0.033 0.051,-0.057 0.033,-0.027 0.066,-0.045 0.036,-0.021 0.069,-0.036 0.054,-0.069 0.129,-0.114001 0.078,-0.048 0.165,-0.048 0.06,0 0.114,0.021 0.057,0.021 0.105,0.054 0.009,0.054 0.009,0.111001 z"
           id="path315" /><path
           d="m 136.70853,79.013772 q 0,0.081 -0.027,0.138002 -0.024,0.057 -0.066,0.102 -0.039,0.045 -0.093,0.084 -0.051,0.039 -0.105,0.084 -0.042,0.036 -0.075,0.054 -0.033,0.018 -0.066,0.03 -0.03,0.012 -0.066,0.024 -0.033,0.012 -0.078,0.033 -0.06,0.03 -0.102,0.057 -0.039,0.024 -0.081,0.045 -0.039,0.021 -0.087,0.033 -0.048,0.015 -0.12,0.024 -0.12,0.015 -0.243,0.036 -0.12,0.021 -0.24,0.021 -0.024,0 -0.051,-0.012 -0.024,-0.009 -0.057,-0.021 -0.033,-0.009 -0.075,-0.021 -0.039,-0.009 -0.096,-0.009 -0.06,0 -0.096,-0.018 -0.036,-0.018 -0.066,-0.042 -0.027,-0.024 -0.057,-0.051 -0.03,-0.03 -0.078,-0.051 -0.18001,-0.081 -0.30601,-0.195002 -0.126,-0.114001 -0.216,-0.255002 -0.09,-0.141001 -0.15,-0.306002 -0.06,-0.165002 -0.102,-0.345003 -0.033,-0.126001 -0.033,-0.252002 0,-0.165002 0.078,-0.306003 -0.03,-0.084 -0.03,-0.162001 0,-0.057 0.033,-0.168001 0.033,-0.114001 0.084,-0.228002 0.054,-0.114001 0.114,-0.204002 0.063,-0.093 0.117,-0.114001 0.042,-0.015 0.057,-0.024 0.018,-0.012 0.018,-0.06 0,-0.036 0.027,-0.06 0.03,-0.024 0.069,-0.039 0.042,-0.015 0.081,-0.027 0.042,-0.012 0.069,-0.024 0.11101,-0.054 0.21001,-0.09 0.102,-0.039 0.201,-0.063 0.102,-0.027 0.21,-0.039 0.108,-0.012 0.231,-0.012 0.066,0 0.129,0.018 0.063,0.018 0.12,0.048 0.06,0.027 0.117,0.063 0.057,0.033 0.11101,0.066 h -0.003 q 0.045,0.006 0.084,0.027 0.042,0.018 0.087,0.024 0.042,0.051 0.108,0.099 0.069,0.045 0.132,0.096 0.066,0.051 0.111,0.111001 0.048,0.057 0.048,0.132001 0,0.012 -0.003,0.024 0,0.012 -0.003,0.027 l 0.012,-0.015 q 0.012,0.009 0.021,0.03 0.012,0.021 0.021,0.048 0.009,0.024 0.015,0.051 0.006,0.024 0.009,0.039 0.024,0.039 0.063,0.063 0.042,0.024 0.066,0.066 -0.03,0.03 -0.03,0.078 0,0.051 0.021,0.102 0.021,0.048 0.021,0.099 0,0.06 -0.006,0.117001 -0.006,0.054 -0.006,0.114001 0,0.045 -0.036,0.069 -0.033,0.024 -0.075,0.042 -0.039,0.018 -0.072,0.036 -0.033,0.018 -0.033,0.051 0,0.024 -0.03,0.024 -0.027,-0.003 -0.045,-0.003 -0.132,0 -0.264,-0.033 -0.129,-0.033 -0.25801,-0.033 -0.141,0 -0.279,0.021 -0.138,0.018 -0.279,0.018 -0.105,0 -0.21,-0.006 -0.102,-0.006 -0.207,-0.006 -0.027,0 -0.102,0.012 -0.075,0.009 -0.15901,0.027 -0.081,0.015 -0.156,0.039 -0.075,0.021 -0.105,0.042 -0.003,0.015 -0.003,0.042 0,0.141001 0.081,0.291002 0.084,0.150001 0.21901,0.273002 0.135,0.123001 0.303,0.204002 0.168,0.081 0.339,0.081 0.099,0 0.195,0.009 0.099,0.006 0.192,0.042 0.081,-0.039 0.147,-0.09 0.069,-0.051 0.13201,-0.108 0.063,-0.057 0.123,-0.117001 0.06,-0.06 0.123,-0.120001 0.012,-0.012 0.057,-0.021 0.048,-0.012 0.102,-0.018 0.054,-0.009 0.102,-0.012 0.051,-0.006 0.069,-0.006 0.069,0 0.129,0.021 0.018,0.069 0.018,0.135001 z m -0.45,-1.218009 q 0,-0.045 -0.015,-0.087 -0.015,-0.042 -0.024,-0.087 -0.015,-0.084 -0.015,-0.162001 0,-0.081 -0.024,-0.162002 h -0.003 q 0,0.018 -0.012,0.036 -0.012,0.015 -0.033,0.015 -0.036,0 -0.069,-0.018 -0.033,-0.018 -0.057,-0.045 -0.11401,-0.051 -0.20701,-0.096 -0.09,-0.045 -0.183,-0.078 -0.09,-0.036 -0.195,-0.054 -0.102,-0.021 -0.237,-0.021 -0.012,0 -0.024,0.003 -0.009,0 -0.018,0.009 l 0.015,0.033 -0.024,0.006 q -0.081,0.015 -0.135,0.03 -0.051,0.012 -0.093,0.036 -0.042,0.024 -0.084,0.06 -0.039,0.033 -0.102,0.087 -0.03,0.027 -0.066,0.042 -0.033,0.012 -0.069,0.024 -0.033,0.009 -0.066,0.021 -0.03,0.012 -0.051,0.039 -0.021,0.075 -0.063,0.147001 -0.039,0.069 -0.039,0.147001 0,0.045 0.036,0.081 0.039,0.033 0.096,0.057 0.06,0.024 0.129,0.042 0.072,0.018 0.14101,0.027 0.069,0.009 0.126,0.015 0.06,0.003 0.093,0.003 0.114,0 0.225,-0.021 0.111,-0.024 0.225,-0.024 0.117,0 0.234,0.012 0.117,0.009 0.23401,0.009 0.03,0 0.09,-0.003 0.06,-0.003 0.117,-0.015 0.06,-0.015 0.102,-0.039 0.045,-0.027 0.045,-0.069 z"
           id="path317" /></g></g></g></svg>
